<svg width="700" height="280" fill="none" xmlns="http://www.w3.org/2000/svg"><g clip-path="url(#clip0_42_187)"><g opacity=".1" clip-path="url(#clip1_42_187)" stroke="#2ABF6F" stroke-width="1.015"><path d="M1448.57 574.75c47.62-282.182 51.26-746.249-315.12-345.063C675.472 731.17 498.901 784.204 362.183 606.974c-109.374-141.785-313.695-59.077-402.183 0"/><path d="M1448.57 532.127c47.62-282.182 51.26-746.25-315.12-345.063-457.978 501.482-634.549 554.517-771.267 377.287-109.374-141.785-313.695-59.077-402.183 0"/><path d="M1448.57 489.502c47.62-282.182 51.26-746.25-315.12-345.063-457.978 501.482-634.549 554.517-771.267 377.287-109.374-141.785-313.695-59.077-402.183 0"/><path d="M1448.57 446.879c47.62-282.182 51.26-746.25-315.12-345.063-457.978 501.482-634.549 554.517-771.267 377.286-109.374-141.784-313.695-59.076-402.183 0"/><path d="M1448.57 404.256c47.62-282.182 51.26-746.25-315.12-345.063C675.472 560.675 498.901 613.71 362.183 436.479c-109.374-141.784-313.695-59.077-402.183 0"/><path d="M1448.57 361.631c47.62-282.182 51.26-746.25-315.12-345.063C675.472 518.05 498.901 571.085 362.183 393.854 252.809 252.07 48.488 334.777-40 393.854"/><path d="M1448.57 319.008c47.62-282.182 51.26-746.25-315.12-345.063C675.472 475.427 498.901 528.462 362.183 351.23 252.809 209.446 48.488 292.153-40 351.23"/><path d="M1448.57 276.385c47.62-282.182 51.26-746.25-315.12-345.063-457.978 501.482-634.549 554.517-771.267 377.286-109.374-141.784-313.695-59.077-402.183 0"/><path d="M1448.57 233.762c47.62-282.182 51.26-746.25-315.12-345.064-457.978 501.483-634.549 554.518-771.267 377.287-109.374-141.784-313.695-59.077-402.183 0"/><path d="M1448.57 191.137c47.62-282.182 51.26-746.25-315.12-345.064C675.472 347.556 498.901 400.591 362.183 223.36 252.809 81.576 48.488 164.283-40 223.36"/><path d="M1448.58 148.514c47.61-282.182 51.25-746.25-315.13-345.064-457.974 501.483-634.545 554.518-771.263 377.287-109.374-141.784-313.695-59.077-402.184 0"/><path d="M1448.58 105.891c47.61-282.182 51.25-746.25-315.13-345.064C675.476 262.31 498.905 315.345 362.187 138.114c-109.374-141.785-313.695-59.077-402.184 0"/><path d="M1448.58 63.267c47.61-282.182 51.25-746.249-315.13-345.063C675.476 219.687 498.905 272.722 362.187 95.491c-109.374-141.784-313.695-59.077-402.184 0"/><path d="M1448.58 20.642c47.61-282.182 51.25-746.249-315.13-345.063C675.476 177.062 498.905 230.097 362.187 52.866 252.813-88.918 48.492-6.21-39.997 52.866"/><path d="M1448.57-21.98c47.62-282.183 51.26-746.25-315.12-345.064C675.472 134.439 498.901 187.474 362.183 10.243 252.809-131.542 48.488-48.834-40 10.243"/><path d="M1448.57-64.604c47.62-282.182 51.26-746.249-315.12-345.063C675.472 91.816 498.901 144.851 362.183-32.38 252.809-174.165 48.488-91.457-40-32.38"/><path d="M1448.57-107.227c47.62-282.182 51.26-746.249-315.12-345.063C675.472 49.193 498.901 102.228 362.183-75.003 252.809-216.788 48.488-134.08-40-75.003"/></g></g><defs><clipPath id="clip0_42_187"><path fill="#fff" d="M0 0h700v280H0z"/></clipPath><clipPath id="clip1_42_187"><path fill="#fff" transform="rotate(-180 761 429.453)" d="M0 0h1562v893.811H0z"/></clipPath></defs></svg>