<svg width="700" height="340" fill="none" xmlns="http://www.w3.org/2000/svg"><g opacity=".2" clip-path="url(#clip0_23_34)"><path d="M-120.537 76.464c-30.562 136.912-32.897 362.073 202.265 167.421C375.68.571 489.012-25.161 576.765 60.829c70.202 68.793 201.346 28.664 258.143 0" stroke="url(#paint0_linear_23_34)"/><path d="M-120.537 97.151c-30.562 136.912-32.897 362.073 202.265 167.422C375.68 21.258 489.012-4.474 576.765 81.517c70.202 68.792 201.346 28.663 258.143 0" stroke="url(#paint1_linear_23_34)"/><path d="M-120.537 117.839c-30.562 136.912-32.897 362.073 202.265 167.421C375.68 41.946 489.012 16.214 576.765 102.204c70.202 68.793 201.346 28.664 258.143 0" stroke="url(#paint2_linear_23_34)"/><path d="M-120.537 138.519c-30.562 136.912-32.897 362.073 202.265 167.421C375.68 62.625 489.012 36.893 576.765 122.884c70.202 68.793 201.346 28.664 258.143 0" stroke="url(#paint3_linear_23_34)"/><path d="M-120.537 159.206c-30.562 136.912-32.897 362.073 202.265 167.421C375.68 83.313 489.012 57.581 576.765 143.572c70.202 68.792 201.346 28.663 258.143 0" stroke="url(#paint4_linear_23_34)"/><path d="M-120.537 179.886c-30.562 136.912-32.897 362.073 202.265 167.421C375.68 103.993 489.012 78.261 576.765 164.251c70.202 68.793 201.346 28.664 258.143 0" stroke="url(#paint5_linear_23_34)"/><path d="M-120.537 200.581c-30.562 136.912-32.897 362.073 202.265 167.421C375.68 124.688 489.012 98.956 576.765 184.947c70.202 68.792 201.346 28.663 258.143 0" stroke="url(#paint6_linear_23_34)"/><path d="M-120.537 221.261c-30.562 136.912-32.897 362.073 202.265 167.421C375.68 145.368 489.012 119.636 576.765 205.626c70.202 68.793 201.346 28.664 258.143 0" stroke="url(#paint7_linear_23_34)"/><path d="M-120.537 241.941c-30.562 136.911-32.897 362.072 202.265 167.421C375.68 166.047 489.012 140.315 576.765 226.306c70.202 68.792 201.346 28.663 258.143 0" stroke="url(#paint8_linear_23_34)"/><path d="M-120.537 262.636c-30.562 136.912-32.897 362.073 202.265 167.421C375.68 186.743 489.012 161.011 576.765 247.001c70.202 68.793 201.346 28.664 258.143 0" stroke="url(#paint9_linear_23_34)"/><path d="M-120.537 283.316c-30.562 136.911-32.897 362.072 202.265 167.421C375.68 207.422 489.012 181.69 576.765 267.681c70.202 68.792 201.346 28.663 258.143 0" stroke="url(#paint10_linear_23_34)"/><path d="M-120.537 304.011c-30.562 136.912-32.897 362.073 202.265 167.421C375.68 228.118 489.012 202.386 576.765 288.376c70.202 68.793 201.346 28.664 258.143 0" stroke="url(#paint11_linear_23_34)"/><path d="M-120.537 324.691c-30.562 136.911-32.897 362.072 202.265 167.421C375.68 248.797 489.012 223.065 576.765 309.056c70.202 68.792 201.346 28.663 258.143 0" stroke="url(#paint12_linear_23_34)"/><path d="M-120.537 345.378c-30.562 136.912-32.897 362.073 202.265 167.421C375.68 269.485 489.012 243.753 576.765 329.743c70.202 68.793 201.346 28.664 258.143 0" stroke="url(#paint13_linear_23_34)"/><path d="M-120.537 366.058c-30.562 136.912-32.897 362.073 202.265 167.421C375.68 290.164 489.012 264.432 576.765 350.423c70.202 68.793 201.346 28.664 258.143 0" stroke="url(#paint14_linear_23_34)"/><path d="M-120.537 386.745c-30.562 136.912-32.897 362.073 202.265 167.421C375.68 310.852 489.012 285.12 576.765 371.111c70.202 68.792 201.346 28.663 258.143 0" stroke="url(#paint15_linear_23_34)"/></g><defs><linearGradient id="paint0_linear_23_34" x1="349.954" y1="319.807" x2="300.924" y2="73.744" gradientUnits="userSpaceOnUse"><stop stop-color="#01A561"/><stop offset=".821" stop-color="#394FC2"/></linearGradient><linearGradient id="paint1_linear_23_34" x1="349.954" y1="340.494" x2="300.924" y2="94.432" gradientUnits="userSpaceOnUse"><stop stop-color="#01A561"/><stop offset=".821" stop-color="#394FC2"/></linearGradient><linearGradient id="paint2_linear_23_34" x1="349.954" y1="361.182" x2="300.924" y2="115.119" gradientUnits="userSpaceOnUse"><stop stop-color="#01A561"/><stop offset=".821" stop-color="#394FC2"/></linearGradient><linearGradient id="paint3_linear_23_34" x1="349.954" y1="381.861" x2="300.924" y2="135.799" gradientUnits="userSpaceOnUse"><stop stop-color="#01A561"/><stop offset=".821" stop-color="#394FC2"/></linearGradient><linearGradient id="paint4_linear_23_34" x1="349.954" y1="402.549" x2="300.924" y2="156.486" gradientUnits="userSpaceOnUse"><stop stop-color="#01A561"/><stop offset=".821" stop-color="#394FC2"/></linearGradient><linearGradient id="paint5_linear_23_34" x1="349.954" y1="423.228" x2="300.924" y2="177.166" gradientUnits="userSpaceOnUse"><stop stop-color="#01A561"/><stop offset=".821" stop-color="#394FC2"/></linearGradient><linearGradient id="paint6_linear_23_34" x1="349.954" y1="443.924" x2="300.924" y2="197.861" gradientUnits="userSpaceOnUse"><stop stop-color="#01A561"/><stop offset=".821" stop-color="#394FC2"/></linearGradient><linearGradient id="paint7_linear_23_34" x1="349.954" y1="464.603" x2="300.924" y2="218.541" gradientUnits="userSpaceOnUse"><stop stop-color="#01A561"/><stop offset=".821" stop-color="#394FC2"/></linearGradient><linearGradient id="paint8_linear_23_34" x1="349.954" y1="485.283" x2="300.924" y2="239.221" gradientUnits="userSpaceOnUse"><stop stop-color="#01A561"/><stop offset=".821" stop-color="#394FC2"/></linearGradient><linearGradient id="paint9_linear_23_34" x1="349.954" y1="505.978" x2="300.924" y2="259.916" gradientUnits="userSpaceOnUse"><stop stop-color="#01A561"/><stop offset=".821" stop-color="#394FC2"/></linearGradient><linearGradient id="paint10_linear_23_34" x1="349.954" y1="526.658" x2="300.924" y2="280.596" gradientUnits="userSpaceOnUse"><stop stop-color="#01A561"/><stop offset=".821" stop-color="#394FC2"/></linearGradient><linearGradient id="paint11_linear_23_34" x1="349.954" y1="547.353" x2="300.924" y2="301.291" gradientUnits="userSpaceOnUse"><stop stop-color="#01A561"/><stop offset=".821" stop-color="#394FC2"/></linearGradient><linearGradient id="paint12_linear_23_34" x1="349.954" y1="568.033" x2="300.924" y2="321.971" gradientUnits="userSpaceOnUse"><stop stop-color="#01A561"/><stop offset=".821" stop-color="#394FC2"/></linearGradient><linearGradient id="paint13_linear_23_34" x1="349.954" y1="588.721" x2="300.924" y2="342.658" gradientUnits="userSpaceOnUse"><stop stop-color="#01A561"/><stop offset=".821" stop-color="#394FC2"/></linearGradient><linearGradient id="paint14_linear_23_34" x1="349.954" y1="609.4" x2="300.924" y2="363.338" gradientUnits="userSpaceOnUse"><stop stop-color="#01A561"/><stop offset=".821" stop-color="#394FC2"/></linearGradient><linearGradient id="paint15_linear_23_34" x1="349.954" y1="630.088" x2="300.924" y2="384.025" gradientUnits="userSpaceOnUse"><stop stop-color="#01A561"/><stop offset=".821" stop-color="#394FC2"/></linearGradient><clipPath id="clip0_23_34"><path fill="#fff" d="M0 0h700v340H0z"/></clipPath></defs></svg>