<svg width="328" height="452" fill="none" xmlns="http://www.w3.org/2000/svg"><g opacity=".2" clip-path="url(#clip0_23_63)"><path d="M-18.447-60.114C-49.01 76.798-51.344 301.959 183.817 107.307 477.77-136.007 591.102-161.739 678.855-75.749c70.202 68.793 201.346 28.664 258.143 0" stroke="url(#paint0_linear_23_63)"/><path d="M-18.455-39.427C-49.017 97.485-51.352 322.646 183.81 127.995 477.762-115.32 591.094-141.052 678.847-55.061c70.202 68.792 201.346 28.663 258.143 0" stroke="url(#paint1_linear_23_63)"/><path d="M-18.457-18.74c-30.562 136.913-32.897 362.074 202.265 167.422C477.76-94.632 591.092-120.364 678.845-34.374c70.202 68.793 201.346 28.664 258.143 0" stroke="url(#paint2_linear_23_63)"/><path d="M-18.462 1.94C-49.025 138.853-51.36 364.014 183.802 169.363 477.754-73.953 591.086-99.685 678.839-13.694c70.202 68.793 201.346 28.663 258.143 0" stroke="url(#paint3_linear_23_63)"/><path d="M-18.466 22.628C-49.03 159.54-51.364 384.701 183.798 190.05 477.75-53.265 591.082-78.997 678.835 6.993c70.202 68.793 201.346 28.664 258.143 0" stroke="url(#paint4_linear_23_63)"/><path d="M-18.47 43.308C-49.033 180.22-51.368 405.38 183.794 210.729 477.746-32.586 591.079-58.318 678.831 27.673c70.203 68.793 201.346 28.664 258.143 0" stroke="url(#paint5_linear_23_63)"/><path d="M-18.476 64.003C-49.04 200.915-51.374 426.076 183.788 231.424 477.74-11.89 591.073-37.622 678.825 48.368c70.203 68.793 201.347 28.664 258.143 0" stroke="url(#paint6_linear_23_63)"/><path d="M-18.482 84.683C-49.045 221.595-51.38 446.756 183.782 252.104 477.735 8.789 591.067-16.943 678.82 69.048c70.202 68.793 201.346 28.664 258.142 0" stroke="url(#paint7_linear_23_63)"/><path d="M-18.484 105.362C-49.047 242.274-51.381 467.435 183.78 272.784 477.733 29.469 591.065 3.737 678.818 89.728c70.202 68.792 201.346 28.663 258.142 0" stroke="url(#paint8_linear_23_63)"/><path d="M-18.49 126.058C-49.052 262.97-51.387 488.131 183.774 293.479 477.727 50.165 591.059 24.432 678.812 110.423c70.202 68.793 201.346 28.664 258.143 0" stroke="url(#paint9_linear_23_63)"/><path d="M-18.492 146.737C-49.054 283.649-51.389 508.81 183.773 314.159 477.725 70.844 591.057 45.112 678.81 131.103c70.202 68.792 201.346 28.663 258.143 0" stroke="url(#paint10_linear_23_63)"/><path d="M-18.5 167.433c-30.562 136.912-32.897 362.073 202.265 167.421C477.717 91.54 591.049 65.807 678.802 151.798c70.202 68.793 201.346 28.664 258.143 0" stroke="url(#paint11_linear_23_63)"/><path d="M-18.505 188.112c-30.563 136.912-32.898 362.073 202.264 167.422C477.711 112.219 591.043 86.487 678.796 172.478c70.202 68.792 201.346 28.663 258.143 0" stroke="url(#paint12_linear_23_63)"/><path d="M-18.51 208.8c-30.562 136.912-32.897 362.073 202.265 167.421 293.952-243.314 407.284-269.046 495.037-183.056 70.202 68.793 201.346 28.664 258.143 0" stroke="url(#paint13_linear_23_63)"/><path d="M-18.511 229.48C-49.074 366.392-51.41 591.552 183.753 396.901 477.705 153.586 591.037 127.854 678.79 213.845c70.203 68.793 201.346 28.664 258.143 0" stroke="url(#paint14_linear_23_63)"/><path d="M-18.52 250.167C-49.081 387.079-51.416 612.24 183.746 417.588 477.697 174.274 591.03 148.542 678.782 234.532c70.203 68.793 201.347 28.664 258.143 0" stroke="url(#paint15_linear_23_63)"/><path d="M-18.521 270.847C-49.084 407.759-51.42 632.92 183.743 438.268c293.952-243.314 407.285-269.046 495.038-183.056 70.202 68.793 201.346 28.664 258.142 0" stroke="url(#paint16_linear_23_63)"/><path d="M-18.529 291.534c-30.563 136.912-32.897 362.073 202.264 167.422C477.688 215.641 591.02 189.909 678.773 275.9c70.202 68.792 201.346 28.663 258.143 0" stroke="url(#paint17_linear_23_63)"/><path d="M-18.53 312.222c-30.563 136.912-32.898 362.073 202.263 167.421 293.953-243.314 407.285-269.046 495.038-183.056 70.202 68.793 201.346 28.664 258.143 0" stroke="url(#paint18_linear_23_63)"/><path d="M-18.537 332.909c-30.562 136.912-32.897 362.073 202.265 167.422C477.68 257.016 591.012 231.284 678.765 317.275c70.202 68.792 201.346 28.663 258.143 0" stroke="url(#paint19_linear_23_63)"/></g><defs><linearGradient id="paint0_linear_23_63" x1="452.044" y1="183.228" x2="403.014" y2="-62.834" gradientUnits="userSpaceOnUse"><stop stop-color="#01A561"/><stop offset=".821" stop-color="#394FC2"/></linearGradient><linearGradient id="paint1_linear_23_63" x1="452.036" y1="203.916" x2="403.006" y2="-42.147" gradientUnits="userSpaceOnUse"><stop stop-color="#01A561"/><stop offset=".821" stop-color="#394FC2"/></linearGradient><linearGradient id="paint2_linear_23_63" x1="452.034" y1="224.603" x2="403.004" y2="-21.459" gradientUnits="userSpaceOnUse"><stop stop-color="#01A561"/><stop offset=".821" stop-color="#394FC2"/></linearGradient><linearGradient id="paint3_linear_23_63" x1="452.028" y1="245.283" x2="402.998" y2="-.779" gradientUnits="userSpaceOnUse"><stop stop-color="#01A561"/><stop offset=".821" stop-color="#394FC2"/></linearGradient><linearGradient id="paint4_linear_23_63" x1="452.024" y1="265.971" x2="402.994" y2="19.908" gradientUnits="userSpaceOnUse"><stop stop-color="#01A561"/><stop offset=".821" stop-color="#394FC2"/></linearGradient><linearGradient id="paint5_linear_23_63" x1="452.02" y1="286.65" x2="402.991" y2="40.588" gradientUnits="userSpaceOnUse"><stop stop-color="#01A561"/><stop offset=".821" stop-color="#394FC2"/></linearGradient><linearGradient id="paint6_linear_23_63" x1="452.014" y1="307.346" x2="402.985" y2="61.283" gradientUnits="userSpaceOnUse"><stop stop-color="#01A561"/><stop offset=".821" stop-color="#394FC2"/></linearGradient><linearGradient id="paint7_linear_23_63" x1="452.009" y1="328.025" x2="402.979" y2="81.963" gradientUnits="userSpaceOnUse"><stop stop-color="#01A561"/><stop offset=".821" stop-color="#394FC2"/></linearGradient><linearGradient id="paint8_linear_23_63" x1="452.007" y1="348.705" x2="402.977" y2="102.643" gradientUnits="userSpaceOnUse"><stop stop-color="#01A561"/><stop offset=".821" stop-color="#394FC2"/></linearGradient><linearGradient id="paint9_linear_23_63" x1="452.001" y1="369.4" x2="402.971" y2="123.338" gradientUnits="userSpaceOnUse"><stop stop-color="#01A561"/><stop offset=".821" stop-color="#394FC2"/></linearGradient><linearGradient id="paint10_linear_23_63" x1="451.999" y1="390.08" x2="402.969" y2="144.018" gradientUnits="userSpaceOnUse"><stop stop-color="#01A561"/><stop offset=".821" stop-color="#394FC2"/></linearGradient><linearGradient id="paint11_linear_23_63" x1="451.991" y1="410.775" x2="402.961" y2="164.713" gradientUnits="userSpaceOnUse"><stop stop-color="#01A561"/><stop offset=".821" stop-color="#394FC2"/></linearGradient><linearGradient id="paint12_linear_23_63" x1="451.985" y1="431.455" x2="402.955" y2="185.393" gradientUnits="userSpaceOnUse"><stop stop-color="#01A561"/><stop offset=".821" stop-color="#394FC2"/></linearGradient><linearGradient id="paint13_linear_23_63" x1="451.981" y1="452.143" x2="402.951" y2="206.08" gradientUnits="userSpaceOnUse"><stop stop-color="#01A561"/><stop offset=".821" stop-color="#394FC2"/></linearGradient><linearGradient id="paint14_linear_23_63" x1="451.979" y1="472.822" x2="402.95" y2="226.76" gradientUnits="userSpaceOnUse"><stop stop-color="#01A561"/><stop offset=".821" stop-color="#394FC2"/></linearGradient><linearGradient id="paint15_linear_23_63" x1="451.971" y1="493.51" x2="402.942" y2="247.447" gradientUnits="userSpaceOnUse"><stop stop-color="#01A561"/><stop offset=".821" stop-color="#394FC2"/></linearGradient><linearGradient id="paint16_linear_23_63" x1="451.969" y1="514.189" x2="402.94" y2="268.127" gradientUnits="userSpaceOnUse"><stop stop-color="#01A561"/><stop offset=".821" stop-color="#394FC2"/></linearGradient><linearGradient id="paint17_linear_23_63" x1="451.962" y1="534.877" x2="402.932" y2="288.814" gradientUnits="userSpaceOnUse"><stop stop-color="#01A561"/><stop offset=".821" stop-color="#394FC2"/></linearGradient><linearGradient id="paint18_linear_23_63" x1="451.96" y1="555.564" x2="402.93" y2="309.502" gradientUnits="userSpaceOnUse"><stop stop-color="#01A561"/><stop offset=".821" stop-color="#394FC2"/></linearGradient><linearGradient id="paint19_linear_23_63" x1="451.954" y1="576.252" x2="402.924" y2="330.189" gradientUnits="userSpaceOnUse"><stop stop-color="#01A561"/><stop offset=".821" stop-color="#394FC2"/></linearGradient><clipPath id="clip0_23_63"><path fill="#fff" d="M0 0h328v452H0z"/></clipPath></defs></svg>