<svg width="1440" height="824" fill="none" xmlns="http://www.w3.org/2000/svg"><g opacity=".2" clip-path="url(#clip0_15_328)" stroke="#2ABF6F"><path d="M1459.8 684.204c46.92-278.054 50.5-735.333-310.52-340.015C698.006 838.335 524.018 890.594 389.3 715.956c-107.774-139.71-309.106-58.213-396.3 0"/><path d="M1459.8 642.204c46.92-278.054 50.5-735.333-310.52-340.015C698.006 796.335 524.018 848.594 389.3 673.956c-107.774-139.71-309.106-58.213-396.3 0"/><path d="M1459.8 600.204c46.92-278.054 50.5-735.333-310.52-340.015C698.006 754.335 524.018 806.594 389.3 631.956c-107.774-139.71-309.106-58.213-396.3 0"/><path d="M1459.8 558.204c46.92-278.054 50.5-735.333-310.52-340.015C698.006 712.335 524.018 764.594 389.3 589.956c-107.774-139.71-309.106-58.213-396.3 0"/><path d="M1459.8 516.204c46.92-278.054 50.5-735.333-310.52-340.015C698.006 670.335 524.018 722.594 389.3 547.956c-107.774-139.71-309.106-58.213-396.3 0"/><path d="M1459.8 474.204c46.92-278.054 50.5-735.333-310.52-340.015C698.006 628.335 524.018 680.594 389.3 505.956c-107.774-139.71-309.106-58.213-396.3 0"/><path d="M1459.8 432.204c46.92-278.054 50.5-735.333-310.52-340.015C698.006 586.335 524.018 638.593 389.3 463.956c-107.774-139.71-309.106-58.213-396.3 0"/><path d="M1459.8 390.204c46.92-278.054 50.5-735.333-310.52-340.016C698.006 544.335 524.018 596.594 389.3 421.956c-107.774-139.71-309.106-58.213-396.3 0"/><path d="M1459.8 348.204c46.92-278.054 50.5-735.333-310.52-340.015C698.006 502.335 524.018 554.594 389.3 379.956c-107.774-139.71-309.106-58.213-396.3 0"/><path d="M1459.8 306.204c46.92-278.054 50.5-735.333-310.52-340.016C698.006 460.335 524.018 512.594 389.3 337.956c-107.774-139.71-309.106-58.213-396.3 0"/><path d="M1459.8 264.204c46.92-278.054 50.5-735.333-310.52-340.015C698.006 418.335 524.018 470.594 389.3 295.956c-107.774-139.71-309.106-58.213-396.3 0"/><path d="M1459.8 222.204c46.92-278.054 50.5-735.333-310.52-340.015C698.006 376.335 524.018 428.594 389.3 253.956c-107.774-139.71-309.106-58.213-396.3 0"/><path d="M1459.8 180.204c46.92-278.054 50.5-735.333-310.52-340.015C698.006 334.335 524.018 386.594 389.3 211.956c-107.774-139.71-309.106-58.213-396.3 0"/><path d="M1459.8 138.204c46.92-278.054 50.5-735.333-310.52-340.015C698.006 292.335 524.018 344.594 389.3 169.956c-107.774-139.71-309.106-58.213-396.3 0"/><path d="M1459.8 96.204c46.92-278.054 50.5-735.333-310.52-340.015C698.006 250.335 524.018 302.594 389.3 127.956c-107.774-139.71-309.106-58.213-396.3 0"/><path d="M1459.8 54.204c46.92-278.054 50.5-735.333-310.52-340.015C698.006 208.335 524.018 260.594 389.3 85.956 281.526-53.754 80.194 27.743-7 85.956"/><path d="M1459.8 12.204c46.92-278.054 50.5-735.333-310.52-340.015C698.006 166.335 524.018 218.594 389.3 43.956 281.526-95.754 80.194-14.257-7 43.956"/><path d="M1459.8-29.796c46.92-278.054 50.5-735.333-310.52-340.015C698.006 124.335 524.018 176.594 389.3 1.956 281.526-137.754 80.194-56.257-7 1.956"/><path d="M1459.8-71.796c46.92-278.054 50.5-735.333-310.52-340.015C698.006 82.335 524.018 134.594 389.3-40.044c-107.774-139.71-309.106-58.213-396.3 0"/><path d="M1459.8-113.796c46.92-278.054 50.5-735.333-310.52-340.015C698.006 40.335 524.018 92.594 389.3-82.044c-107.774-139.71-309.106-58.213-396.3 0"/></g><defs><clipPath id="clip0_15_328"><path fill="#fff" transform="rotate(-180 720 412)" d="M0 0h1440v824H0z"/></clipPath></defs></svg>