<svg width="844" height="656" fill="none" xmlns="http://www.w3.org/2000/svg"><g clip-path="url(#clip0_40_167)" stroke="#FE4819"><path opacity=".1" d="M91.465 538.781l.442-.255-.493-.132L-58.29 498.28a3.029 3.029 0 01-2.142-3.709l8.922-33.296a3.029 3.029 0 013.71-2.142l148.526 39.797.493.132-.255-.441-80.562-139.537c-.84-1.455-.401-3.419.977-4.379l28.52-19.856c1.366-.952 3.142-.556 3.975.887l82.748 143.323.255.442.132-.493 43.066-160.728c.432-1.61 2.051-2.467 3.625-1.918l32.568 11.353c1.586.553 2.521 2.321 2.087 3.942l-42.301 157.871-.132.492.441-.255 143.349-82.762c1.443-.833 3.179-.288 3.887 1.219l14.77 31.456c.714 1.521.111 3.441-1.343 4.281L197.53 524.496l-.442.255.493.132 148.477 39.784a3.03 3.03 0 012.142 3.71l-8.921 33.296a3.03 3.03 0 01-3.71 2.142l-149.656-40.101-.493-.132.255.442 81.422 141.027c.84 1.455.402 3.419-.976 4.379l-28.52 19.856c-1.367.952-3.142.556-3.975-.887l-82.785-143.387-.255-.442-.132.493-43.088 160.807c-.431 1.61-2.051 2.467-3.625 1.918l-32.568-11.353c-1.585-.553-2.52-2.321-2.086-3.943l42.293-157.841.132-.493-.442.255-143.36 82.77c-1.444.833-3.18.288-3.887-1.22l-14.77-31.456c-.714-1.52-.112-3.44 1.343-4.28l141.07-81.446z" fill="#FE4819" stroke-width=".422"/><path opacity=".23" d="M673.633 95.613l-2.054-1.187.614 2.292 27.85 103.941c.182.675-.22 1.37-.895 1.551l-23.118 6.194a1.266 1.266 0 01-1.551-.895l-27.632-103.122-.614-2.292-1.186 2.054-55.934 96.881c-.366.634-1.23.905-1.893.594l-21.84-10.255c-.603-.283-.811-.946-.478-1.523l57.452-99.51 1.187-2.055-2.292.614-111.594 29.902c-.648.174-1.248-.203-1.374-.862l-4.479-23.524c-.137-.715.338-1.471 1.041-1.66l109.609-29.37 2.292-.613-2.055-1.187L515.162 4.12c-.578-.333-.729-1.011-.348-1.558l13.787-19.801c.418-.601 1.301-.798 1.935-.432l96.852 55.917 2.054 1.186-.614-2.292-27.622-103.088c-.181-.676.22-1.37.896-1.551l23.117-6.195a1.267 1.267 0 011.552.896l27.841 103.907.615 2.292 1.186-2.055 56.531-97.916c.366-.634 1.23-.905 1.893-.594l21.84 10.255c.603.284.811.946.478 1.524l-57.478 99.554-1.186 2.055 2.292-.614 111.648-29.916c.648-.174 1.248.202 1.374.862l4.479 23.524c.137.715-.338 1.47-1.041 1.659L687.654 71.102l-2.292.614 2.055 1.187 99.536 57.467c.577.333.728 1.011.347 1.558l-13.786 19.801c-.418.601-1.302.798-1.936.432l-97.945-56.548z" stroke-width="1.966"/></g><defs><clipPath id="clip0_40_167"><rect width="844" height="656" rx="16" fill="#fff"/></clipPath></defs></svg>