<svg width="700" height="900" fill="none" xmlns="http://www.w3.org/2000/svg"><g clip-path="url(#clip0_16_373)"><g clip-path="url(#clip1_16_373)" stroke="#fff" stroke-width="1.409" opacity=".1"><path d="M2061.72 889.554c66.09-391.649 71.14-1035.743-437.37-478.924-635.635 696.02-880.703 769.63-1070.458 523.648-151.804-196.787-435.387-81.995-558.203 0"/><path d="M2061.72 830.396c66.09-391.649 71.14-1035.743-437.37-478.924C988.715 1047.5 743.647 1121.1 553.892 875.12c-151.804-196.787-435.387-81.995-558.203 0"/><path d="M2061.72 771.238c66.09-391.65 71.14-1035.743-437.37-478.924C988.715 988.337 743.647 1061.95 553.892 815.962c-151.804-196.788-435.387-81.995-558.203 0"/><path d="M2061.72 712.079c66.09-391.649 71.14-1035.742-437.37-478.924C988.715 929.179 743.647 1002.79 553.892 756.804c-151.804-196.788-435.387-81.995-558.203 0"/><path d="M2061.72 652.916c66.09-391.649 71.14-1035.742-437.37-478.923C988.715 870.016 743.647 943.625 553.892 697.641c-151.804-196.788-435.387-81.995-558.203 0"/><path d="M2061.72 593.758c66.09-391.649 71.14-1035.742-437.37-478.923C988.715 810.858 743.647 884.467 553.892 638.483c-151.804-196.788-435.387-81.995-558.203 0"/><path d="M2061.72 534.6c66.09-391.649 71.14-1035.742-437.37-478.924C988.715 751.7 743.647 825.31 553.892 579.324c-151.804-196.787-435.387-81.994-558.203 0"/><path d="M2061.72 475.442c66.09-391.65 71.14-1035.743-437.37-478.924C988.715 692.542 743.647 766.151 553.892 520.166c-151.804-196.787-435.387-81.995-558.203 0"/><path d="M2061.72 416.284c66.09-391.65 71.14-1035.743-437.37-478.924C988.715 633.383 743.647 706.992 553.892 461.008c-151.804-196.787-435.387-81.995-558.203 0"/><path d="M2061.72 357.121c66.09-391.65 71.14-1035.743-437.37-478.924C988.715 574.221 743.647 647.83 553.892 401.845c-151.804-196.787-435.387-81.994-558.203 0"/><path d="M2061.72 297.967c66.09-391.649 71.14-1035.742-437.37-478.923C988.715 515.067 743.647 588.676 553.892 342.692c-151.804-196.788-435.387-81.995-558.203 0"/><path d="M2061.72 238.809c66.09-391.649 71.14-1035.743-437.37-478.924C988.715 455.909 743.647 529.518 553.892 283.533c-151.804-196.787-435.387-81.994-558.203 0"/><path d="M2061.72 179.651c66.09-391.649 71.14-1035.743-437.37-478.924C988.715 396.75 743.647 470.359 553.892 224.375c-151.804-196.787-435.387-81.995-558.203 0"/><path d="M2061.72 120.488c66.09-391.649 71.14-1035.743-437.37-478.924C988.715 337.588 743.647 411.197 553.892 165.212c-151.804-196.787-435.387-81.994-558.203 0"/><path d="M2061.72 61.334c66.09-391.649 71.14-1035.742-437.37-478.923C988.715 278.434 743.647 352.043 553.892 106.059c-151.804-196.788-435.387-81.995-558.203 0"/><path d="M2061.72 2.176c66.09-391.649 71.14-1035.746-437.37-478.924C988.715 219.276 743.647 292.885 553.892 46.901c-151.804-196.788-435.387-81.995-558.203 0"/><path d="M2061.72-56.982c66.09-391.649 71.14-1035.738-437.37-478.924C988.715 160.118 743.647 233.727 553.892-12.258c-151.804-196.787-435.387-81.995-558.203 0"/><path d="M2061.72-116.145c66.09-391.649 71.14-1035.745-437.37-478.923C988.715 100.955 743.647 174.564 553.892-71.42c-151.804-196.788-435.387-81.995-558.203 0"/><path d="M2061.72-175.298c66.09-391.649 71.14-1035.742-437.37-478.924C988.715 41.802 743.647 115.41 553.892-130.574c-151.804-196.787-435.387-81.995-558.203 0"/></g></g><defs><clipPath id="clip0_16_373"><rect width="700" height="900" rx="16" fill="#fff"/></clipPath><clipPath id="clip1_16_373"><rect x="700" y="900" width="700" height="908" rx="37.333" transform="rotate(-180 700 900)" fill="#fff"/></clipPath></defs></svg>