<svg width="300" height="240" fill="none" xmlns="http://www.w3.org/2000/svg"><g clip-path="url(#clip0_8_65)" stroke="#fff" stroke-width=".604" opacity=".1"><path d="M883.596 384.666c28.324-167.85 30.488-443.89-187.445-205.253-272.416 298.296-377.445 329.842-458.769 224.421-65.058-84.338-186.594-35.141-239.23 0"/><path d="M883.596 359.312c28.324-167.849 30.488-443.89-187.445-205.253C423.735 452.355 318.706 483.902 237.382 378.48c-65.058-84.337-186.594-35.141-239.23 0"/><path d="M883.596 333.959c28.324-167.85 30.488-443.89-187.445-205.253-272.416 298.296-377.445 329.842-458.769 224.421-65.058-84.338-186.594-35.141-239.23-.001"/><path d="M883.596 308.605c28.324-167.849 30.488-443.889-187.445-205.253-272.416 298.296-377.445 329.843-458.769 224.421-65.058-84.337-186.594-35.141-239.23 0"/><path d="M883.596 283.25C911.92 115.4 914.084-160.64 696.151 77.997 423.735 376.293 318.706 407.839 237.382 302.418c-65.058-84.338-186.594-35.141-239.23 0"/><path d="M883.596 257.896c28.324-167.85 30.488-443.889-187.445-205.253C423.735 350.94 318.706 382.486 237.382 277.064c-65.058-84.337-186.594-35.141-239.23 0"/><path d="M883.596 232.543c28.324-167.85 30.488-443.89-187.445-205.253-272.416 298.296-377.445 329.842-458.769 224.42-65.058-84.337-186.594-35.14-239.23 0"/><path d="M883.596 207.189C911.92 39.339 914.084-236.7 696.151 1.936 423.735 300.232 318.706 331.78 237.382 226.357c-65.058-84.337-186.594-35.141-239.23 0"/><path d="M883.596 181.836c28.324-167.85 30.488-443.89-187.445-205.253-272.416 298.296-377.445 329.842-458.769 224.42-65.058-84.337-186.594-35.14-239.23 0"/><path d="M883.596 156.48C911.92-11.37 914.084-287.409 696.151-48.773 423.735 249.523 318.706 281.07 237.382 175.648c-65.058-84.337-186.594-35.141-239.23 0"/><path d="M883.596 131.129c28.324-167.85 30.488-443.89-187.445-205.253-272.416 298.296-377.445 329.842-458.769 224.42-65.058-84.337-186.594-35.14-239.23 0"/><path d="M883.596 105.775c28.324-167.85 30.488-443.889-187.445-205.253-272.416 298.296-377.445 329.843-458.769 224.421-65.058-84.338-186.594-35.14-239.23 0"/><path d="M883.596 80.422c28.324-167.85 30.488-443.89-187.445-205.253-272.416 298.296-377.445 329.842-458.769 224.42-65.058-84.337-186.594-35.14-239.23 0"/><path d="M883.596 55.066c28.324-167.849 30.488-443.889-187.445-205.253-272.416 298.296-377.445 329.843-458.769 224.42-65.058-84.337-186.594-35.14-239.23 0"/><path d="M883.596 29.715c28.324-167.85 30.488-443.89-187.445-205.253-272.416 298.296-377.445 329.842-458.769 224.42-65.058-84.337-186.594-35.14-239.23 0"/><path d="M883.596 4.361c28.324-167.849 30.488-443.889-187.445-205.253C423.735 97.404 318.706 128.951 237.382 23.528c-65.058-84.337-186.594-35.14-239.23 0"/><path d="M883.596-20.992c28.324-167.85 30.488-443.89-187.445-205.253C423.735 72.051 318.706 103.597 237.382-1.825c-65.058-84.337-186.594-35.14-239.23 0"/><path d="M883.596-46.348C911.92-214.197 914.084-490.237 696.151-251.6 423.735 46.695 318.706 78.242 237.382-27.181c-65.058-84.337-186.594-35.14-239.23 0"/><path d="M883.596-71.7c28.324-167.849 30.488-443.889-187.445-205.252C423.735 21.344 318.706 52.89 237.382-52.532c-65.058-84.337-186.594-35.14-239.23 0"/></g><defs><clipPath id="clip0_8_65"><rect x="300" y="240" width="300" height="240" rx="16" transform="rotate(-180 300 240)" fill="#fff"/></clipPath></defs></svg>