<svg width="300" height="162" fill="none" xmlns="http://www.w3.org/2000/svg"><g opacity=".2" clip-path="url(#clip0_23_5)"><path d="M-216.469-28.966C-238.722 73.006-240.422 240.706-69.204 95.729 144.818-85.49 227.334-104.657 291.225-40.61c51.113 51.237 146.597 21.349 187.95 0" stroke="url(#paint0_linear_23_5)"/><path d="M-216.469-13.558c-22.253 101.972-23.953 269.673 147.265 124.696C144.818-70.083 227.334-89.249 291.225-25.202c51.113 51.236 146.597 21.348 187.95 0" stroke="url(#paint1_linear_23_5)"/><path d="M-216.469 1.85c-22.253 101.972-23.953 269.673 147.265 124.696C144.818-54.675 227.334-73.841 291.225-9.794c51.113 51.236 146.597 21.348 187.95 0" stroke="url(#paint2_linear_23_5)"/><path d="M-216.469 17.253c-22.253 101.972-23.953 269.672 147.265 124.695C144.818-39.273 227.334-58.438 291.225 5.608c51.113 51.237 146.597 21.348 187.95 0" stroke="url(#paint3_linear_23_5)"/><path d="M-216.469 32.66c-22.253 101.973-23.953 269.673 147.265 124.696C144.818-23.864 227.334-43.03 291.225 21.016c51.113 51.237 146.597 21.349 187.95 0" stroke="url(#paint4_linear_23_5)"/><path d="M-216.469 48.063c-22.253 101.972-23.953 269.672 147.265 124.695C144.818-8.462 227.334-27.628 291.225 36.418c51.113 51.237 146.597 21.349 187.95 0" stroke="url(#paint5_linear_23_5)"/><path d="M-216.469 63.477C-238.722 165.45-240.422 333.15-69.204 188.173 144.818 6.952 227.334-12.214 291.225 51.833c51.113 51.236 146.597 21.348 187.95 0" stroke="url(#paint6_linear_23_5)"/><path d="M-216.469 78.877C-238.722 180.85-240.422 348.55-69.204 203.573 144.818 22.352 227.334 3.187 291.225 67.233c51.113 51.237 146.597 21.348 187.95 0" stroke="url(#paint7_linear_23_5)"/><path d="M-216.469 94.28c-22.253 101.972-23.953 269.672 147.265 124.696C144.818 37.754 227.334 18.589 291.225 82.636c51.113 51.236 146.597 21.348 187.95 0" stroke="url(#paint8_linear_23_5)"/><path d="M-216.469 109.696c-22.253 101.972-23.953 269.673 147.265 124.696C144.818 53.17 227.334 34.005 291.225 98.052c51.113 51.236 146.597 21.348 187.95 0" stroke="url(#paint9_linear_23_5)"/><path d="M-216.469 125.098c-22.253 101.973-23.953 269.673 147.265 124.696C144.818 68.573 227.334 49.407 291.225 113.453c51.113 51.237 146.597 21.349 187.95 0" stroke="url(#paint10_linear_23_5)"/><path d="M-216.469 140.51c-22.253 101.973-23.953 269.673 147.265 124.696C144.818 83.985 227.334 64.819 291.225 128.866c51.113 51.236 146.597 21.348 187.95 0" stroke="url(#paint11_linear_23_5)"/><path d="M-216.469 155.913c-22.253 101.972-23.953 269.672 147.265 124.695 214.022-181.22 296.538-200.386 360.429-136.34 51.113 51.237 146.597 21.349 187.95 0" stroke="url(#paint12_linear_23_5)"/><path d="M-216.469 171.321c-22.253 101.972-23.953 269.673 147.265 124.696C144.818 114.795 227.334 95.63 291.225 159.676c51.113 51.237 146.597 21.349 187.95 0" stroke="url(#paint13_linear_23_5)"/><path d="M-216.469 186.723c-22.253 101.972-23.953 269.673 147.265 124.696 214.022-181.221 296.538-200.387 360.429-136.341 51.113 51.237 146.597 21.349 187.95 0" stroke="url(#paint14_linear_23_5)"/><path d="M-216.469 202.131c-22.253 101.973-23.953 269.673 147.265 124.696 214.022-181.221 296.538-200.386 360.429-136.34 51.113 51.237 146.597 21.348 187.95 0" stroke="url(#paint15_linear_23_5)"/></g><defs><linearGradient id="paint0_linear_23_5" x1="126.087" y1="152.276" x2="88.798" y2="-30.668" gradientUnits="userSpaceOnUse"><stop stop-color="#01A561"/><stop offset=".821" stop-color="#394FC2"/></linearGradient><linearGradient id="paint1_linear_23_5" x1="126.087" y1="167.684" x2="88.798" y2="-15.259" gradientUnits="userSpaceOnUse"><stop stop-color="#01A561"/><stop offset=".821" stop-color="#394FC2"/></linearGradient><linearGradient id="paint2_linear_23_5" x1="126.087" y1="183.092" x2="88.798" y2=".149" gradientUnits="userSpaceOnUse"><stop stop-color="#01A561"/><stop offset=".821" stop-color="#394FC2"/></linearGradient><linearGradient id="paint3_linear_23_5" x1="126.087" y1="198.495" x2="88.798" y2="15.551" gradientUnits="userSpaceOnUse"><stop stop-color="#01A561"/><stop offset=".821" stop-color="#394FC2"/></linearGradient><linearGradient id="paint4_linear_23_5" x1="126.087" y1="213.903" x2="88.798" y2="30.959" gradientUnits="userSpaceOnUse"><stop stop-color="#01A561"/><stop offset=".821" stop-color="#394FC2"/></linearGradient><linearGradient id="paint5_linear_23_5" x1="126.087" y1="229.305" x2="88.798" y2="46.361" gradientUnits="userSpaceOnUse"><stop stop-color="#01A561"/><stop offset=".821" stop-color="#394FC2"/></linearGradient><linearGradient id="paint6_linear_23_5" x1="126.087" y1="244.719" x2="88.798" y2="61.776" gradientUnits="userSpaceOnUse"><stop stop-color="#01A561"/><stop offset=".821" stop-color="#394FC2"/></linearGradient><linearGradient id="paint7_linear_23_5" x1="126.087" y1="260.12" x2="88.798" y2="77.176" gradientUnits="userSpaceOnUse"><stop stop-color="#01A561"/><stop offset=".821" stop-color="#394FC2"/></linearGradient><linearGradient id="paint8_linear_23_5" x1="126.087" y1="275.522" x2="88.798" y2="92.579" gradientUnits="userSpaceOnUse"><stop stop-color="#01A561"/><stop offset=".821" stop-color="#394FC2"/></linearGradient><linearGradient id="paint9_linear_23_5" x1="126.087" y1="290.938" x2="88.798" y2="107.995" gradientUnits="userSpaceOnUse"><stop stop-color="#01A561"/><stop offset=".821" stop-color="#394FC2"/></linearGradient><linearGradient id="paint10_linear_23_5" x1="126.087" y1="306.34" x2="88.798" y2="123.397" gradientUnits="userSpaceOnUse"><stop stop-color="#01A561"/><stop offset=".821" stop-color="#394FC2"/></linearGradient><linearGradient id="paint11_linear_23_5" x1="126.087" y1="321.752" x2="88.798" y2="138.809" gradientUnits="userSpaceOnUse"><stop stop-color="#01A561"/><stop offset=".821" stop-color="#394FC2"/></linearGradient><linearGradient id="paint12_linear_23_5" x1="126.087" y1="337.155" x2="88.798" y2="154.211" gradientUnits="userSpaceOnUse"><stop stop-color="#01A561"/><stop offset=".821" stop-color="#394FC2"/></linearGradient><linearGradient id="paint13_linear_23_5" x1="126.087" y1="352.563" x2="88.798" y2="169.62" gradientUnits="userSpaceOnUse"><stop stop-color="#01A561"/><stop offset=".821" stop-color="#394FC2"/></linearGradient><linearGradient id="paint14_linear_23_5" x1="126.087" y1="367.965" x2="88.798" y2="185.022" gradientUnits="userSpaceOnUse"><stop stop-color="#01A561"/><stop offset=".821" stop-color="#394FC2"/></linearGradient><linearGradient id="paint15_linear_23_5" x1="126.087" y1="383.374" x2="88.798" y2="200.43" gradientUnits="userSpaceOnUse"><stop stop-color="#01A561"/><stop offset=".821" stop-color="#394FC2"/></linearGradient><clipPath id="clip0_23_5"><path fill="#fff" d="M0 0h300v162H0z"/></clipPath></defs></svg>