<svg width="1360" height="328" fill="none" xmlns="http://www.w3.org/2000/svg"><g clip-path="url(#clip0_4_7)"><g opacity=".3" clip-path="url(#clip1_4_7)" stroke="#394FC2"><path d="M1473.18 958.395c229.79-163.436 555.67-484.247 20.86-459.995-668.518 30.315-828.499-55.76-800.271-274.507C716.351 48.894 516.361-35.841 413.543-56.334"/><path d="M1502.88 928.7c229.79-163.437 555.67-484.247 20.85-459.995-668.509 30.315-828.49-55.76-800.262-274.508C746.05 19.199 546.06-65.536 443.242-86.029"/><path d="M1532.57 899.001c229.8-163.437 555.68-484.247 20.86-459.995-668.51 30.315-828.49-55.76-800.262-274.508C775.75-10.5 575.759-95.235 472.941-115.728"/><path d="M1562.27 869.301c229.8-163.436 555.67-484.246 20.86-459.994-668.511 30.315-828.491-55.76-800.263-274.508C805.449-40.199 605.458-124.935 502.64-145.428"/><path d="M1591.97 839.602c229.79-163.436 555.67-484.247 20.86-459.995-668.515 30.315-828.496-55.76-800.268-274.507 22.582-174.999-177.408-259.734-280.226-280.227"/><path d="M1621.67 809.903c229.79-163.437 555.67-484.247 20.86-459.995-668.516 30.315-828.497-55.76-800.269-274.508 22.583-174.998-177.408-259.733-280.226-280.226"/><path d="M1651.37 780.204c229.79-163.437 555.67-484.247 20.86-459.995-668.52 30.315-828.497-55.76-800.269-274.508 22.582-174.998-177.409-259.733-280.227-280.226"/><path d="M1670.01 761.637c229.79-163.436 555.67-484.247 20.86-459.995-668.51 30.316-828.493-55.759-800.265-274.507C913.188-147.863 713.197-232.6 610.379-253.092"/><path d="M1710.77 720.809c229.79-163.436 555.67-484.247 20.86-459.995-668.52 30.315-828.499-55.759-800.271-274.507 22.582-174.998-177.408-259.734-280.227-280.227"/><path d="M1740.46 691.11c229.79-163.437 555.67-484.247 20.86-459.995-668.51 30.315-828.494-55.76-800.266-274.507 22.583-174.999-177.408-259.734-280.226-280.227"/><path d="M1770.16 661.411c229.79-163.437 555.67-484.247 20.86-459.995-668.51 30.315-828.494-55.76-800.266-274.508 22.586-174.998-177.409-259.733-280.227-280.226"/><path d="M1799.86 631.715c229.79-163.436 555.67-484.246 20.86-459.994-668.51 30.315-828.495-55.76-800.27-274.508 22.59-174.998-177.405-259.734-280.224-280.227"/><path d="M1829.56 602.016c229.79-163.436 555.67-484.247 20.86-459.995-668.52 30.315-828.5-55.76-800.27-274.507 22.58-174.998-177.406-259.734-280.225-280.227"/><path d="M1859.26 572.317c229.79-163.437 555.67-484.247 20.86-459.995-668.52 30.315-828.5-55.76-800.27-274.507 22.58-174.999-177.407-259.734-280.225-280.227"/><path d="M1888.96 542.618c229.79-163.437 555.67-484.247 20.86-459.995-668.52 30.315-828.5-55.76-800.27-274.508 22.58-174.998-177.408-259.733-280.226-280.226"/><path d="M1918.65 512.919c229.79-163.437 555.67-484.247 20.86-459.995-668.51 30.315-828.49-55.76-800.26-274.508 22.58-174.998-177.413-259.734-280.231-280.226"/><path d="M1948.35 483.219c229.79-163.436 555.67-484.246 20.86-459.995-668.51 30.316-828.49-55.76-800.27-274.507 22.59-174.998-177.403-259.734-280.222-280.227"/><path d="M1978.05 453.52c229.79-163.436 555.67-484.247 20.86-459.995-668.51 30.315-828.49-55.76-800.27-274.507 22.59-174.999-177.4-259.734-280.223-280.227"/><path d="M2007.75 423.825c229.79-163.437 555.67-484.247 20.86-459.995-668.51 30.315-828.49-55.76-800.27-274.508 22.59-174.998-177.41-259.733-280.223-280.226"/><path d="M2037.45 394.126c229.79-163.437 555.67-484.247 20.86-459.995-668.51 30.315-828.5-55.76-800.27-274.508 22.58-174.998-177.41-259.733-280.224-280.226"/></g></g><defs><clipPath id="clip0_4_7"><path fill="#fff" d="M0 0h1360v328H0z"/></clipPath><clipPath id="clip1_4_7"><path fill="#fff" transform="rotate(-135 896.23 239.891)" d="M0 0h1440v824H0z"/></clipPath></defs></svg>