<svg width="300" height="306" fill="none" xmlns="http://www.w3.org/2000/svg"><g clip-path="url(#clip0_21_16)"><g opacity=".2" clip-path="url(#clip1_21_16)" stroke-width=".476"><path d="M-357.346-23.866c-22.311 99.945-24.015 264.31 147.651 122.216C4.887-79.267 87.618-98.05 151.677-35.279c51.247 50.218 146.981 20.924 188.442 0" stroke="url(#paint0_linear_21_16)"/><path d="M-357.352-8.764c-22.311 99.944-24.015 264.309 147.651 122.216C4.881-64.166 87.613-82.95 151.671-20.178c51.247 50.219 146.981 20.925 188.442 0" stroke="url(#paint1_linear_21_16)"/><path d="M-357.356 6.337c-22.31 99.945-24.015 264.31 147.651 122.216C4.877-49.064 87.609-67.848 151.667-5.076c51.247 50.218 146.981 20.924 188.442 0" stroke="url(#paint2_linear_21_16)"/><path d="M-357.36 21.439c-22.31 99.944-24.015 264.31 147.651 122.216C4.873-33.962 87.605-52.747 151.663 10.025c51.247 50.219 146.981 20.925 188.442 0" stroke="url(#paint3_linear_21_16)"/><path d="M-357.362 36.537c-22.31 99.944-24.015 264.309 147.651 122.215C4.871-18.865 87.603-37.648 151.662 25.123c51.246 50.218 146.98 20.924 188.441 0" stroke="url(#paint4_linear_21_16)"/><path d="M-357.364 51.634c-22.31 99.945-24.015 264.31 147.651 122.216C4.869-3.767 87.601-22.551 151.66 40.221c51.247 50.218 146.98 20.924 188.441 0" stroke="url(#paint5_linear_21_16)"/><path d="M-357.37 66.738c-22.31 99.944-24.014 264.309 147.651 122.216C4.864 11.336 87.595-7.448 151.654 55.324c51.247 50.218 146.98 20.925 188.441 0" stroke="url(#paint6_linear_21_16)"/><path d="M-357.374 81.837c-22.31 99.945-24.014 264.31 147.651 122.216C4.86 26.436 87.591 7.652 151.65 70.424c51.247 50.218 146.981 20.924 188.442 0" stroke="url(#paint7_linear_21_16)"/><path d="M-357.376 96.935c-22.31 99.944-24.014 264.31 147.651 122.216C4.858 41.534 87.589 22.75 151.648 85.521c51.247 50.219 146.981 20.925 188.442 0" stroke="url(#paint8_linear_21_16)"/><path d="M-357.379 112.039c-22.311 99.944-24.015 264.309 147.651 122.215C4.854 56.637 87.585 37.853 151.644 100.625c51.247 50.218 146.981 20.924 188.442 0" stroke="url(#paint9_linear_21_16)"/><path d="M-357.381 127.136c-22.311 99.945-24.015 264.31 147.651 122.216C4.852 71.735 87.583 52.951 151.642 115.723c51.247 50.218 146.981 20.924 188.442 0" stroke="url(#paint10_linear_21_16)"/><path d="M-357.387 142.238c-22.31 99.944-24.015 264.309 147.651 122.216C4.846 86.836 87.578 68.052 151.636 130.825c51.247 50.217 146.981 20.924 188.442 0" stroke="url(#paint11_linear_21_16)"/><path d="M-357.389 157.337c-22.311 99.945-24.015 264.31 147.651 122.216C4.844 101.936 87.575 83.152 151.634 145.924c51.247 50.218 146.981 20.924 188.442 0" stroke="url(#paint12_linear_21_16)"/><path d="M-357.393 172.435c-22.311 99.944-24.015 264.31 147.651 122.216C4.84 117.034 87.572 98.25 151.63 161.022c51.247 50.218 146.981 20.924 188.442 0" stroke="url(#paint13_linear_21_16)"/><path d="M-357.395 187.539c-22.31 99.944-24.015 264.309 147.651 122.215C4.838 132.137 87.57 113.353 151.628 176.125c51.247 50.218 146.981 20.924 188.442 0" stroke="url(#paint14_linear_21_16)"/><path d="M-357.399 202.636c-22.31 99.945-24.015 264.31 147.651 122.216C4.834 147.235 87.566 128.451 151.624 191.223c51.247 50.218 146.981 20.924 188.442 0" stroke="url(#paint15_linear_21_16)"/><path d="M-357.401 217.736c-22.31 99.944-24.015 264.309 147.651 122.216C4.832 162.334 87.564 143.55 151.622 206.323c51.247 50.217 146.981 20.924 188.442 0" stroke="url(#paint16_linear_21_16)"/><path d="M-357.407 232.837c-22.31 99.945-24.015 264.31 147.651 122.216C4.826 177.436 87.558 158.652 151.617 221.424c51.247 50.218 146.98 20.924 188.441 0" stroke="url(#paint17_linear_21_16)"/><path d="M-357.409 247.937c-22.31 99.944-24.015 264.31 147.651 122.216C4.825 192.536 87.556 173.751 151.615 236.524c51.247 50.218 146.98 20.924 188.441 0" stroke="url(#paint18_linear_21_16)"/><path d="M-357.413 263.04c-22.31 99.945-24.014 264.31 147.651 122.216C4.821 207.639 87.552 188.855 151.611 251.627c51.247 50.218 146.98 20.924 188.441 0" stroke="url(#paint19_linear_21_16)"/></g></g><defs><linearGradient id="paint0_linear_21_16" x1="-13.893" y1="153.772" x2="-49.684" y2="-25.851" gradientUnits="userSpaceOnUse"><stop stop-color="#01A561"/><stop offset=".821" stop-color="#394FC2"/></linearGradient><linearGradient id="paint1_linear_21_16" x1="-13.899" y1="168.874" x2="-49.69" y2="-10.75" gradientUnits="userSpaceOnUse"><stop stop-color="#01A561"/><stop offset=".821" stop-color="#394FC2"/></linearGradient><linearGradient id="paint2_linear_21_16" x1="-13.902" y1="183.975" x2="-49.694" y2="4.352" gradientUnits="userSpaceOnUse"><stop stop-color="#01A561"/><stop offset=".821" stop-color="#394FC2"/></linearGradient><linearGradient id="paint3_linear_21_16" x1="-13.906" y1="199.077" x2="-49.698" y2="19.453" gradientUnits="userSpaceOnUse"><stop stop-color="#01A561"/><stop offset=".821" stop-color="#394FC2"/></linearGradient><linearGradient id="paint4_linear_21_16" x1="-13.908" y1="214.174" x2="-49.7" y2="34.551" gradientUnits="userSpaceOnUse"><stop stop-color="#01A561"/><stop offset=".821" stop-color="#394FC2"/></linearGradient><linearGradient id="paint5_linear_21_16" x1="-13.91" y1="229.272" x2="-49.702" y2="49.649" gradientUnits="userSpaceOnUse"><stop stop-color="#01A561"/><stop offset=".821" stop-color="#394FC2"/></linearGradient><linearGradient id="paint6_linear_21_16" x1="-13.916" y1="244.375" x2="-49.707" y2="64.752" gradientUnits="userSpaceOnUse"><stop stop-color="#01A561"/><stop offset=".821" stop-color="#394FC2"/></linearGradient><linearGradient id="paint7_linear_21_16" x1="-13.92" y1="259.475" x2="-49.711" y2="79.852" gradientUnits="userSpaceOnUse"><stop stop-color="#01A561"/><stop offset=".821" stop-color="#394FC2"/></linearGradient><linearGradient id="paint8_linear_21_16" x1="-13.922" y1="274.573" x2="-49.713" y2="94.95" gradientUnits="userSpaceOnUse"><stop stop-color="#01A561"/><stop offset=".821" stop-color="#394FC2"/></linearGradient><linearGradient id="paint9_linear_21_16" x1="-13.926" y1="289.676" x2="-49.717" y2="110.053" gradientUnits="userSpaceOnUse"><stop stop-color="#01A561"/><stop offset=".821" stop-color="#394FC2"/></linearGradient><linearGradient id="paint10_linear_21_16" x1="-13.928" y1="304.774" x2="-49.719" y2="125.151" gradientUnits="userSpaceOnUse"><stop stop-color="#01A561"/><stop offset=".821" stop-color="#394FC2"/></linearGradient><linearGradient id="paint11_linear_21_16" x1="-13.934" y1="319.875" x2="-49.725" y2="140.252" gradientUnits="userSpaceOnUse"><stop stop-color="#01A561"/><stop offset=".821" stop-color="#394FC2"/></linearGradient><linearGradient id="paint12_linear_21_16" x1="-13.936" y1="334.975" x2="-49.727" y2="155.352" gradientUnits="userSpaceOnUse"><stop stop-color="#01A561"/><stop offset=".821" stop-color="#394FC2"/></linearGradient><linearGradient id="paint13_linear_21_16" x1="-13.94" y1="350.073" x2="-49.731" y2="170.449" gradientUnits="userSpaceOnUse"><stop stop-color="#01A561"/><stop offset=".821" stop-color="#394FC2"/></linearGradient><linearGradient id="paint14_linear_21_16" x1="-13.941" y1="365.176" x2="-49.733" y2="185.553" gradientUnits="userSpaceOnUse"><stop stop-color="#01A561"/><stop offset=".821" stop-color="#394FC2"/></linearGradient><linearGradient id="paint15_linear_21_16" x1="-13.945" y1="380.274" x2="-49.737" y2="200.651" gradientUnits="userSpaceOnUse"><stop stop-color="#01A561"/><stop offset=".821" stop-color="#394FC2"/></linearGradient><linearGradient id="paint16_linear_21_16" x1="-13.947" y1="395.373" x2="-49.739" y2="215.75" gradientUnits="userSpaceOnUse"><stop stop-color="#01A561"/><stop offset=".821" stop-color="#394FC2"/></linearGradient><linearGradient id="paint17_linear_21_16" x1="-13.953" y1="410.475" x2="-49.745" y2="230.852" gradientUnits="userSpaceOnUse"><stop stop-color="#01A561"/><stop offset=".821" stop-color="#394FC2"/></linearGradient><linearGradient id="paint18_linear_21_16" x1="-13.955" y1="425.575" x2="-49.746" y2="245.951" gradientUnits="userSpaceOnUse"><stop stop-color="#01A561"/><stop offset=".821" stop-color="#394FC2"/></linearGradient><linearGradient id="paint19_linear_21_16" x1="-13.959" y1="440.678" x2="-49.75" y2="261.055" gradientUnits="userSpaceOnUse"><stop stop-color="#01A561"/><stop offset=".821" stop-color="#394FC2"/></linearGradient><clipPath id="clip0_21_16"><path fill="#fff" d="M0 0h300v306H0z"/></clipPath><clipPath id="clip1_21_16"><path fill="#fff" transform="translate(-348)" d="M0 0h1071v441H0z"/></clipPath></defs></svg>