<svg width="46" height="46" fill="none" xmlns="http://www.w3.org/2000/svg"><path fill-rule="evenodd" clip-rule="evenodd" d="M10.023 30A15.498 15.498 0 010 15.5 15.5 15.5 0 0115.5 0v11.903c.672-2.707 2.005-5.203 3.893-7.217C22.206 1.686 26.022 0 30 0c3.978 0 7.794 1.686 10.607 4.686C43.42 7.686 45 11.756 45 16h-9.023a15.498 15.498 0 015.483 25.46A15.5 15.5 0 0130.5 46V34.097c-.672 2.707-2.005 5.203-3.893 7.217C23.794 44.314 19.978 46 16 46c-3.978 0-7.794-1.686-10.607-4.686C2.803 38.55 1.257 34.879 1.03 31A17.07 17.07 0 011 30h9.023zM2.03 31h27.94c-.226 3.631-1.68 7.056-4.092 9.63C23.246 43.436 19.691 45 16 45s-7.246-1.564-9.877-4.37c-2.413-2.574-3.866-6-4.093-9.63zm28.47-1V16h-15v14h15zm1-13.965a14.5 14.5 0 010 28.93v-28.93z" fill="#394FC2"/></svg>