<svg width="46" height="46" fill="none" xmlns="http://www.w3.org/2000/svg"><path fill-rule="evenodd" clip-rule="evenodd" d="M10.67 30a16.65 16.65 0 01-5.837-3.54C1.738 23.553 0 19.61 0 15.5c0-4.11 1.738-8.053 4.833-10.96C7.927 1.633 12.123 0 16.5 0v5.873c.326-.412.673-.808 1.04-1.187C20.447 1.686 24.39 0 28.5 0c4.11 0 8.053 1.686 10.96 4.686S44 11.756 44 16h-8.67a16.65 16.65 0 015.837 3.54C44.262 22.447 46 26.39 46 30.5c0 4.11-1.738 8.053-4.833 10.96C38.073 44.367 33.877 46 29.5 46v-5.873c-.326.412-.673.808-1.04 1.187-2.907 3-6.85 4.686-10.96 4.686-4.11 0-8.053-1.686-10.96-4.686C3.862 38.55 2.265 34.879 2.03 31c-.02-.332-.03-.665-.03-1h8.67zm5.83-14v14h13V16h-13zm13 15v7.42a14.893 14.893 0 01-1.758 2.198C25.02 43.428 21.335 45 17.5 45c-3.835 0-7.52-1.572-10.242-4.382C4.764 38.043 3.266 34.622 3.032 31H29.5z" fill="#394FC2"/></svg>