<svg width="46" height="47" fill="none" xmlns="http://www.w3.org/2000/svg"><mask id="a" fill="#fff"><path fill-rule="evenodd" clip-rule="evenodd" d="M14.92 1a14.568 14.568 0 00-5.71 1.167c-1.81.77-3.455 1.9-4.84 3.324a15.368 15.368 0 00-3.234 4.974A15.702 15.702 0 000 16.333c0 2.013.386 4.007 1.136 5.868.75 1.86 1.848 3.55 3.234 4.974a14.9 14.9 0 004.84 3.324 14.577 14.577 0 005.71 1.167V1zm-.329 30.333a14.246 14.246 0 01-5.253-1.137 14.573 14.573 0 01-4.733-3.25 15.04 15.04 0 01-3.165-4.869 15.374 15.374 0 01-1.112-5.744c0-1.972.378-3.924 1.112-5.745A15.04 15.04 0 014.605 5.72a14.571 14.571 0 014.733-3.25 14.247 14.247 0 015.253-1.138v30.001z"/><path fill-rule="evenodd" clip-rule="evenodd" d="M1.243 31.667a15.713 15.713 0 001.136 5.868c.75 1.86 1.848 3.55 3.234 4.974a14.9 14.9 0 004.84 3.324A14.58 14.58 0 0016.163 47c1.958 0 3.898-.397 5.709-1.167 1.81-.77 3.454-1.9 4.84-3.324a15.368 15.368 0 003.234-4.974 15.695 15.695 0 001.135-5.74v15.203c.11 0 .219 0 .328-.003a14.575 14.575 0 005.381-1.164 14.9 14.9 0 004.84-3.324 15.366 15.366 0 003.234-4.974A15.702 15.702 0 0046 31.666c0-2.014-.386-4.008-1.136-5.868a15.366 15.366 0 00-3.234-4.974 14.9 14.9 0 00-4.84-3.324 14.577 14.577 0 00-5.547-1.166h13.515a15.7 15.7 0 00-1.136-5.868 15.368 15.368 0 00-3.234-4.974 14.899 14.899 0 00-4.84-3.324A14.57 14.57 0 0029.838 1c-1.958 0-3.899.396-5.709 1.167a14.9 14.9 0 00-4.84 3.324 15.368 15.368 0 00-3.234 4.974 15.698 15.698 0 00-1.135 5.868h16.16v15.333H1.244zm29.507.329a15.37 15.37 0 01-1.108 5.416 15.04 15.04 0 01-3.165 4.868 14.573 14.573 0 01-4.734 3.25 14.244 14.244 0 01-5.58 1.141 14.25 14.25 0 01-5.582-1.14 14.572 14.572 0 01-4.733-3.251 15.04 15.04 0 01-3.165-4.868 15.37 15.37 0 01-1.108-5.416H30.75zM16.36 10.589a15.368 15.368 0 00-1.109 5.416h29.175a15.37 15.37 0 00-1.108-5.416 15.04 15.04 0 00-3.165-4.868 14.572 14.572 0 00-4.733-3.25 14.243 14.243 0 00-5.581-1.142c-1.915 0-3.812.388-5.581 1.141a14.57 14.57 0 00-4.734 3.25 15.038 15.038 0 00-3.165 4.869zm15.049 6.076c1.803.042 3.584.427 5.253 1.137a14.57 14.57 0 014.733 3.25 15.038 15.038 0 013.165 4.869 15.372 15.372 0 011.112 5.745c0 1.971-.378 3.923-1.112 5.744a15.038 15.038 0 01-3.165 4.868 14.571 14.571 0 01-4.733 3.25 14.248 14.248 0 01-5.253 1.138V16.665z"/><path d="M31 31c0 4.243-1.58 8.313-4.393 11.314C23.794 45.314 19.978 47 16 47c-3.978 0-7.794-1.686-10.607-4.686C2.58 39.314 1 35.244 1 31h30zM15 17c0-4.243 1.58-8.313 4.393-11.314C22.206 2.686 26.022 1 30 1c3.978 0 7.794 1.686 10.607 4.686C43.42 8.686 45 12.756 45 17H15z"/><path d="M15.5 32a15.5 15.5 0 110-31v31zm15-16a15.5 15.5 0 110 31V16z"/><path d="M15.5 31a15.5 15.5 0 110-31v31z"/></mask><path fill-rule="evenodd" clip-rule="evenodd" d="M14.92 1a14.568 14.568 0 00-5.71 1.167c-1.81.77-3.455 1.9-4.84 3.324a15.368 15.368 0 00-3.234 4.974A15.702 15.702 0 000 16.333c0 2.013.386 4.007 1.136 5.868.75 1.86 1.848 3.55 3.234 4.974a14.9 14.9 0 004.84 3.324 14.577 14.577 0 005.71 1.167V1zm-.329 30.333a14.246 14.246 0 01-5.253-1.137 14.573 14.573 0 01-4.733-3.25 15.04 15.04 0 01-3.165-4.869 15.374 15.374 0 01-1.112-5.744c0-1.972.378-3.924 1.112-5.745A15.04 15.04 0 014.605 5.72a14.571 14.571 0 014.733-3.25 14.247 14.247 0 015.253-1.138v30.001z" fill="#394FC2"/><path fill-rule="evenodd" clip-rule="evenodd" d="M1.243 31.667a15.713 15.713 0 001.136 5.868c.75 1.86 1.848 3.55 3.234 4.974a14.9 14.9 0 004.84 3.324A14.58 14.58 0 0016.163 47c1.958 0 3.898-.397 5.709-1.167 1.81-.77 3.454-1.9 4.84-3.324a15.368 15.368 0 003.234-4.974 15.695 15.695 0 001.135-5.74v15.203c.11 0 .219 0 .328-.003a14.575 14.575 0 005.381-1.164 14.9 14.9 0 004.84-3.324 15.366 15.366 0 003.234-4.974A15.702 15.702 0 0046 31.666c0-2.014-.386-4.008-1.136-5.868a15.366 15.366 0 00-3.234-4.974 14.9 14.9 0 00-4.84-3.324 14.577 14.577 0 00-5.547-1.166h13.515a15.7 15.7 0 00-1.136-5.868 15.368 15.368 0 00-3.234-4.974 14.899 14.899 0 00-4.84-3.324A14.57 14.57 0 0029.838 1c-1.958 0-3.899.396-5.709 1.167a14.9 14.9 0 00-4.84 3.324 15.368 15.368 0 00-3.234 4.974 15.698 15.698 0 00-1.135 5.868h16.16v15.333H1.244zm29.507.329a15.37 15.37 0 01-1.108 5.416 15.04 15.04 0 01-3.165 4.868 14.573 14.573 0 01-4.734 3.25 14.244 14.244 0 01-5.58 1.141 14.25 14.25 0 01-5.582-1.14 14.572 14.572 0 01-4.733-3.251 15.04 15.04 0 01-3.165-4.868 15.37 15.37 0 01-1.108-5.416H30.75zM16.36 10.589a15.368 15.368 0 00-1.109 5.416h29.175a15.37 15.37 0 00-1.108-5.416 15.04 15.04 0 00-3.165-4.868 14.572 14.572 0 00-4.733-3.25 14.243 14.243 0 00-5.581-1.142c-1.915 0-3.812.388-5.581 1.141a14.57 14.57 0 00-4.734 3.25 15.038 15.038 0 00-3.165 4.869zm15.049 6.076c1.803.042 3.584.427 5.253 1.137a14.57 14.57 0 014.733 3.25 15.038 15.038 0 013.165 4.869 15.372 15.372 0 011.112 5.745c0 1.971-.378 3.923-1.112 5.744a15.038 15.038 0 01-3.165 4.868 14.571 14.571 0 01-4.733 3.25 14.248 14.248 0 01-5.253 1.138V16.665z" fill="#394FC2"/><path d="M15.5 31a15.5 15.5 0 110-31v31z" fill="#394FC2"/><path clip-rule="evenodd" d="M14.92 1a14.568 14.568 0 00-5.71 1.167c-1.81.77-3.455 1.9-4.84 3.324a15.368 15.368 0 00-3.234 4.974A15.702 15.702 0 000 16.333c0 2.013.386 4.007 1.136 5.868.75 1.86 1.848 3.55 3.234 4.974a14.9 14.9 0 004.84 3.324 14.577 14.577 0 005.71 1.167V1zm-.329 30.333a14.246 14.246 0 01-5.253-1.137 14.573 14.573 0 01-4.733-3.25 15.04 15.04 0 01-3.165-4.869 15.374 15.374 0 01-1.112-5.744c0-1.972.378-3.924 1.112-5.745A15.04 15.04 0 014.605 5.72a14.571 14.571 0 014.733-3.25 14.247 14.247 0 015.253-1.138v30.001z" stroke="#394FC2" stroke-width="2" mask="url(#a)"/><path clip-rule="evenodd" d="M1.243 31.667a15.713 15.713 0 001.136 5.868c.75 1.86 1.848 3.55 3.234 4.974a14.9 14.9 0 004.84 3.324A14.58 14.58 0 0016.163 47c1.958 0 3.898-.397 5.709-1.167 1.81-.77 3.454-1.9 4.84-3.324a15.368 15.368 0 003.234-4.974 15.695 15.695 0 001.135-5.74v15.203c.11 0 .219 0 .328-.003a14.575 14.575 0 005.381-1.164 14.9 14.9 0 004.84-3.324 15.366 15.366 0 003.234-4.974A15.702 15.702 0 0046 31.666c0-2.014-.386-4.008-1.136-5.868a15.366 15.366 0 00-3.234-4.974 14.9 14.9 0 00-4.84-3.324 14.577 14.577 0 00-5.547-1.166h13.515a15.7 15.7 0 00-1.136-5.868 15.368 15.368 0 00-3.234-4.974 14.899 14.899 0 00-4.84-3.324A14.57 14.57 0 0029.838 1c-1.958 0-3.899.396-5.709 1.167a14.9 14.9 0 00-4.84 3.324 15.368 15.368 0 00-3.234 4.974 15.698 15.698 0 00-1.135 5.868h16.16v15.333H1.244zm29.507.329a15.37 15.37 0 01-1.108 5.416 15.04 15.04 0 01-3.165 4.868 14.573 14.573 0 01-4.734 3.25 14.244 14.244 0 01-5.58 1.141 14.25 14.25 0 01-5.582-1.14 14.572 14.572 0 01-4.733-3.251 15.04 15.04 0 01-3.165-4.868 15.37 15.37 0 01-1.108-5.416H30.75zM16.36 10.589a15.368 15.368 0 00-1.109 5.416h29.175a15.37 15.37 0 00-1.108-5.416 15.04 15.04 0 00-3.165-4.868 14.572 14.572 0 00-4.733-3.25 14.243 14.243 0 00-5.581-1.142c-1.915 0-3.812.388-5.581 1.141a14.57 14.57 0 00-4.734 3.25 15.038 15.038 0 00-3.165 4.869zm15.049 6.076c1.803.042 3.584.427 5.253 1.137a14.57 14.57 0 014.733 3.25 15.038 15.038 0 013.165 4.869 15.372 15.372 0 011.112 5.745c0 1.971-.378 3.923-1.112 5.744a15.038 15.038 0 01-3.165 4.868 14.571 14.571 0 01-4.733 3.25 14.248 14.248 0 01-5.253 1.138V16.665z" stroke="#394FC2" stroke-width="2" mask="url(#a)"/><path d="M31 31c0 4.243-1.58 8.313-4.393 11.314C23.794 45.314 19.978 47 16 47c-3.978 0-7.794-1.686-10.607-4.686C2.58 39.314 1 35.244 1 31h30zM15 17c0-4.243 1.58-8.313 4.393-11.314C22.206 2.686 26.022 1 30 1c3.978 0 7.794 1.686 10.607 4.686C43.42 8.686 45 12.756 45 17H15z" stroke="#394FC2" stroke-width="2" mask="url(#a)"/><path d="M15.5 32a15.5 15.5 0 110-31v31zm15-16a15.5 15.5 0 110 31V16z" stroke="#394FC2" stroke-width="2" mask="url(#a)"/><path d="M15.5 31a15.5 15.5 0 110-31v31z" stroke="#394FC2" stroke-width="2" mask="url(#a)"/></svg>