<svg width="46" height="46" fill="none" xmlns="http://www.w3.org/2000/svg"><path fill-rule="evenodd" clip-rule="evenodd" d="M45 16c0-.342-.01-.683-.03-1.022-.233-3.87-1.777-7.533-4.363-10.292C37.794 1.686 33.978 0 30 0c-3.978 0-7.794 1.686-10.607 4.686-1.888 2.014-3.22 4.51-3.893 7.217V0a15.5 15.5 0 00-5.477 30H1c0 .342.01.683.03 1.022.233 3.87 1.777 7.533 4.363 10.292C8.206 44.314 12.022 46 16 46c3.978 0 7.794-1.686 10.607-4.686 1.888-2.014 3.22-4.51 3.893-7.217V46a15.497 15.497 0 0010.96-4.54A15.5 15.5 0 0035.977 16H45zm-28.946-1.022c.231-3.617 1.68-7.028 4.085-9.593C22.766 2.583 26.315 1.022 30 1.022c3.685 0 7.234 1.56 9.861 4.363 2.404 2.565 3.854 5.976 4.085 9.593H16.054zM30.5 16h-15v14h15V16zm-.554 15.022c-.231 3.617-1.68 7.029-4.085 9.593-2.627 2.802-6.176 4.363-9.861 4.363-3.685 0-7.234-1.56-9.861-4.363-2.404-2.565-3.854-5.976-4.085-9.593h27.892zm1.576-14.964a14.479 14.479 0 010 28.884V16.058z" fill="#394FC2"/></svg>