<svg width="48" height="46" fill="none" xmlns="http://www.w3.org/2000/svg"><path fill-rule="evenodd" clip-rule="evenodd" d="M15.92 0a14.575 14.575 0 00-5.71 1.167 14.9 14.9 0 00-4.84 3.324 15.368 15.368 0 00-3.234 4.974A15.703 15.703 0 001 15.333c0 2.013.386 4.007 1.136 5.868.75 1.86 1.848 3.55 3.234 4.974a14.9 14.9 0 004.84 3.324 14.577 14.577 0 005.71 1.167V0zm-.329 30.333a14.246 14.246 0 01-5.253-1.137 14.573 14.573 0 01-4.733-3.25 15.04 15.04 0 01-3.165-4.869 15.374 15.374 0 01-1.112-5.744c0-1.972.378-3.924 1.112-5.745A15.04 15.04 0 015.605 4.72a14.571 14.571 0 014.733-3.25A14.247 14.247 0 0115.591.332v30.001z" fill="#394FC2"/><path fill-rule="evenodd" clip-rule="evenodd" d="M2.243 30.667a15.713 15.713 0 001.136 5.868c.75 1.86 1.848 3.55 3.234 4.974a14.9 14.9 0 004.84 3.324A14.58 14.58 0 0017.163 46c1.958 0 3.898-.397 5.709-1.167 1.81-.77 3.454-1.9 4.84-3.324a15.368 15.368 0 003.234-4.974 15.695 15.695 0 001.135-5.74v15.203c.11 0 .219 0 .328-.003a14.575 14.575 0 005.381-1.164 14.9 14.9 0 004.84-3.324 15.366 15.366 0 003.234-4.974A15.702 15.702 0 0047 30.666c0-2.014-.386-4.008-1.136-5.868a15.366 15.366 0 00-3.234-4.974 14.9 14.9 0 00-4.84-3.324 14.577 14.577 0 00-5.547-1.166h13.515a15.7 15.7 0 00-1.136-5.868 15.368 15.368 0 00-3.234-4.974 14.9 14.9 0 00-4.84-3.324A14.57 14.57 0 0030.838 0C28.88 0 26.94.397 25.13 1.168a14.9 14.9 0 00-4.84 3.324 15.368 15.368 0 00-3.234 4.974 15.698 15.698 0 00-1.135 5.868h16.16v15.333H2.244zm29.507.329a15.37 15.37 0 01-1.108 5.416 15.04 15.04 0 01-3.165 4.868 14.572 14.572 0 01-4.734 3.25 14.244 14.244 0 01-5.58 1.141 14.25 14.25 0 01-5.582-1.14 14.572 14.572 0 01-4.733-3.251 15.04 15.04 0 01-3.165-4.868 15.37 15.37 0 01-1.108-5.416H31.75zM17.36 9.589a15.368 15.368 0 00-1.109 5.416h29.175a15.37 15.37 0 00-1.108-5.416 15.039 15.039 0 00-3.165-4.868 14.572 14.572 0 00-4.733-3.25A14.243 14.243 0 0030.839.328c-1.915 0-3.812.388-5.581 1.141a14.57 14.57 0 00-4.734 3.25A15.038 15.038 0 0017.36 9.59zm15.049 6.076c1.803.042 3.584.427 5.253 1.137a14.57 14.57 0 014.733 3.25 15.038 15.038 0 013.165 4.869 15.372 15.372 0 011.112 5.745c0 1.971-.378 3.923-1.112 5.744a15.038 15.038 0 01-3.165 4.868 14.571 14.571 0 01-4.733 3.25 14.248 14.248 0 01-5.253 1.138V15.665z" fill="#394FC2"/><path d="M31.5 15c4.376 0 8.573 1.633 11.667 4.54C46.262 22.447 48 26.39 48 30.5c0 4.11-1.738 8.053-4.833 10.96C40.073 44.367 35.877 46 31.5 46V15z" fill="#394FC2"/><path d="M15 16c0-4.243 1.633-8.313 4.54-11.314C22.447 1.686 26.39 0 30.5 0c4.11 0 8.053 1.686 10.96 4.686S46 11.756 46 16H15z" fill="#394FC2"/><path d="M16.5 31c-4.376 0-8.573-1.633-11.667-4.54C1.738 23.553 0 19.61 0 15.5c0-4.11 1.738-8.053 4.833-10.96C7.927 1.633 12.123 0 16.5 0v31z" fill="#394FC2"/></svg>