<svg width="39" height="44" fill="none" xmlns="http://www.w3.org/2000/svg"><path d="M0 22.002v11.002L19.05 44V33L0 22.002z" fill="#F04417"/><path d="M28.573 5.445L9.517 16.511 0 11.001v-.007L19.043 0l9.531 5.445h-.001z" fill="#33D67E"/><path d="M28.574 5.445l9.52 5.442-9.52 5.624-9.527-5.531 9.526-5.533.001-.002z" fill="#5068E6"/><path d="M19.047 10.977v11.021L28.57 27.5V16.509l-9.523-5.532z" fill="#293EB1"/><path d="M28.57 16.509v21.97l9.525-5.517V10.885l-9.525 5.624z" fill="#394FC2"/><path d="M19.047 10.977l-9.53 5.532v10.99l9.53-5.5V10.977z" fill="#1E9253"/><path d="M9.517 16.511L0 10.996v11.005l9.517 5.502V16.51z" fill="#0B7E54"/><path d="M19.05 32.996l9.519-5.497v10.978l-9.519 5.518v-11 .001z" fill="#FF5428"/><path d="M9.517 27.503l9.534 5.495 9.518-5.495L19.046 22l-9.529 5.502z" fill="#FF8768"/></svg>