<svg width="110" height="23" fill="none" xmlns="http://www.w3.org/2000/svg"><path d="M10.689 3.463H3.304v6.465h7.569c.919 0 1.685-.337 2.298-1.01.633-.695.95-1.543.95-2.544 0-.838-.327-1.532-.98-2.084-.655-.551-1.472-.827-2.452-.827zm.184 9.223h-7.57v6.527h7.692c.98 0 1.798-.286 2.452-.858.653-.592.98-1.307.98-2.145 0-1.021-.337-1.859-1.011-2.513-.674-.674-1.522-1.01-2.543-1.01zm.46 9.377H.392V.613h10.633c1.736 0 3.166.52 4.29 1.563 1.144 1.021 1.716 2.318 1.716 3.891a5.956 5.956 0 01-.797 3.034 5.266 5.266 0 01-2.114 2.114 5.777 5.777 0 012.36 2.176c.571.92.857 1.951.857 3.095 0 1.593-.572 2.921-1.716 3.984-1.144 1.062-2.574 1.593-4.29 1.593zm11.317 0h-2.91V.613h2.91v21.45zM30.098 5.27c-1.553 1.574-2.329 3.586-2.329 6.037 0 2.452.776 4.464 2.329 6.037 1.573 1.573 3.483 2.36 5.73 2.36 2.064 0 3.831-.623 5.302-1.87 1.491-1.266 2.339-2.9 2.543-4.903H34.94v-2.696h11.797c.041.327.062.827.062 1.501 0 2.064-.501 3.933-1.502 5.608a10.555 10.555 0 01-3.984 3.892c-1.654.919-3.483 1.379-5.485 1.379a11.14 11.14 0 01-4.26-.828c-1.347-.572-2.512-1.348-3.492-2.329-.981-.98-1.768-2.175-2.36-3.585a12.18 12.18 0 01-.858-4.566c0-1.614.286-3.125.858-4.535.592-1.43 1.379-2.635 2.36-3.616.98-.98 2.145-1.746 3.493-2.298A10.794 10.794 0 0135.828 0c2.125 0 4.066.572 5.822 1.716 1.757 1.124 3.085 2.656 3.984 4.596L42.999 7.6c-.654-1.45-1.624-2.594-2.911-3.431a7.648 7.648 0 00-4.26-1.257c-2.247 0-4.157.787-5.73 2.36zm29.467 13.943h11.583v2.85H56.654V.613h2.911v18.6zm16.414 2.85h-2.911V.613h2.911v21.45zm5.732-12.196h10.847v2.88H81.711v9.316H78.8V.613h14.494v2.85H81.711v6.404zm16.713 0h10.848v2.88H98.424v6.466h11.583v2.85H95.513V.613h14.494v2.85H98.424v6.404z" fill="#000"/></svg>