<svg width="844" height="656" viewBox="0 0 844 656" fill="none" xmlns="http://www.w3.org/2000/svg">
<g clip-path="url(#clip0_40_167)">
<path opacity="0.1" d="M91.4653 538.781L91.9069 538.526L91.4144 538.394L-58.2907 498.28C-59.9065 497.847 -60.8655 496.186 -60.4325 494.571L-51.5109 461.275C-51.0779 459.659 -49.417 458.7 -47.8012 459.133L100.725 498.93L101.218 499.062L100.963 498.621L20.4011 359.084C19.5613 357.629 19.9995 355.665 21.378 354.705L49.8974 334.849C51.2644 333.897 53.04 334.293 53.8729 335.736L136.621 479.059L136.876 479.501L137.008 479.008L180.074 318.28C180.506 316.67 182.125 315.813 183.699 316.362L216.267 327.715C217.853 328.268 218.788 330.036 218.354 331.657L176.053 489.528L175.921 490.02L176.362 489.765L319.711 407.003C321.154 406.17 322.89 406.715 323.598 408.222L338.368 439.678C339.082 441.199 338.479 443.119 337.025 443.959L197.53 524.496L197.088 524.751L197.581 524.883L346.058 564.667C347.674 565.1 348.633 566.761 348.2 568.377L339.279 601.673C338.846 603.289 337.185 604.248 335.569 603.815L185.913 563.714L185.42 563.582L185.675 564.024L267.097 705.051C267.937 706.506 267.499 708.47 266.121 709.43L237.601 729.286C236.234 730.238 234.459 729.842 233.626 728.399L150.841 585.012L150.586 584.57L150.454 585.063L107.366 745.87C106.935 747.48 105.315 748.337 103.741 747.788L71.173 736.435C69.5878 735.882 68.6521 734.114 69.0866 732.492L111.38 574.651L111.512 574.158L111.07 574.413L-32.2909 657.183C-33.7335 658.016 -35.4693 657.471 -36.1773 655.963L-50.9476 624.507C-51.6615 622.987 -51.059 621.067 -49.6043 620.227L91.4653 538.781Z" fill="#FE4819" stroke="#FE4819" stroke-width="0.422459"/>
<path opacity="0.23" d="M673.633 95.6126L671.579 94.4262L672.193 96.7181L700.043 200.659C700.225 201.334 699.823 202.029 699.148 202.21L676.03 208.404C675.354 208.586 674.66 208.184 674.479 207.509L646.847 104.387L646.233 102.095L645.047 104.149L589.113 201.03C588.747 201.664 587.883 201.935 587.22 201.624L565.38 191.369C564.777 191.086 564.569 190.423 564.902 189.846L622.354 90.3361L623.541 88.2812L621.249 88.8954L509.655 118.797C509.007 118.971 508.407 118.594 508.281 117.935L503.802 94.4106C503.665 93.6957 504.14 92.9399 504.843 92.7516L614.452 63.3817L616.744 62.7676L614.689 61.5812L515.162 4.11893C514.584 3.7855 514.433 3.10794 514.814 2.56065L528.601 -17.2404C529.019 -17.841 529.902 -18.0382 530.536 -17.6722L627.388 38.2449L629.442 39.4313L628.828 37.1394L601.206 -65.9488C601.025 -66.6246 601.426 -67.3192 602.102 -67.5003L625.219 -73.6946C625.895 -73.8757 626.59 -73.4746 626.771 -72.7988L654.612 31.1077L655.227 33.3996L656.413 31.3447L712.944 -66.5708C713.31 -67.2046 714.174 -67.4757 714.837 -67.1647L736.677 -56.9097C737.28 -56.6262 737.488 -55.9639 737.155 -55.3863L679.677 44.1678L678.491 46.2227L680.783 45.6086L792.431 15.6925C793.079 15.5188 793.679 15.8954 793.805 16.5547L798.284 40.0787C798.421 40.7936 797.946 41.5494 797.243 41.7377L687.654 71.1022L685.362 71.7163L687.417 72.9027L786.953 130.37C787.53 130.703 787.681 131.381 787.3 131.928L773.514 151.729C773.096 152.33 772.212 152.527 771.578 152.161L673.633 95.6126Z" stroke="#FE4819" stroke-width="1.96568"/>
</g>
<defs>
<clipPath id="clip0_40_167">
<rect width="844" height="656" rx="16" fill="white"/>
</clipPath>
</defs>
</svg>
