<svg width="700" height="900" viewBox="0 0 700 900" fill="none" xmlns="http://www.w3.org/2000/svg">
<g clip-path="url(#clip0_16_373)">
<g opacity="0.1">
<g clip-path="url(#clip1_16_373)">
<path d="M2061.72 889.554C2127.81 497.905 2132.86 -146.189 1624.35 410.63C988.715 1106.65 743.647 1180.26 553.892 934.278C402.088 737.491 118.505 852.283 -4.31103 934.278" stroke="white" stroke-width="1.40854"/>
<path d="M2061.72 830.396C2127.81 438.747 2132.86 -205.347 1624.35 351.472C988.715 1047.5 743.647 1121.1 553.892 875.12C402.088 678.333 118.505 793.125 -4.31103 875.12" stroke="white" stroke-width="1.40854"/>
<path d="M2061.72 771.238C2127.81 379.588 2132.86 -264.505 1624.35 292.314C988.715 988.337 743.647 1061.95 553.892 815.962C402.088 619.174 118.505 733.967 -4.31103 815.962" stroke="white" stroke-width="1.40854"/>
<path d="M2061.72 712.079C2127.81 320.43 2132.86 -323.663 1624.35 233.155C988.715 929.179 743.647 1002.79 553.892 756.804C402.088 560.016 118.505 674.809 -4.31103 756.804" stroke="white" stroke-width="1.40854"/>
<path d="M2061.72 652.916C2127.81 261.267 2132.86 -382.826 1624.35 173.993C988.715 870.016 743.647 943.625 553.892 697.641C402.088 500.853 118.505 615.646 -4.31103 697.641" stroke="white" stroke-width="1.40854"/>
<path d="M2061.72 593.758C2127.81 202.109 2132.86 -441.984 1624.35 114.835C988.715 810.858 743.647 884.467 553.892 638.483C402.088 441.695 118.505 556.488 -4.31103 638.483" stroke="white" stroke-width="1.40854"/>
<path d="M2061.72 534.6C2127.81 142.951 2132.86 -501.142 1624.35 55.6763C988.715 751.7 743.647 825.309 553.892 579.324C402.088 382.537 118.505 497.33 -4.31103 579.324" stroke="white" stroke-width="1.40854"/>
<path d="M2061.72 475.442C2127.81 83.7928 2132.86 -560.301 1624.35 -3.48188C988.715 692.542 743.647 766.151 553.892 520.166C402.088 323.379 118.505 438.171 -4.31103 520.166" stroke="white" stroke-width="1.40854"/>
<path d="M2061.72 416.284C2127.81 24.6346 2132.86 -619.459 1624.35 -62.6401C988.715 633.383 743.647 706.992 553.892 461.008C402.088 264.221 118.505 379.013 -4.31103 461.008" stroke="white" stroke-width="1.40854"/>
<path d="M2061.72 357.121C2127.81 -34.5281 2132.86 -678.622 1624.35 -121.803C988.715 574.221 743.647 647.83 553.892 401.845C402.088 205.058 118.505 319.851 -4.31103 401.845" stroke="white" stroke-width="1.40854"/>
<path d="M2061.72 297.967C2127.81 -93.6818 2132.86 -737.775 1624.35 -180.956C988.715 515.067 743.647 588.676 553.892 342.692C402.088 145.904 118.505 260.697 -4.31103 342.692" stroke="white" stroke-width="1.40854"/>
<path d="M2061.72 238.809C2127.81 -152.84 2132.86 -796.934 1624.35 -240.115C988.715 455.909 743.647 529.518 553.892 283.533C402.088 86.7459 118.505 201.539 -4.31103 283.533" stroke="white" stroke-width="1.40854"/>
<path d="M2061.72 179.651C2127.81 -211.998 2132.86 -856.092 1624.35 -299.273C988.715 396.75 743.647 470.359 553.892 224.375C402.088 27.5877 118.505 142.38 -4.31103 224.375" stroke="white" stroke-width="1.40854"/>
<path d="M2061.72 120.488C2127.81 -271.161 2132.86 -915.255 1624.35 -358.436C988.715 337.588 743.647 411.197 553.892 165.212C402.088 -31.5751 118.505 83.2175 -4.31103 165.212" stroke="white" stroke-width="1.40854"/>
<path d="M2061.72 61.3344C2127.81 -330.315 2132.86 -974.408 1624.35 -417.589C988.715 278.434 743.647 352.043 553.892 106.059C402.088 -90.7287 118.505 24.0639 -4.31103 106.059" stroke="white" stroke-width="1.40854"/>
<path d="M2061.72 2.17623C2127.81 -389.473 2132.86 -1033.57 1624.35 -476.748C988.715 219.276 743.647 292.885 553.892 46.9005C402.088 -149.887 118.505 -35.0943 -4.31103 46.9005" stroke="white" stroke-width="1.40854"/>
<path d="M2061.72 -56.982C2127.81 -448.631 2132.86 -1092.72 1624.35 -535.906C988.715 160.118 743.647 233.727 553.892 -12.2577C402.088 -209.045 118.505 -94.2525 -4.31103 -12.2577" stroke="white" stroke-width="1.40854"/>
<path d="M2061.72 -116.145C2127.81 -507.794 2132.86 -1151.89 1624.35 -595.068C988.715 100.955 743.647 174.564 553.892 -71.4203C402.088 -268.208 118.505 -153.415 -4.31103 -71.4203" stroke="white" stroke-width="1.40854"/>
<path d="M2061.72 -175.298C2127.81 -566.947 2132.86 -1211.04 1624.35 -654.222C988.715 41.8015 743.647 115.41 553.892 -130.574C402.088 -327.361 118.505 -212.569 -4.31103 -130.574" stroke="white" stroke-width="1.40854"/>
</g>
</g>
</g>
<defs>
<clipPath id="clip0_16_373">
<rect width="700" height="900" rx="16" fill="white"/>
</clipPath>
<clipPath id="clip1_16_373">
<rect x="700" y="900" width="700" height="908" rx="37.3333" transform="rotate(-180 700 900)" fill="white"/>
</clipPath>
</defs>
</svg>
