<svg width="1440" height="824" viewBox="0 0 1440 824" fill="none" xmlns="http://www.w3.org/2000/svg">
<g opacity="0.2" clip-path="url(#clip0_15_328)">
<path d="M1459.8 684.204C1506.72 406.15 1510.3 -51.1288 1149.28 344.189C698.006 838.335 524.018 890.594 389.3 715.956C281.526 576.246 80.1941 657.743 -6.99997 715.956" stroke="#2ABF6F"/>
<path d="M1459.8 642.204C1506.72 364.15 1510.3 -93.1288 1149.28 302.189C698.006 796.335 524.018 848.594 389.3 673.956C281.526 534.246 80.1941 615.743 -6.99997 673.956" stroke="#2ABF6F"/>
<path d="M1459.8 600.204C1506.72 322.15 1510.3 -135.129 1149.28 260.189C698.006 754.335 524.018 806.594 389.3 631.956C281.526 492.246 80.1941 573.743 -6.99997 631.956" stroke="#2ABF6F"/>
<path d="M1459.8 558.204C1506.72 280.15 1510.3 -177.129 1149.28 218.189C698.006 712.335 524.018 764.594 389.3 589.956C281.526 450.246 80.1941 531.743 -6.99997 589.956" stroke="#2ABF6F"/>
<path d="M1459.8 516.204C1506.72 238.15 1510.3 -219.129 1149.28 176.189C698.006 670.335 524.018 722.594 389.3 547.956C281.526 408.246 80.1941 489.743 -6.99997 547.956" stroke="#2ABF6F"/>
<path d="M1459.8 474.204C1506.72 196.15 1510.3 -261.129 1149.28 134.189C698.006 628.335 524.018 680.594 389.3 505.956C281.526 366.246 80.1941 447.743 -6.99997 505.956" stroke="#2ABF6F"/>
<path d="M1459.8 432.204C1506.72 154.15 1510.3 -303.129 1149.28 92.1885C698.006 586.335 524.018 638.594 389.3 463.956C281.526 324.246 80.1941 405.743 -6.99997 463.956" stroke="#2ABF6F"/>
<path d="M1459.8 390.204C1506.72 112.15 1510.3 -345.129 1149.28 50.1885C698.006 544.335 524.018 596.594 389.3 421.956C281.526 282.246 80.1941 363.743 -6.99997 421.956" stroke="#2ABF6F"/>
<path d="M1459.8 348.204C1506.72 70.1498 1510.3 -387.129 1149.28 8.18854C698.006 502.335 524.018 554.594 389.3 379.956C281.526 240.246 80.1941 321.743 -6.99997 379.956" stroke="#2ABF6F"/>
<path d="M1459.8 306.204C1506.72 28.1498 1510.3 -429.129 1149.28 -33.8115C698.006 460.335 524.018 512.594 389.3 337.956C281.526 198.246 80.1941 279.743 -6.99997 337.956" stroke="#2ABF6F"/>
<path d="M1459.8 264.204C1506.72 -13.8502 1510.3 -471.129 1149.28 -75.8115C698.006 418.335 524.018 470.594 389.3 295.956C281.526 156.246 80.1941 237.743 -6.99997 295.956" stroke="#2ABF6F"/>
<path d="M1459.8 222.204C1506.72 -55.8502 1510.3 -513.129 1149.28 -117.811C698.006 376.335 524.018 428.594 389.3 253.956C281.526 114.246 80.1941 195.743 -6.99997 253.956" stroke="#2ABF6F"/>
<path d="M1459.8 180.204C1506.72 -97.8502 1510.3 -555.129 1149.28 -159.811C698.006 334.335 524.018 386.594 389.3 211.956C281.526 72.2455 80.1941 153.743 -6.99997 211.956" stroke="#2ABF6F"/>
<path d="M1459.8 138.204C1506.72 -139.85 1510.3 -597.129 1149.28 -201.811C698.006 292.335 524.018 344.594 389.3 169.956C281.526 30.2455 80.1941 111.743 -6.99997 169.956" stroke="#2ABF6F"/>
<path d="M1459.8 96.2038C1506.72 -181.85 1510.3 -639.129 1149.28 -243.811C698.006 250.335 524.018 302.594 389.3 127.956C281.526 -11.7545 80.1941 69.7433 -6.99997 127.956" stroke="#2ABF6F"/>
<path d="M1459.8 54.2038C1506.72 -223.85 1510.3 -681.129 1149.28 -285.811C698.006 208.335 524.018 260.594 389.3 85.9561C281.526 -53.7545 80.1941 27.7433 -6.99997 85.9561" stroke="#2ABF6F"/>
<path d="M1459.8 12.2038C1506.72 -265.85 1510.3 -723.129 1149.28 -327.811C698.006 166.335 524.018 218.594 389.3 43.9561C281.526 -95.7545 80.1941 -14.2567 -6.99997 43.9561" stroke="#2ABF6F"/>
<path d="M1459.8 -29.7962C1506.72 -307.85 1510.3 -765.129 1149.28 -369.811C698.006 124.335 524.018 176.594 389.3 1.9561C281.526 -137.754 80.1941 -56.2567 -6.99997 1.95606" stroke="#2ABF6F"/>
<path d="M1459.8 -71.7962C1506.72 -349.85 1510.3 -807.129 1149.28 -411.811C698.006 82.3352 524.018 134.594 389.3 -40.0439C281.526 -179.754 80.1941 -98.2567 -6.99997 -40.0439" stroke="#2ABF6F"/>
<path d="M1459.8 -113.796C1506.72 -391.85 1510.3 -849.129 1149.28 -453.811C698.006 40.3352 524.018 92.5943 389.3 -82.0439C281.526 -221.754 80.1941 -140.257 -6.99997 -82.0439" stroke="#2ABF6F"/>
</g>
<defs>
<clipPath id="clip0_15_328">
<rect width="1440" height="824" fill="white" transform="translate(1440 824) rotate(-180)"/>
</clipPath>
</defs>
</svg>
