<svg width="300" height="306" viewBox="0 0 300 306" fill="none" xmlns="http://www.w3.org/2000/svg">
<g clip-path="url(#clip0_21_16)">
<g opacity="0.2" clip-path="url(#clip1_21_16)">
<path d="M-357.346 -23.8658C-379.657 76.0786 -381.361 240.444 -209.695 98.3501C4.88701 -79.2671 87.6185 -98.0513 151.677 -35.2789C202.924 14.939 298.658 -14.3548 340.119 -35.2789" stroke="url(#paint0_linear_21_16)" stroke-width="0.475548"/>
<path d="M-357.352 -8.7642C-379.663 91.1802 -381.367 255.545 -209.701 113.452C4.88116 -64.1656 87.6126 -82.9497 151.671 -20.1774C202.918 30.0405 298.652 0.746764 340.113 -20.1774" stroke="url(#paint1_linear_21_16)" stroke-width="0.475548"/>
<path d="M-357.356 6.33737C-379.666 106.282 -381.371 270.647 -209.705 128.553C4.87725 -49.064 87.6087 -67.8481 151.667 -5.07579C202.914 45.1421 298.648 15.8483 340.109 -5.07579" stroke="url(#paint2_linear_21_16)" stroke-width="0.475548"/>
<path d="M-357.36 21.4389C-379.67 121.383 -381.375 285.749 -209.709 143.655C4.87334 -33.9624 87.6048 -52.7466 151.663 10.0258C202.91 60.2436 298.644 30.9499 340.105 10.0258" stroke="url(#paint3_linear_21_16)" stroke-width="0.475548"/>
<path d="M-357.362 36.5366C-379.672 136.481 -381.377 300.846 -209.711 158.752C4.87139 -18.8648 87.6028 -37.6489 151.662 25.1234C202.908 75.3413 298.642 46.0475 340.103 25.1234" stroke="url(#paint4_linear_21_16)" stroke-width="0.475548"/>
<path d="M-357.364 51.6342C-379.674 151.579 -381.379 315.944 -209.713 173.85C4.86944 -3.76712 87.6009 -22.5513 151.66 40.2211C202.907 90.439 298.64 61.1452 340.101 40.2211" stroke="url(#paint5_linear_21_16)" stroke-width="0.475548"/>
<path d="M-357.37 66.7378C-379.68 166.682 -381.384 331.047 -209.719 188.954C4.86358 11.3364 87.595 -7.44774 151.654 55.3246C202.901 105.542 298.634 76.2487 340.095 55.3246" stroke="url(#paint6_linear_21_16)" stroke-width="0.475548"/>
<path d="M-357.374 81.8374C-379.684 181.782 -381.388 346.147 -209.723 204.053C4.85967 26.436 87.5911 7.65187 151.65 70.4242C202.897 120.642 298.631 91.3483 340.092 70.4242" stroke="url(#paint7_linear_21_16)" stroke-width="0.475548"/>
<path d="M-357.376 96.935C-379.686 196.879 -381.39 361.245 -209.725 219.151C4.85772 41.5337 87.5892 22.7495 151.648 85.5219C202.895 135.74 298.629 106.446 340.09 85.5219" stroke="url(#paint8_linear_21_16)" stroke-width="0.475548"/>
<path d="M-357.379 112.039C-379.69 211.983 -381.394 376.348 -209.728 234.254C4.85381 56.6372 87.5853 37.853 151.644 100.625C202.891 150.843 298.625 121.549 340.086 100.625" stroke="url(#paint9_linear_21_16)" stroke-width="0.475548"/>
<path d="M-357.381 127.136C-379.692 227.081 -381.396 391.446 -209.73 249.352C4.85186 71.7348 87.5833 52.9507 151.642 115.723C202.889 165.941 298.623 136.647 340.084 115.723" stroke="url(#paint10_linear_21_16)" stroke-width="0.475548"/>
<path d="M-357.387 142.238C-379.697 242.182 -381.402 406.547 -209.736 264.454C4.84624 86.8364 87.5777 68.0523 151.636 130.825C202.883 181.042 298.617 151.749 340.078 130.825" stroke="url(#paint11_linear_21_16)" stroke-width="0.475548"/>
<path d="M-357.389 157.337C-379.7 257.282 -381.404 421.647 -209.738 279.553C4.84405 101.936 87.5755 83.1519 151.634 145.924C202.881 196.142 298.615 166.848 340.076 145.924" stroke="url(#paint12_linear_21_16)" stroke-width="0.475548"/>
<path d="M-357.393 172.435C-379.704 272.379 -381.408 436.745 -209.742 294.651C4.84014 117.034 87.5716 98.2495 151.63 161.022C202.877 211.24 298.611 181.946 340.072 161.022" stroke="url(#paint13_linear_21_16)" stroke-width="0.475548"/>
<path d="M-357.395 187.539C-379.705 287.483 -381.41 451.848 -209.744 309.754C4.83831 132.137 87.5697 113.353 151.628 176.125C202.875 226.343 298.609 197.049 340.07 176.125" stroke="url(#paint14_linear_21_16)" stroke-width="0.475548"/>
<path d="M-357.399 202.636C-379.709 302.581 -381.414 466.946 -209.748 324.852C4.83428 147.235 87.5657 128.451 151.624 191.223C202.871 241.441 298.605 212.147 340.066 191.223" stroke="url(#paint15_linear_21_16)" stroke-width="0.475548"/>
<path d="M-357.401 217.736C-379.711 317.68 -381.416 482.045 -209.75 339.952C4.83221 162.334 87.5636 143.55 151.622 206.323C202.869 256.54 298.603 227.247 340.064 206.323" stroke="url(#paint16_linear_21_16)" stroke-width="0.475548"/>
<path d="M-357.407 232.837C-379.717 332.782 -381.422 497.147 -209.756 355.053C4.82647 177.436 87.5579 158.652 151.617 221.424C202.864 271.642 298.597 242.348 340.058 221.424" stroke="url(#paint17_linear_21_16)" stroke-width="0.475548"/>
<path d="M-357.409 247.937C-379.719 347.881 -381.424 512.247 -209.758 370.153C4.82451 192.536 87.556 173.751 151.615 236.524C202.862 286.742 298.595 257.448 340.056 236.524" stroke="url(#paint18_linear_21_16)" stroke-width="0.475548"/>
<path d="M-357.413 263.04C-379.723 362.985 -381.427 527.35 -209.762 385.256C4.82061 207.639 87.552 188.855 151.611 251.627C202.858 301.845 298.591 272.551 340.052 251.627" stroke="url(#paint19_linear_21_16)" stroke-width="0.475548"/>
</g>
</g>
<defs>
<linearGradient id="paint0_linear_21_16" x1="-13.8927" y1="153.772" x2="-49.6839" y2="-25.8513" gradientUnits="userSpaceOnUse">
<stop stop-color="#01A561"/>
<stop offset="0.820894" stop-color="#394FC2"/>
</linearGradient>
<linearGradient id="paint1_linear_21_16" x1="-13.8986" y1="168.874" x2="-49.6898" y2="-10.7497" gradientUnits="userSpaceOnUse">
<stop stop-color="#01A561"/>
<stop offset="0.820894" stop-color="#394FC2"/>
</linearGradient>
<linearGradient id="paint2_linear_21_16" x1="-13.9025" y1="183.975" x2="-49.6937" y2="4.35182" gradientUnits="userSpaceOnUse">
<stop stop-color="#01A561"/>
<stop offset="0.820894" stop-color="#394FC2"/>
</linearGradient>
<linearGradient id="paint3_linear_21_16" x1="-13.9064" y1="199.077" x2="-49.6976" y2="19.4534" gradientUnits="userSpaceOnUse">
<stop stop-color="#01A561"/>
<stop offset="0.820894" stop-color="#394FC2"/>
</linearGradient>
<linearGradient id="paint4_linear_21_16" x1="-13.9084" y1="214.174" x2="-49.6995" y2="34.551" gradientUnits="userSpaceOnUse">
<stop stop-color="#01A561"/>
<stop offset="0.820894" stop-color="#394FC2"/>
</linearGradient>
<linearGradient id="paint5_linear_21_16" x1="-13.9103" y1="229.272" x2="-49.7015" y2="49.6487" gradientUnits="userSpaceOnUse">
<stop stop-color="#01A561"/>
<stop offset="0.820894" stop-color="#394FC2"/>
</linearGradient>
<linearGradient id="paint6_linear_21_16" x1="-13.9162" y1="244.375" x2="-49.7074" y2="64.7522" gradientUnits="userSpaceOnUse">
<stop stop-color="#01A561"/>
<stop offset="0.820894" stop-color="#394FC2"/>
</linearGradient>
<linearGradient id="paint7_linear_21_16" x1="-13.9201" y1="259.475" x2="-49.7113" y2="79.8518" gradientUnits="userSpaceOnUse">
<stop stop-color="#01A561"/>
<stop offset="0.820894" stop-color="#394FC2"/>
</linearGradient>
<linearGradient id="paint8_linear_21_16" x1="-13.922" y1="274.573" x2="-49.7132" y2="94.9495" gradientUnits="userSpaceOnUse">
<stop stop-color="#01A561"/>
<stop offset="0.820894" stop-color="#394FC2"/>
</linearGradient>
<linearGradient id="paint9_linear_21_16" x1="-13.9259" y1="289.676" x2="-49.7171" y2="110.053" gradientUnits="userSpaceOnUse">
<stop stop-color="#01A561"/>
<stop offset="0.820894" stop-color="#394FC2"/>
</linearGradient>
<linearGradient id="paint10_linear_21_16" x1="-13.9279" y1="304.774" x2="-49.7191" y2="125.151" gradientUnits="userSpaceOnUse">
<stop stop-color="#01A561"/>
<stop offset="0.820894" stop-color="#394FC2"/>
</linearGradient>
<linearGradient id="paint11_linear_21_16" x1="-13.9335" y1="319.875" x2="-49.7247" y2="140.252" gradientUnits="userSpaceOnUse">
<stop stop-color="#01A561"/>
<stop offset="0.820894" stop-color="#394FC2"/>
</linearGradient>
<linearGradient id="paint12_linear_21_16" x1="-13.9357" y1="334.975" x2="-49.7269" y2="155.352" gradientUnits="userSpaceOnUse">
<stop stop-color="#01A561"/>
<stop offset="0.820894" stop-color="#394FC2"/>
</linearGradient>
<linearGradient id="paint13_linear_21_16" x1="-13.9396" y1="350.073" x2="-49.7308" y2="170.449" gradientUnits="userSpaceOnUse">
<stop stop-color="#01A561"/>
<stop offset="0.820894" stop-color="#394FC2"/>
</linearGradient>
<linearGradient id="paint14_linear_21_16" x1="-13.9414" y1="365.176" x2="-49.7326" y2="185.553" gradientUnits="userSpaceOnUse">
<stop stop-color="#01A561"/>
<stop offset="0.820894" stop-color="#394FC2"/>
</linearGradient>
<linearGradient id="paint15_linear_21_16" x1="-13.9455" y1="380.274" x2="-49.7367" y2="200.651" gradientUnits="userSpaceOnUse">
<stop stop-color="#01A561"/>
<stop offset="0.820894" stop-color="#394FC2"/>
</linearGradient>
<linearGradient id="paint16_linear_21_16" x1="-13.9475" y1="395.373" x2="-49.7387" y2="215.75" gradientUnits="userSpaceOnUse">
<stop stop-color="#01A561"/>
<stop offset="0.820894" stop-color="#394FC2"/>
</linearGradient>
<linearGradient id="paint17_linear_21_16" x1="-13.9533" y1="410.475" x2="-49.7445" y2="230.852" gradientUnits="userSpaceOnUse">
<stop stop-color="#01A561"/>
<stop offset="0.820894" stop-color="#394FC2"/>
</linearGradient>
<linearGradient id="paint18_linear_21_16" x1="-13.9552" y1="425.575" x2="-49.7464" y2="245.951" gradientUnits="userSpaceOnUse">
<stop stop-color="#01A561"/>
<stop offset="0.820894" stop-color="#394FC2"/>
</linearGradient>
<linearGradient id="paint19_linear_21_16" x1="-13.9591" y1="440.678" x2="-49.7503" y2="261.055" gradientUnits="userSpaceOnUse">
<stop stop-color="#01A561"/>
<stop offset="0.820894" stop-color="#394FC2"/>
</linearGradient>
<clipPath id="clip0_21_16">
<rect width="300" height="306" fill="white"/>
</clipPath>
<clipPath id="clip1_21_16">
<rect width="1071" height="441" fill="white" transform="translate(-348)"/>
</clipPath>
</defs>
</svg>
