<svg width="1360" height="328" viewBox="0 0 1360 328" fill="none" xmlns="http://www.w3.org/2000/svg">
<g clip-path="url(#clip0_4_7)">
<g opacity="0.3" clip-path="url(#clip1_4_7)">
<path d="M1473.18 958.395C1702.97 794.959 2028.85 474.148 1494.04 498.4C825.522 528.715 665.541 442.64 693.769 223.893C716.351 48.8944 516.361 -35.841 413.543 -56.3339" stroke="#394FC2"/>
<path d="M1502.88 928.7C1732.67 765.263 2058.55 444.453 1523.73 468.705C855.221 499.02 695.24 412.945 723.468 194.197C746.05 19.1991 546.06 -65.5363 443.242 -86.0292" stroke="#394FC2"/>
<path d="M1532.57 899.001C1762.37 735.564 2088.25 414.754 1553.43 439.006C884.92 469.321 724.94 383.246 753.168 164.498C775.75 -10.5001 575.759 -95.2355 472.941 -115.728" stroke="#394FC2"/>
<path d="M1562.27 869.301C1792.07 705.865 2117.94 385.055 1583.13 409.307C914.619 439.622 754.639 353.547 782.867 134.799C805.449 -40.1993 605.458 -124.935 502.64 -145.428" stroke="#394FC2"/>
<path d="M1591.97 839.602C1821.76 676.166 2147.64 355.355 1612.83 379.607C944.315 409.922 784.334 323.847 812.562 105.1C835.144 -69.8985 635.154 -154.634 532.336 -175.127" stroke="#394FC2"/>
<path d="M1621.67 809.903C1851.46 646.466 2177.34 325.656 1642.53 349.908C974.014 380.223 814.033 294.148 842.261 75.4005C864.844 -99.5977 664.853 -184.333 562.035 -204.826" stroke="#394FC2"/>
<path d="M1651.37 780.204C1881.16 616.767 2207.04 295.957 1672.23 320.209C1003.71 350.524 843.733 264.449 871.961 45.7013C894.543 -129.297 694.552 -214.032 591.734 -234.525" stroke="#394FC2"/>
<path d="M1670.01 761.637C1899.8 598.201 2225.68 277.39 1690.87 301.642C1022.36 331.958 862.377 245.883 890.605 27.1349C913.188 -147.863 713.197 -232.599 610.379 -253.092" stroke="#394FC2"/>
<path d="M1710.77 720.809C1940.56 557.373 2266.44 236.562 1731.63 260.814C1063.11 291.129 903.131 205.055 931.359 -13.6933C953.941 -188.691 753.951 -273.427 651.132 -293.92" stroke="#394FC2"/>
<path d="M1740.46 691.11C1970.25 527.673 2296.13 206.863 1761.32 231.115C1092.81 261.43 932.826 175.355 961.054 -43.3925C983.637 -218.391 783.646 -303.126 680.828 -323.619" stroke="#394FC2"/>
<path d="M1770.16 661.411C1999.95 497.974 2325.83 177.164 1791.02 201.416C1122.51 231.731 962.526 145.656 990.754 -73.0917C1013.34 -248.09 813.345 -332.825 710.527 -353.318" stroke="#394FC2"/>
<path d="M1799.86 631.715C2029.65 468.279 2355.53 147.469 1820.72 171.721C1152.21 202.036 992.225 115.961 1020.45 -102.787C1043.04 -277.785 843.045 -362.521 740.226 -383.014" stroke="#394FC2"/>
<path d="M1829.56 602.016C2059.35 438.58 2385.23 117.769 1850.42 142.021C1181.9 172.336 1021.92 86.2615 1050.15 -132.486C1072.73 -307.484 872.744 -392.22 769.925 -412.713" stroke="#394FC2"/>
<path d="M1859.26 572.317C2089.05 408.88 2414.93 88.0702 1880.12 112.322C1211.6 142.637 1051.62 56.5623 1079.85 -162.185C1102.43 -337.184 902.443 -421.919 799.625 -442.412" stroke="#394FC2"/>
<path d="M1888.96 542.618C2118.75 379.181 2444.63 58.371 1909.82 82.623C1241.3 112.938 1081.32 26.8631 1109.55 -191.885C1132.13 -366.883 932.142 -451.618 829.324 -472.111" stroke="#394FC2"/>
<path d="M1918.65 512.919C2148.44 349.482 2474.32 28.6717 1939.51 52.9237C1271 83.2388 1111.02 -2.83612 1139.25 -221.584C1161.83 -396.582 961.837 -481.318 859.019 -501.81" stroke="#394FC2"/>
<path d="M1948.35 483.219C2178.14 319.783 2504.02 -1.02749 1969.21 23.2245C1300.7 53.5396 1140.72 -32.5353 1168.94 -251.283C1191.53 -426.281 991.537 -511.017 888.718 -531.51" stroke="#394FC2"/>
<path d="M1978.05 453.52C2207.84 290.084 2533.72 -30.7267 1998.91 -6.47469C1330.4 23.8403 1170.42 -62.2346 1198.64 -280.982C1221.23 -455.981 1021.24 -540.716 918.417 -561.209" stroke="#394FC2"/>
<path d="M2007.75 423.825C2237.54 260.388 2563.42 -60.422 2028.61 -36.17C1360.1 -5.85498 1200.12 -91.9299 1228.34 -310.678C1250.93 -485.676 1050.93 -570.411 948.117 -590.904" stroke="#394FC2"/>
<path d="M2037.45 394.126C2267.24 230.689 2593.12 -90.1212 2058.31 -65.8692C1389.8 -35.5542 1229.81 -121.629 1258.04 -340.377C1280.62 -515.375 1080.63 -600.11 977.816 -620.603" stroke="#394FC2"/>
</g>
</g>
<defs>
<clipPath id="clip0_4_7">
<rect width="1360" height="328" fill="white"/>
</clipPath>
<clipPath id="clip1_4_7">
<rect width="1440" height="824" fill="white" transform="translate(1360.33 1043.25) rotate(-135)"/>
</clipPath>
</defs>
</svg>
