<svg width="700" height="280" viewBox="0 0 700 280" fill="none" xmlns="http://www.w3.org/2000/svg">
<g clip-path="url(#clip0_42_187)">
<g opacity="0.1" clip-path="url(#clip1_42_187)">
<path d="M1448.57 574.75C1496.19 292.568 1499.83 -171.499 1133.45 229.687C675.472 731.17 498.901 784.204 362.183 606.974C252.809 465.189 48.4881 547.897 -40.0005 606.974" stroke="#2ABF6F" stroke-width="1.01485"/>
<path d="M1448.57 532.127C1496.19 249.945 1499.83 -214.123 1133.45 187.064C675.472 688.546 498.901 741.581 362.183 564.351C252.809 422.566 48.4881 505.274 -40.0005 564.351" stroke="#2ABF6F" stroke-width="1.01485"/>
<path d="M1448.57 489.502C1496.19 207.32 1499.83 -256.748 1133.45 144.439C675.472 645.921 498.901 698.956 362.183 521.726C252.809 379.941 48.4881 462.649 -40.0005 521.726" stroke="#2ABF6F" stroke-width="1.01485"/>
<path d="M1448.57 446.879C1496.19 164.697 1499.83 -299.371 1133.45 101.816C675.472 603.298 498.901 656.333 362.183 479.102C252.809 337.318 48.4881 420.026 -40.0005 479.102" stroke="#2ABF6F" stroke-width="1.01485"/>
<path d="M1448.57 404.256C1496.19 122.074 1499.83 -341.994 1133.45 59.1926C675.472 560.675 498.901 613.71 362.183 436.479C252.809 294.695 48.4881 377.402 -40.0005 436.479" stroke="#2ABF6F" stroke-width="1.01485"/>
<path d="M1448.57 361.631C1496.19 79.4488 1499.83 -384.619 1133.45 16.5676C675.472 518.05 498.901 571.085 362.183 393.854C252.809 252.07 48.4881 334.777 -40.0005 393.854" stroke="#2ABF6F" stroke-width="1.01485"/>
<path d="M1448.57 319.008C1496.19 36.8257 1499.83 -427.242 1133.45 -26.0555C675.472 475.427 498.901 528.462 362.183 351.231C252.809 209.447 48.4881 292.154 -40.0005 351.231" stroke="#2ABF6F" stroke-width="1.01485"/>
<path d="M1448.57 276.385C1496.19 -5.79734 1499.83 -469.865 1133.45 -68.6785C675.472 432.804 498.901 485.839 362.183 308.608C252.809 166.824 48.4881 249.531 -40.0005 308.608" stroke="#2ABF6F" stroke-width="1.01485"/>
<path d="M1448.57 233.762C1496.19 -48.4204 1499.83 -512.488 1133.45 -111.302C675.472 390.181 498.901 443.216 362.183 265.985C252.809 124.201 48.4881 206.908 -40.0005 265.985" stroke="#2ABF6F" stroke-width="1.01485"/>
<path d="M1448.57 191.137C1496.19 -91.0454 1499.83 -555.113 1133.45 -153.927C675.472 347.556 498.901 400.591 362.183 223.36C252.809 81.5756 48.4881 164.283 -40.0005 223.36" stroke="#2ABF6F" stroke-width="1.01485"/>
<path d="M1448.58 148.514C1496.19 -133.668 1499.83 -597.736 1133.45 -196.55C675.476 304.933 498.905 357.968 362.187 180.737C252.813 38.9526 48.492 121.66 -39.9966 180.737" stroke="#2ABF6F" stroke-width="1.01485"/>
<path d="M1448.58 105.891C1496.19 -176.291 1499.83 -640.359 1133.45 -239.173C675.476 262.31 498.905 315.345 362.187 138.114C252.813 -3.6705 48.492 79.0372 -39.9966 138.114" stroke="#2ABF6F" stroke-width="1.01485"/>
<path d="M1448.58 63.2675C1496.19 -218.915 1499.83 -682.982 1133.45 -281.796C675.476 219.687 498.905 272.722 362.187 95.4912C252.813 -46.2935 48.492 36.4142 -39.9966 95.4911" stroke="#2ABF6F" stroke-width="1.01485"/>
<path d="M1448.58 20.6425C1496.19 -261.54 1499.83 -725.607 1133.45 -324.421C675.476 177.062 498.905 230.097 362.187 52.8662C252.813 -88.9185 48.492 -6.21082 -39.9966 52.8661" stroke="#2ABF6F" stroke-width="1.01485"/>
<path d="M1448.57 -21.9806C1496.19 -304.163 1499.83 -768.23 1133.45 -367.044C675.472 134.439 498.901 187.474 362.183 10.2431C252.809 -131.542 48.4881 -48.8339 -40.0005 10.2431" stroke="#2ABF6F" stroke-width="1.01485"/>
<path d="M1448.57 -64.6036C1496.19 -346.786 1499.83 -810.853 1133.45 -409.667C675.472 91.816 498.901 144.851 362.183 -32.3799C252.809 -174.165 48.4881 -91.4569 -40.0005 -32.38" stroke="#2ABF6F" stroke-width="1.01485"/>
<path d="M1448.57 -107.227C1496.19 -389.409 1499.83 -853.476 1133.45 -452.29C675.472 49.193 498.901 102.228 362.183 -75.003C252.809 -216.788 48.4881 -134.08 -40.0005 -75.003" stroke="#2ABF6F" stroke-width="1.01485"/>
</g>
</g>
<defs>
<clipPath id="clip0_42_187">
<rect width="700" height="280" fill="white"/>
</clipPath>
<clipPath id="clip1_42_187">
<rect width="1562" height="893.811" fill="white" transform="translate(1522 858.906) rotate(-180)"/>
</clipPath>
</defs>
</svg>
