<svg width="328" height="452" viewBox="0 0 328 452" fill="none" xmlns="http://www.w3.org/2000/svg">
<g clip-path="url(#clip0_23_63)">
<g opacity="0.2">
<path d="M-18.4468 -60.1141C-49.0095 76.7978 -51.3443 301.959 183.817 107.307C477.77 -136.007 591.102 -161.739 678.855 -75.7488C749.057 -6.95623 880.201 -47.0852 936.998 -75.7488" stroke="url(#paint0_linear_23_63)"/>
<path d="M-18.4547 -39.4266C-49.0173 97.4853 -51.3521 322.646 183.81 127.995C477.762 -115.32 591.094 -141.052 678.847 -55.0613C749.049 13.7313 880.193 -26.3977 936.99 -55.0613" stroke="url(#paint1_linear_23_63)"/>
<path d="M-18.4566 -18.7391C-49.0192 118.173 -51.3541 343.334 183.808 148.682C477.76 -94.6324 591.092 -120.364 678.845 -34.3738C749.047 34.4188 880.191 -5.71021 936.988 -34.3738" stroke="url(#paint2_linear_23_63)"/>
<path d="M-18.4625 1.94059C-49.0251 138.852 -51.3599 364.013 183.802 169.362C477.754 -73.9527 591.086 -99.6847 678.839 -13.6941C749.041 55.0985 880.185 14.9695 936.982 -13.6941" stroke="url(#paint3_linear_23_63)"/>
<path d="M-18.4664 22.6281C-49.029 159.54 -51.3638 384.701 183.798 190.049C477.75 -53.2652 591.082 -78.9972 678.835 6.99342C749.037 75.786 880.181 35.657 936.978 6.99342" stroke="url(#paint4_linear_23_63)"/>
<path d="M-18.4703 43.3078C-49.0329 180.22 -51.3677 405.381 183.794 210.729C477.746 -32.5855 591.079 -58.3176 678.831 27.6731C749.034 96.4656 880.177 56.3367 936.974 27.6731" stroke="url(#paint5_linear_23_63)"/>
<path d="M-18.4761 64.0031C-49.0388 200.915 -51.3736 426.076 183.788 231.424C477.74 -11.8902 591.073 -37.6222 678.825 48.3684C749.028 117.161 880.172 77.032 936.968 48.3684" stroke="url(#paint6_linear_23_63)"/>
<path d="M-18.482 84.6828C-49.0446 221.595 -51.3795 446.756 183.782 252.104C477.735 8.78949 591.067 -16.9426 678.82 69.0481C749.022 137.841 880.166 97.7117 936.962 69.0481" stroke="url(#paint7_linear_23_63)"/>
<path d="M-18.484 105.362C-49.0466 242.274 -51.3814 467.435 183.78 272.784C477.733 29.4692 591.065 3.73713 678.818 89.7278C749.02 158.52 880.164 118.391 936.96 89.7278" stroke="url(#paint8_linear_23_63)"/>
<path d="M-18.4898 126.058C-49.0524 262.97 -51.3873 488.131 183.774 293.479C477.727 50.1645 591.059 24.4324 678.812 110.423C749.014 179.216 880.158 139.087 936.955 110.423" stroke="url(#paint9_linear_23_63)"/>
<path d="M-18.4918 146.737C-49.0544 283.649 -51.3892 508.81 183.773 314.159C477.725 70.8442 591.057 45.1121 678.81 131.103C749.012 199.895 880.156 159.766 936.953 131.103" stroke="url(#paint10_linear_23_63)"/>
<path d="M-18.4996 167.433C-49.0622 304.345 -51.397 529.506 183.765 334.854C477.717 91.5395 591.049 65.8074 678.802 151.798C749.004 220.591 880.148 180.462 936.945 151.798" stroke="url(#paint11_linear_23_63)"/>
<path d="M-18.5054 188.112C-49.0681 325.024 -51.4029 550.185 183.759 355.534C477.711 112.219 591.043 86.4871 678.796 172.478C748.998 241.27 880.142 201.141 936.939 172.478" stroke="url(#paint12_linear_23_63)"/>
<path d="M-18.5093 208.8C-49.072 345.712 -51.4068 570.873 183.755 376.221C477.707 132.907 591.039 107.175 678.792 193.165C748.994 261.958 880.138 221.829 936.935 193.165" stroke="url(#paint13_linear_23_63)"/>
<path d="M-18.5113 229.48C-49.0739 366.392 -51.4088 591.552 183.753 396.901C477.705 153.586 591.037 127.854 678.79 213.845C748.993 282.638 880.136 242.509 936.933 213.845" stroke="url(#paint14_linear_23_63)"/>
<path d="M-18.5191 250.167C-49.0817 387.079 -51.4166 612.24 183.745 417.588C477.697 174.274 591.03 148.542 678.782 234.532C748.985 303.325 880.129 263.196 936.925 234.532" stroke="url(#paint15_linear_23_63)"/>
<path d="M-18.5211 270.847C-49.0837 407.759 -51.4185 632.92 183.743 438.268C477.695 194.954 591.028 169.222 678.781 255.212C748.983 324.005 880.127 283.876 936.923 255.212" stroke="url(#paint16_linear_23_63)"/>
<path d="M-18.5289 291.534C-49.0915 428.446 -51.4263 653.607 183.735 458.956C477.688 215.641 591.02 189.909 678.773 275.9C748.975 344.692 880.119 304.563 936.916 275.9" stroke="url(#paint17_linear_23_63)"/>
<path d="M-18.5308 312.222C-49.0935 449.134 -51.4283 674.295 183.733 479.643C477.686 236.329 591.018 210.597 678.771 296.587C748.973 365.38 880.117 325.251 936.914 296.587" stroke="url(#paint18_linear_23_63)"/>
<path d="M-18.5367 332.909C-49.0993 469.821 -51.4341 694.982 183.728 500.331C477.68 257.016 591.012 231.284 678.765 317.275C748.967 386.067 880.111 345.938 936.908 317.275" stroke="url(#paint19_linear_23_63)"/>
</g>
</g>
<defs>
<linearGradient id="paint0_linear_23_63" x1="452.044" y1="183.228" x2="403.014" y2="-62.8341" gradientUnits="userSpaceOnUse">
<stop stop-color="#01A561"/>
<stop offset="0.820894" stop-color="#394FC2"/>
</linearGradient>
<linearGradient id="paint1_linear_23_63" x1="452.036" y1="203.916" x2="403.006" y2="-42.1466" gradientUnits="userSpaceOnUse">
<stop stop-color="#01A561"/>
<stop offset="0.820894" stop-color="#394FC2"/>
</linearGradient>
<linearGradient id="paint2_linear_23_63" x1="452.034" y1="224.603" x2="403.004" y2="-21.4591" gradientUnits="userSpaceOnUse">
<stop stop-color="#01A561"/>
<stop offset="0.820894" stop-color="#394FC2"/>
</linearGradient>
<linearGradient id="paint3_linear_23_63" x1="452.028" y1="245.283" x2="402.998" y2="-0.779372" gradientUnits="userSpaceOnUse">
<stop stop-color="#01A561"/>
<stop offset="0.820894" stop-color="#394FC2"/>
</linearGradient>
<linearGradient id="paint4_linear_23_63" x1="452.024" y1="265.971" x2="402.994" y2="19.9081" gradientUnits="userSpaceOnUse">
<stop stop-color="#01A561"/>
<stop offset="0.820894" stop-color="#394FC2"/>
</linearGradient>
<linearGradient id="paint5_linear_23_63" x1="452.02" y1="286.65" x2="402.991" y2="40.5878" gradientUnits="userSpaceOnUse">
<stop stop-color="#01A561"/>
<stop offset="0.820894" stop-color="#394FC2"/>
</linearGradient>
<linearGradient id="paint6_linear_23_63" x1="452.014" y1="307.346" x2="402.985" y2="61.2831" gradientUnits="userSpaceOnUse">
<stop stop-color="#01A561"/>
<stop offset="0.820894" stop-color="#394FC2"/>
</linearGradient>
<linearGradient id="paint7_linear_23_63" x1="452.009" y1="328.025" x2="402.979" y2="81.9628" gradientUnits="userSpaceOnUse">
<stop stop-color="#01A561"/>
<stop offset="0.820894" stop-color="#394FC2"/>
</linearGradient>
<linearGradient id="paint8_linear_23_63" x1="452.007" y1="348.705" x2="402.977" y2="102.643" gradientUnits="userSpaceOnUse">
<stop stop-color="#01A561"/>
<stop offset="0.820894" stop-color="#394FC2"/>
</linearGradient>
<linearGradient id="paint9_linear_23_63" x1="452.001" y1="369.4" x2="402.971" y2="123.338" gradientUnits="userSpaceOnUse">
<stop stop-color="#01A561"/>
<stop offset="0.820894" stop-color="#394FC2"/>
</linearGradient>
<linearGradient id="paint10_linear_23_63" x1="451.999" y1="390.08" x2="402.969" y2="144.018" gradientUnits="userSpaceOnUse">
<stop stop-color="#01A561"/>
<stop offset="0.820894" stop-color="#394FC2"/>
</linearGradient>
<linearGradient id="paint11_linear_23_63" x1="451.991" y1="410.775" x2="402.961" y2="164.713" gradientUnits="userSpaceOnUse">
<stop stop-color="#01A561"/>
<stop offset="0.820894" stop-color="#394FC2"/>
</linearGradient>
<linearGradient id="paint12_linear_23_63" x1="451.985" y1="431.455" x2="402.955" y2="185.393" gradientUnits="userSpaceOnUse">
<stop stop-color="#01A561"/>
<stop offset="0.820894" stop-color="#394FC2"/>
</linearGradient>
<linearGradient id="paint13_linear_23_63" x1="451.981" y1="452.143" x2="402.951" y2="206.08" gradientUnits="userSpaceOnUse">
<stop stop-color="#01A561"/>
<stop offset="0.820894" stop-color="#394FC2"/>
</linearGradient>
<linearGradient id="paint14_linear_23_63" x1="451.979" y1="472.822" x2="402.95" y2="226.76" gradientUnits="userSpaceOnUse">
<stop stop-color="#01A561"/>
<stop offset="0.820894" stop-color="#394FC2"/>
</linearGradient>
<linearGradient id="paint15_linear_23_63" x1="451.971" y1="493.51" x2="402.942" y2="247.447" gradientUnits="userSpaceOnUse">
<stop stop-color="#01A561"/>
<stop offset="0.820894" stop-color="#394FC2"/>
</linearGradient>
<linearGradient id="paint16_linear_23_63" x1="451.969" y1="514.189" x2="402.94" y2="268.127" gradientUnits="userSpaceOnUse">
<stop stop-color="#01A561"/>
<stop offset="0.820894" stop-color="#394FC2"/>
</linearGradient>
<linearGradient id="paint17_linear_23_63" x1="451.962" y1="534.877" x2="402.932" y2="288.814" gradientUnits="userSpaceOnUse">
<stop stop-color="#01A561"/>
<stop offset="0.820894" stop-color="#394FC2"/>
</linearGradient>
<linearGradient id="paint18_linear_23_63" x1="451.96" y1="555.564" x2="402.93" y2="309.502" gradientUnits="userSpaceOnUse">
<stop stop-color="#01A561"/>
<stop offset="0.820894" stop-color="#394FC2"/>
</linearGradient>
<linearGradient id="paint19_linear_23_63" x1="451.954" y1="576.252" x2="402.924" y2="330.189" gradientUnits="userSpaceOnUse">
<stop stop-color="#01A561"/>
<stop offset="0.820894" stop-color="#394FC2"/>
</linearGradient>
<clipPath id="clip0_23_63">
<rect width="328" height="452" fill="white"/>
</clipPath>
</defs>
</svg>
