<svg width="300" height="240" viewBox="0 0 300 240" fill="none" xmlns="http://www.w3.org/2000/svg">
<g opacity="0.1">
<g clip-path="url(#clip0_8_65)">
<path d="M883.596 384.666C911.92 216.816 914.084 -59.2238 696.151 179.413C423.735 477.709 318.706 509.255 237.382 403.834C172.324 319.496 50.7879 368.693 -1.84756 403.834" stroke="white" stroke-width="0.603658"/>
<path d="M883.596 359.312C911.92 191.463 914.084 -84.5773 696.151 154.059C423.735 452.355 318.706 483.902 237.382 378.48C172.324 294.143 50.7879 343.339 -1.84756 378.48" stroke="white" stroke-width="0.603658"/>
<path d="M883.596 333.959C911.92 166.109 914.084 -109.931 696.151 128.706C423.735 427.002 318.706 458.548 237.382 353.127C172.324 268.789 50.7879 317.986 -1.84756 353.126" stroke="white" stroke-width="0.603658"/>
<path d="M883.596 308.605C911.92 140.756 914.084 -135.284 696.151 103.352C423.735 401.648 318.706 433.195 237.382 327.773C172.324 243.436 50.7879 292.632 -1.84756 327.773" stroke="white" stroke-width="0.603658"/>
<path d="M883.596 283.25C911.92 115.4 914.084 -160.64 696.151 77.9969C423.735 376.293 318.706 407.839 237.382 302.418C172.324 218.08 50.7879 267.277 -1.84756 302.418" stroke="white" stroke-width="0.603658"/>
<path d="M883.596 257.896C911.92 90.0468 914.084 -185.993 696.151 52.6434C423.735 350.939 318.706 382.486 237.382 277.064C172.324 192.727 50.7879 241.923 -1.84756 277.064" stroke="white" stroke-width="0.603658"/>
<path d="M883.596 232.543C911.92 64.6933 914.084 -211.347 696.151 27.2898C423.735 325.586 318.706 357.132 237.382 251.71C172.324 167.373 50.7879 216.57 -1.84756 251.71" stroke="white" stroke-width="0.603658"/>
<path d="M883.596 207.189C911.92 39.3398 914.084 -236.7 696.151 1.93632C423.735 300.232 318.706 331.779 237.382 226.357C172.324 142.02 50.7879 191.216 -1.84756 226.357" stroke="white" stroke-width="0.603658"/>
<path d="M883.596 181.836C911.92 13.9863 914.084 -262.054 696.151 -23.4172C423.735 274.879 318.706 306.425 237.382 201.003C172.324 116.666 50.7879 165.863 -1.84756 201.003" stroke="white" stroke-width="0.603658"/>
<path d="M883.596 156.48C911.92 -11.3692 914.084 -287.409 696.151 -48.7727C423.735 249.523 318.706 281.07 237.382 175.648C172.324 91.3105 50.7879 140.507 -1.84756 175.648" stroke="white" stroke-width="0.603658"/>
<path d="M883.596 131.129C911.92 -36.7208 914.084 -312.761 696.151 -74.1242C423.735 224.172 318.706 255.718 237.382 150.296C172.324 65.959 50.7879 115.156 -1.84756 150.296" stroke="white" stroke-width="0.603658"/>
<path d="M883.596 105.775C911.92 -62.0743 914.084 -338.114 696.151 -99.4777C423.735 198.818 318.706 230.365 237.382 124.943C172.324 40.6054 50.7879 89.8023 -1.84756 124.943" stroke="white" stroke-width="0.603658"/>
<path d="M883.596 80.4219C911.92 -87.4278 914.084 -363.468 696.151 -124.831C423.735 173.465 318.706 205.011 237.382 99.5894C172.324 15.2519 50.7879 64.4488 -1.84756 99.5894" stroke="white" stroke-width="0.603658"/>
<path d="M883.596 55.0664C911.92 -112.783 914.084 -388.823 696.151 -150.187C423.735 148.109 318.706 179.656 237.382 74.2339C172.324 -10.1035 50.7879 39.0933 -1.84756 74.2339" stroke="white" stroke-width="0.603658"/>
<path d="M883.596 29.7148C911.92 -138.135 914.084 -414.175 696.151 -175.538C423.735 122.758 318.706 154.304 237.382 48.8824C172.324 -35.4551 50.7879 13.7417 -1.84756 48.8823" stroke="white" stroke-width="0.603658"/>
<path d="M883.596 4.3613C911.92 -163.488 914.084 -439.528 696.151 -200.892C423.735 97.404 318.706 128.951 237.382 23.5289C172.324 -60.8086 50.7879 -11.6118 -1.84756 23.5288" stroke="white" stroke-width="0.603658"/>
<path d="M883.596 -20.9922C911.92 -188.842 914.084 -464.882 696.151 -226.245C423.735 72.0505 318.706 103.597 237.382 -1.82466C172.324 -86.1621 50.7879 -36.9653 -1.84756 -1.82468" stroke="white" stroke-width="0.603658"/>
<path d="M883.596 -46.3477C911.92 -214.197 914.084 -490.237 696.151 -251.601C423.735 46.695 318.706 78.2417 237.382 -27.1801C172.324 -111.518 50.7879 -62.3208 -1.84756 -27.1802" stroke="white" stroke-width="0.603658"/>
<path d="M883.596 -71.6992C911.92 -239.549 914.084 -515.589 696.151 -276.952C423.735 21.3435 318.706 52.8901 237.382 -52.5317C172.324 -136.869 50.7879 -87.6723 -1.84756 -52.5317" stroke="white" stroke-width="0.603658"/>
</g>
</g>
<defs>
<clipPath id="clip0_8_65">
<rect x="300" y="240" width="300" height="240" rx="16" transform="rotate(-180 300 240)" fill="white"/>
</clipPath>
</defs>
</svg>
