<svg width="46" height="47" viewBox="0 0 46 47" fill="none" xmlns="http://www.w3.org/2000/svg">
<mask id="path-1-inside-1_6_62" fill="white">
<path fill-rule="evenodd" clip-rule="evenodd" d="M14.9192 1C14.8098 1 14.7004 1.00124 14.5912 1.0037C12.7437 1.04545 10.9189 1.43962 9.20984 2.16715C7.39977 2.9377 5.75509 4.06711 4.36972 5.4909C2.98435 6.91469 1.88541 8.60498 1.13565 10.4653C0.385895 12.3255 8.56407e-08 14.3194 0 16.3329C-8.56395e-08 18.3464 0.385894 20.3403 1.13565 22.2005C1.88541 24.0608 2.98435 25.7511 4.36972 27.1749C5.75509 28.5987 7.39977 29.7281 9.20984 30.4987C10.9189 31.2262 12.7437 31.6203 14.5912 31.6621C14.7004 31.6646 14.8098 31.6658 14.9192 31.6658L14.9192 1ZM14.5912 31.3334C12.7879 31.2918 11.0067 30.9066 9.33811 30.1963C7.56842 29.4429 5.95988 28.3384 4.60457 26.9456C3.24924 25.5526 2.17371 23.8986 1.43977 22.0775C0.705827 20.2565 0.327971 18.3044 0.327971 16.3329C0.327971 14.3614 0.705826 12.4093 1.43977 10.5883C2.17371 8.76725 3.24924 7.11316 4.60457 5.72025C5.95989 4.32735 7.56842 3.2229 9.33811 2.46954C11.0067 1.75923 12.7879 1.37405 14.5912 1.33236L14.5912 31.3334Z"/>
<path fill-rule="evenodd" clip-rule="evenodd" d="M1.24304 31.6671C1.24304 31.7767 1.24418 31.8862 1.24647 31.9957C1.28612 33.8973 1.66974 35.7757 2.37869 37.5347C3.12845 39.395 4.22739 41.0853 5.61276 42.5091C6.99813 43.9329 8.64281 45.0623 10.4529 45.8329C12.263 46.6034 14.203 47 16.1622 47C18.1214 47 20.0614 46.6034 21.8715 45.8329C23.6816 45.0623 25.3263 43.9329 26.7116 42.5091C28.097 41.0853 29.1959 39.395 29.9457 37.5347C30.6547 35.7757 31.0383 33.8973 31.0779 31.9957C31.0793 31.9288 31.0803 31.8618 31.0808 31.7949V46.9984C31.1902 46.9984 31.2996 46.9972 31.4088 46.9947C33.2563 46.953 35.0811 46.5588 36.7902 45.8313C38.6002 45.0607 40.2449 43.9313 41.6303 42.5075C43.0157 41.0837 44.1146 39.3935 44.8643 37.5332C45.6141 35.6729 46 33.6791 46 31.6655C46 29.652 45.6141 27.6582 44.8643 25.7979C44.1146 23.9376 43.0157 22.2473 41.6303 20.8235C40.2449 19.3998 38.6002 18.2703 36.7902 17.4998C35.0811 16.7723 33.2563 16.3781 31.4088 16.3363C31.3536 16.3351 31.2983 16.3342 31.243 16.3335L44.7579 16.3335C44.7579 16.224 44.7568 16.1144 44.7545 16.005C44.7148 14.1034 44.3312 12.2249 43.6223 10.4659C42.8725 8.60563 41.7736 6.91534 40.3882 5.49155C39.0028 4.06776 37.3582 2.93834 35.5481 2.16779C33.738 1.39724 31.798 1.00065 29.8388 1.00065C27.8796 1.00065 25.9395 1.39724 24.1294 2.16779C22.3194 2.93834 20.6747 4.06776 19.2893 5.49155C17.904 6.91534 16.805 8.60562 16.0553 10.4659C15.3463 12.2249 14.9627 14.1034 14.923 16.005C14.9207 16.1144 14.9196 16.224 14.9196 16.3335L31.0808 16.3335V31.6671L1.24304 31.6671ZM30.7499 31.9957C30.7103 33.8552 30.3347 35.6919 29.6416 37.4117C28.9077 39.2327 27.8321 40.8868 26.4768 42.2797C25.1215 43.6726 23.5129 44.7771 21.7433 45.5305C19.9736 46.2838 18.0772 46.6714 16.1622 46.6714C14.2472 46.6714 12.3508 46.2838 10.5811 45.5305C8.81146 44.7771 7.20293 43.6726 5.84761 42.2797C4.49228 40.8868 3.41675 39.2327 2.68281 37.4117C1.98966 35.6919 1.61412 33.8552 1.57451 31.9957L30.7499 31.9957ZM16.3594 10.5889C15.6662 12.3087 15.2907 14.1454 15.2511 16.005L44.4265 16.005C44.3868 14.1454 44.0113 12.3087 43.3181 10.5889C42.5842 8.7679 41.5087 7.11381 40.1534 5.7209C38.798 4.328 37.1895 3.22355 35.4198 2.47019C33.6501 1.71684 31.7537 1.32921 29.8388 1.32921C27.9238 1.32921 26.0274 1.71684 24.2577 2.47019C22.488 3.22355 20.8795 4.328 19.5242 5.72089C18.1688 7.11381 17.0933 8.76789 16.3594 10.5889ZM31.4088 16.665C33.2121 16.7067 34.9933 17.0919 36.6619 17.8022C38.4316 18.5555 40.0401 19.66 41.3954 21.0529C42.7508 22.4458 43.8263 24.0999 44.5602 25.9209C45.2942 27.7419 45.672 29.694 45.672 31.6655C45.672 33.6371 45.2942 35.5891 44.5602 37.4102C43.8263 39.2312 42.7508 40.8853 41.3954 42.2782C40.0401 43.6711 38.4316 44.7755 36.6619 45.5289C34.9933 46.2392 33.2121 46.6244 31.4088 46.6661V16.665Z"/>
<path d="M31 31C31 35.2435 29.4196 39.3131 26.6066 42.3137C23.7936 45.3143 19.9782 47 16 47C12.0218 47 8.20645 45.3143 5.3934 42.3137C2.58035 39.3131 1 35.2435 1 31L31 31Z"/>
<path d="M15 17C15 12.7565 16.5804 8.68687 19.3934 5.68629C22.2064 2.68571 26.0218 1 30 1C33.9782 1 37.7936 2.68571 40.6066 5.68629C43.4196 8.68687 45 12.7565 45 17H15Z"/>
<path d="M15.5 32C11.3891 32 7.44666 30.367 4.53985 27.4602C1.63303 24.5533 5.44218e-07 20.6109 1.84835e-07 16.5C-1.74547e-07 12.3891 1.63303 8.44666 4.53984 5.53985C7.44666 2.63303 11.3891 1 15.5 1L15.5 32Z"/>
<path d="M30.5 16C34.6109 16 38.5533 17.633 41.4602 20.5398C44.367 23.4467 46 27.3891 46 31.5C46 35.6109 44.367 39.5533 41.4602 42.4602C38.5533 45.367 34.6109 47 30.5 47L30.5 16Z"/>
<path d="M15.5 31C11.3891 31 7.44666 29.367 4.53985 26.4602C1.63303 23.5533 5.44218e-07 19.6109 1.84835e-07 15.5C-1.74547e-07 11.3891 1.63303 7.44666 4.53984 4.53985C7.44666 1.63303 11.3891 6.69743e-07 15.5 0L15.5 31Z"/>
</mask>
<path fill-rule="evenodd" clip-rule="evenodd" d="M14.9192 1C14.8098 1 14.7004 1.00124 14.5912 1.0037C12.7437 1.04545 10.9189 1.43962 9.20984 2.16715C7.39977 2.9377 5.75509 4.06711 4.36972 5.4909C2.98435 6.91469 1.88541 8.60498 1.13565 10.4653C0.385895 12.3255 8.56407e-08 14.3194 0 16.3329C-8.56395e-08 18.3464 0.385894 20.3403 1.13565 22.2005C1.88541 24.0608 2.98435 25.7511 4.36972 27.1749C5.75509 28.5987 7.39977 29.7281 9.20984 30.4987C10.9189 31.2262 12.7437 31.6203 14.5912 31.6621C14.7004 31.6646 14.8098 31.6658 14.9192 31.6658L14.9192 1ZM14.5912 31.3334C12.7879 31.2918 11.0067 30.9066 9.33811 30.1963C7.56842 29.4429 5.95988 28.3384 4.60457 26.9456C3.24924 25.5526 2.17371 23.8986 1.43977 22.0775C0.705827 20.2565 0.327971 18.3044 0.327971 16.3329C0.327971 14.3614 0.705826 12.4093 1.43977 10.5883C2.17371 8.76725 3.24924 7.11316 4.60457 5.72025C5.95989 4.32735 7.56842 3.2229 9.33811 2.46954C11.0067 1.75923 12.7879 1.37405 14.5912 1.33236L14.5912 31.3334Z" fill="#394FC2"/>
<path fill-rule="evenodd" clip-rule="evenodd" d="M1.24304 31.6671C1.24304 31.7767 1.24418 31.8862 1.24647 31.9957C1.28612 33.8973 1.66974 35.7757 2.37869 37.5347C3.12845 39.395 4.22739 41.0853 5.61276 42.5091C6.99813 43.9329 8.64281 45.0623 10.4529 45.8329C12.263 46.6034 14.203 47 16.1622 47C18.1214 47 20.0614 46.6034 21.8715 45.8329C23.6816 45.0623 25.3263 43.9329 26.7116 42.5091C28.097 41.0853 29.1959 39.395 29.9457 37.5347C30.6547 35.7757 31.0383 33.8973 31.0779 31.9957C31.0793 31.9288 31.0803 31.8618 31.0808 31.7949V46.9984C31.1902 46.9984 31.2996 46.9972 31.4088 46.9947C33.2563 46.953 35.0811 46.5588 36.7902 45.8313C38.6002 45.0607 40.2449 43.9313 41.6303 42.5075C43.0157 41.0837 44.1146 39.3935 44.8643 37.5332C45.6141 35.6729 46 33.6791 46 31.6655C46 29.652 45.6141 27.6582 44.8643 25.7979C44.1146 23.9376 43.0157 22.2473 41.6303 20.8235C40.2449 19.3998 38.6002 18.2703 36.7902 17.4998C35.0811 16.7723 33.2563 16.3781 31.4088 16.3363C31.3536 16.3351 31.2983 16.3342 31.243 16.3335L44.7579 16.3335C44.7579 16.224 44.7568 16.1144 44.7545 16.005C44.7148 14.1034 44.3312 12.2249 43.6223 10.4659C42.8725 8.60563 41.7736 6.91534 40.3882 5.49155C39.0028 4.06776 37.3582 2.93834 35.5481 2.16779C33.738 1.39724 31.798 1.00065 29.8388 1.00065C27.8796 1.00065 25.9395 1.39724 24.1294 2.16779C22.3194 2.93834 20.6747 4.06776 19.2893 5.49155C17.904 6.91534 16.805 8.60562 16.0553 10.4659C15.3463 12.2249 14.9627 14.1034 14.923 16.005C14.9207 16.1144 14.9196 16.224 14.9196 16.3335L31.0808 16.3335V31.6671L1.24304 31.6671ZM30.7499 31.9957C30.7103 33.8552 30.3347 35.6919 29.6416 37.4117C28.9077 39.2327 27.8321 40.8868 26.4768 42.2797C25.1215 43.6726 23.5129 44.7771 21.7433 45.5305C19.9736 46.2838 18.0772 46.6714 16.1622 46.6714C14.2472 46.6714 12.3508 46.2838 10.5811 45.5305C8.81146 44.7771 7.20293 43.6726 5.84761 42.2797C4.49228 40.8868 3.41675 39.2327 2.68281 37.4117C1.98966 35.6919 1.61412 33.8552 1.57451 31.9957L30.7499 31.9957ZM16.3594 10.5889C15.6662 12.3087 15.2907 14.1454 15.2511 16.005L44.4265 16.005C44.3868 14.1454 44.0113 12.3087 43.3181 10.5889C42.5842 8.7679 41.5087 7.11381 40.1534 5.7209C38.798 4.328 37.1895 3.22355 35.4198 2.47019C33.6501 1.71684 31.7537 1.32921 29.8388 1.32921C27.9238 1.32921 26.0274 1.71684 24.2577 2.47019C22.488 3.22355 20.8795 4.328 19.5242 5.72089C18.1688 7.11381 17.0933 8.76789 16.3594 10.5889ZM31.4088 16.665C33.2121 16.7067 34.9933 17.0919 36.6619 17.8022C38.4316 18.5555 40.0401 19.66 41.3954 21.0529C42.7508 22.4458 43.8263 24.0999 44.5602 25.9209C45.2942 27.7419 45.672 29.694 45.672 31.6655C45.672 33.6371 45.2942 35.5891 44.5602 37.4102C43.8263 39.2312 42.7508 40.8853 41.3954 42.2782C40.0401 43.6711 38.4316 44.7755 36.6619 45.5289C34.9933 46.2392 33.2121 46.6244 31.4088 46.6661V16.665Z" fill="#394FC2"/>
<path d="M15.5 31C11.3891 31 7.44666 29.367 4.53985 26.4602C1.63303 23.5533 5.44218e-07 19.6109 1.84835e-07 15.5C-1.74547e-07 11.3891 1.63303 7.44666 4.53984 4.53985C7.44666 1.63303 11.3891 6.69743e-07 15.5 0L15.5 31Z" fill="#394FC2"/>
<path fill-rule="evenodd" clip-rule="evenodd" d="M14.9192 1C14.8098 1 14.7004 1.00124 14.5912 1.0037C12.7437 1.04545 10.9189 1.43962 9.20984 2.16715C7.39977 2.9377 5.75509 4.06711 4.36972 5.4909C2.98435 6.91469 1.88541 8.60498 1.13565 10.4653C0.385895 12.3255 8.56407e-08 14.3194 0 16.3329C-8.56395e-08 18.3464 0.385894 20.3403 1.13565 22.2005C1.88541 24.0608 2.98435 25.7511 4.36972 27.1749C5.75509 28.5987 7.39977 29.7281 9.20984 30.4987C10.9189 31.2262 12.7437 31.6203 14.5912 31.6621C14.7004 31.6646 14.8098 31.6658 14.9192 31.6658L14.9192 1ZM14.5912 31.3334C12.7879 31.2918 11.0067 30.9066 9.33811 30.1963C7.56842 29.4429 5.95988 28.3384 4.60457 26.9456C3.24924 25.5526 2.17371 23.8986 1.43977 22.0775C0.705827 20.2565 0.327971 18.3044 0.327971 16.3329C0.327971 14.3614 0.705826 12.4093 1.43977 10.5883C2.17371 8.76725 3.24924 7.11316 4.60457 5.72025C5.95989 4.32735 7.56842 3.2229 9.33811 2.46954C11.0067 1.75923 12.7879 1.37405 14.5912 1.33236L14.5912 31.3334Z" stroke="#394FC2" stroke-width="2" mask="url(#path-1-inside-1_6_62)"/>
<path fill-rule="evenodd" clip-rule="evenodd" d="M1.24304 31.6671C1.24304 31.7767 1.24418 31.8862 1.24647 31.9957C1.28612 33.8973 1.66974 35.7757 2.37869 37.5347C3.12845 39.395 4.22739 41.0853 5.61276 42.5091C6.99813 43.9329 8.64281 45.0623 10.4529 45.8329C12.263 46.6034 14.203 47 16.1622 47C18.1214 47 20.0614 46.6034 21.8715 45.8329C23.6816 45.0623 25.3263 43.9329 26.7116 42.5091C28.097 41.0853 29.1959 39.395 29.9457 37.5347C30.6547 35.7757 31.0383 33.8973 31.0779 31.9957C31.0793 31.9288 31.0803 31.8618 31.0808 31.7949V46.9984C31.1902 46.9984 31.2996 46.9972 31.4088 46.9947C33.2563 46.953 35.0811 46.5588 36.7902 45.8313C38.6002 45.0607 40.2449 43.9313 41.6303 42.5075C43.0157 41.0837 44.1146 39.3935 44.8643 37.5332C45.6141 35.6729 46 33.6791 46 31.6655C46 29.652 45.6141 27.6582 44.8643 25.7979C44.1146 23.9376 43.0157 22.2473 41.6303 20.8235C40.2449 19.3998 38.6002 18.2703 36.7902 17.4998C35.0811 16.7723 33.2563 16.3781 31.4088 16.3363C31.3536 16.3351 31.2983 16.3342 31.243 16.3335L44.7579 16.3335C44.7579 16.224 44.7568 16.1144 44.7545 16.005C44.7148 14.1034 44.3312 12.2249 43.6223 10.4659C42.8725 8.60563 41.7736 6.91534 40.3882 5.49155C39.0028 4.06776 37.3582 2.93834 35.5481 2.16779C33.738 1.39724 31.798 1.00065 29.8388 1.00065C27.8796 1.00065 25.9395 1.39724 24.1294 2.16779C22.3194 2.93834 20.6747 4.06776 19.2893 5.49155C17.904 6.91534 16.805 8.60562 16.0553 10.4659C15.3463 12.2249 14.9627 14.1034 14.923 16.005C14.9207 16.1144 14.9196 16.224 14.9196 16.3335L31.0808 16.3335V31.6671L1.24304 31.6671ZM30.7499 31.9957C30.7103 33.8552 30.3347 35.6919 29.6416 37.4117C28.9077 39.2327 27.8321 40.8868 26.4768 42.2797C25.1215 43.6726 23.5129 44.7771 21.7433 45.5305C19.9736 46.2838 18.0772 46.6714 16.1622 46.6714C14.2472 46.6714 12.3508 46.2838 10.5811 45.5305C8.81146 44.7771 7.20293 43.6726 5.84761 42.2797C4.49228 40.8868 3.41675 39.2327 2.68281 37.4117C1.98966 35.6919 1.61412 33.8552 1.57451 31.9957L30.7499 31.9957ZM16.3594 10.5889C15.6662 12.3087 15.2907 14.1454 15.2511 16.005L44.4265 16.005C44.3868 14.1454 44.0113 12.3087 43.3181 10.5889C42.5842 8.7679 41.5087 7.11381 40.1534 5.7209C38.798 4.328 37.1895 3.22355 35.4198 2.47019C33.6501 1.71684 31.7537 1.32921 29.8388 1.32921C27.9238 1.32921 26.0274 1.71684 24.2577 2.47019C22.488 3.22355 20.8795 4.328 19.5242 5.72089C18.1688 7.11381 17.0933 8.76789 16.3594 10.5889ZM31.4088 16.665C33.2121 16.7067 34.9933 17.0919 36.6619 17.8022C38.4316 18.5555 40.0401 19.66 41.3954 21.0529C42.7508 22.4458 43.8263 24.0999 44.5602 25.9209C45.2942 27.7419 45.672 29.694 45.672 31.6655C45.672 33.6371 45.2942 35.5891 44.5602 37.4102C43.8263 39.2312 42.7508 40.8853 41.3954 42.2782C40.0401 43.6711 38.4316 44.7755 36.6619 45.5289C34.9933 46.2392 33.2121 46.6244 31.4088 46.6661V16.665Z" stroke="#394FC2" stroke-width="2" mask="url(#path-1-inside-1_6_62)"/>
<path d="M31 31C31 35.2435 29.4196 39.3131 26.6066 42.3137C23.7936 45.3143 19.9782 47 16 47C12.0218 47 8.20645 45.3143 5.3934 42.3137C2.58035 39.3131 1 35.2435 1 31L31 31Z" stroke="#394FC2" stroke-width="2" mask="url(#path-1-inside-1_6_62)"/>
<path d="M15 17C15 12.7565 16.5804 8.68687 19.3934 5.68629C22.2064 2.68571 26.0218 1 30 1C33.9782 1 37.7936 2.68571 40.6066 5.68629C43.4196 8.68687 45 12.7565 45 17H15Z" stroke="#394FC2" stroke-width="2" mask="url(#path-1-inside-1_6_62)"/>
<path d="M15.5 32C11.3891 32 7.44666 30.367 4.53985 27.4602C1.63303 24.5533 5.44218e-07 20.6109 1.84835e-07 16.5C-1.74547e-07 12.3891 1.63303 8.44666 4.53984 5.53985C7.44666 2.63303 11.3891 1 15.5 1L15.5 32Z" stroke="#394FC2" stroke-width="2" mask="url(#path-1-inside-1_6_62)"/>
<path d="M30.5 16C34.6109 16 38.5533 17.633 41.4602 20.5398C44.367 23.4467 46 27.3891 46 31.5C46 35.6109 44.367 39.5533 41.4602 42.4602C38.5533 45.367 34.6109 47 30.5 47L30.5 16Z" stroke="#394FC2" stroke-width="2" mask="url(#path-1-inside-1_6_62)"/>
<path d="M15.5 31C11.3891 31 7.44666 29.367 4.53985 26.4602C1.63303 23.5533 5.44218e-07 19.6109 1.84835e-07 15.5C-1.74547e-07 11.3891 1.63303 7.44666 4.53984 4.53985C7.44666 1.63303 11.3891 6.69743e-07 15.5 0L15.5 31Z" stroke="#394FC2" stroke-width="2" mask="url(#path-1-inside-1_6_62)"/>
</svg>
