<svg width="46" height="46" viewBox="0 0 46 46" fill="none" xmlns="http://www.w3.org/2000/svg">
<path fill-rule="evenodd" clip-rule="evenodd" d="M10.0228 30C7.98393 29.2298 6.11067 28.031 4.53985 26.4602C1.63303 23.5533 0 19.6109 0 15.5C0 11.3891 1.63303 7.44666 4.53984 4.53985C7.44666 1.63303 11.3891 0 15.5 0L15.5 11.9032C16.1722 9.19639 17.5051 6.70048 19.3934 4.68629C22.2064 1.68571 26.0218 0 30 0C33.9782 0 37.7936 1.68571 40.6066 4.68629C43.4196 7.68687 45 11.7565 45 16L35.9772 16C38.0161 16.7702 39.8893 17.969 41.4602 19.5398C44.367 22.4467 46 26.3891 46 30.5C46 34.6109 44.367 38.5533 41.4602 41.4602C38.7899 44.1304 35.2458 45.7257 31.5 45.9677C31.1681 45.9892 30.8346 46 30.5 46L30.5 34.0968C29.8278 36.8036 28.4949 39.2995 26.6066 41.3137C23.7936 44.3143 19.9782 46 16 46C12.0218 46 8.20644 44.3143 5.3934 41.3137C2.80214 38.5497 1.25686 34.8785 1.0293 31C1.00982 30.668 1 30.3346 1 30L10.0228 30ZM2.03112 31L29.9689 31C29.7426 34.6313 28.2899 38.0561 25.8771 40.6298C23.2458 43.4364 19.6914 45 16 45C12.3086 45 8.75416 43.4364 6.12294 40.6298C3.71011 38.0561 2.25744 34.6313 2.03112 31ZM30.5 30V16L15.5 16V30H30.5ZM31.5 16.0345C34.9803 16.275 38.2704 17.7643 40.753 20.247C43.4723 22.9662 45 26.6544 45 30.5C45 34.3456 43.4723 38.0338 40.7531 40.753C38.2704 43.2357 34.9803 44.725 31.5 44.9655L31.5 16.0345Z" fill="#394FC2"/>
</svg>
