<svg width="46" height="46" viewBox="0 0 46 46" fill="none" xmlns="http://www.w3.org/2000/svg">
<path fill-rule="evenodd" clip-rule="evenodd" d="M10.6694 30C8.49903 29.2298 6.50491 28.031 4.83274 26.4602C1.73839 23.5533 0 19.6109 0 15.5C0 11.3891 1.73839 7.44666 4.83274 4.53984C7.92709 1.63303 12.1239 0 16.5 0V5.87274C16.8258 5.4614 17.1727 5.06532 17.5398 4.68629C20.4467 1.68571 24.3891 0 28.5 0C32.6109 0 36.5533 1.68571 39.4602 4.68629C42.367 7.68687 44 11.7565 44 16L35.3306 16C37.501 16.7702 39.4951 17.969 41.1673 19.5398C44.2616 22.4467 46 26.3891 46 30.5C46 34.6109 44.2616 38.5533 41.1673 41.4602C38.0729 44.367 33.8761 46 29.5 46V40.1273C29.1742 40.5386 28.8273 40.9347 28.4602 41.3137C25.5533 44.3143 21.6109 46 17.5 46C13.3891 46 9.44666 44.3143 6.53985 41.3137C3.86221 38.5497 2.26542 34.8785 2.03028 31C2.01015 30.668 2 30.3346 2 30L10.6694 30ZM16.5 16L16.5 30H29.5L29.5 16L16.5 16ZM29.5 31L29.5 38.4199C28.9863 39.2034 28.3987 39.94 27.7419 40.6179C25.02 43.4276 21.3352 45 17.5 45C13.6648 45 9.97999 43.4276 7.25809 40.6179C4.76364 38.043 3.26602 34.6222 3.03223 31L29.5 31Z" fill="#394FC2"/>
</svg>
