<svg width="46" height="46" viewBox="0 0 46 46" fill="none" xmlns="http://www.w3.org/2000/svg">
<path fill-rule="evenodd" clip-rule="evenodd" d="M10.6694 30C8.49903 29.2298 6.5049 28.031 4.83274 26.4602C1.73839 23.5533 0 19.6109 0 15.5C0 11.3891 1.73839 7.44666 4.83274 4.53984C7.92709 1.63303 12.1239 0 16.5 0V5.87274C16.8258 5.4614 17.1727 5.06532 17.5398 4.68629C20.4467 1.68571 24.3891 0 28.5 0C32.6109 0 36.5533 1.68571 39.4602 4.68629C42.367 7.68687 44 11.7565 44 16L35.3306 16C37.501 16.7702 39.4951 17.969 41.1673 19.5398C44.2616 22.4467 46 26.3891 46 30.5C46 34.6109 44.2616 38.5533 41.1673 41.4602C38.0729 44.367 33.8761 46 29.5 46L29.5 36.8667C28.7473 38.5021 27.7241 40.009 26.4602 41.3137C23.5533 44.3143 19.6109 46 15.5 46C11.3891 46 7.44666 44.3143 4.53985 41.3137C1.63303 38.3131 0 34.2435 0 30L10.6694 30ZM16.5 16L16.5 30L29.5 30L29.5 16L16.5 16Z" fill="#394FC2"/>
</svg>
