<svg width="46" height="46" viewBox="0 0 46 46" fill="none" xmlns="http://www.w3.org/2000/svg">
<path fill-rule="evenodd" clip-rule="evenodd" d="M45 16C45 15.6581 44.9897 15.3174 44.9694 14.9783C44.7374 11.1077 43.193 7.44514 40.6066 4.68629C37.7936 1.68571 33.9782 0 30 0C26.0218 0 22.2064 1.68571 19.3934 4.68629C17.5051 6.70048 16.1722 9.19638 15.5 11.9032L15.5 2.13365e-06C11.3891 2.80339e-06 7.44666 1.63303 4.53984 4.53985C1.63303 7.44666 0 11.3891 0 15.5C0 19.6109 1.63303 23.5533 4.53985 26.4602C6.11067 28.031 7.98393 29.2298 10.0228 30L1 30C1 30.3419 1.01026 30.6826 1.03059 31.0217C1.26263 34.8923 2.80698 38.5549 5.3934 41.3137C8.20645 44.3143 12.0218 46 16 46C19.9782 46 23.7936 44.3143 26.6066 41.3137C28.4949 39.2995 29.8278 36.8036 30.5 34.0968L30.5 46C30.8419 46 31.1827 45.9887 31.5217 45.9663C35.2595 45.7195 38.7951 44.1252 41.4602 41.4602C44.367 38.5533 46 34.6109 46 30.5C46 26.3891 44.367 22.4467 41.4602 19.5398C39.8893 17.969 38.0161 16.7702 35.9772 16L45 16ZM16.0543 14.9783C16.285 11.3605 17.7347 7.94951 20.1388 5.3851C22.7661 2.58267 26.3148 1.02174 30 1.02174C33.6852 1.02174 37.2339 2.58268 39.8612 5.3851C42.2653 7.94951 43.715 11.3605 43.9457 14.9783L16.0543 14.9783ZM30.5 16L15.5 16V30H30.5V16ZM29.9457 31.0217C29.715 34.6395 28.2653 38.0505 25.8612 40.6149C23.2339 43.4173 19.6852 44.9783 16 44.9783C12.3148 44.9783 8.76607 43.4173 6.1388 40.6149C3.73466 38.0505 2.28499 34.6395 2.05427 31.0217L29.9457 31.0217ZM31.5217 16.0578C34.9882 16.3029 38.2643 17.789 40.7377 20.2623C43.4529 22.9775 44.9783 26.6601 44.9783 30.5C44.9783 34.3399 43.4529 38.0225 40.7377 40.7377C38.2643 43.211 34.9882 44.6971 31.5217 44.9422L31.5217 16.0578Z" fill="#394FC2"/>
</svg>
