<svg width="48" height="46" viewBox="0 0 48 46" fill="none" xmlns="http://www.w3.org/2000/svg">
<path fill-rule="evenodd" clip-rule="evenodd" d="M15.9192 7.21238e-07C15.8098 7.21238e-07 15.7004 0.00123706 15.5912 0.0037058C13.7437 0.0454532 11.9189 0.43962 10.2098 1.16715C8.39977 1.9377 6.75509 3.06711 5.36972 4.4909C3.98435 5.91469 2.88541 7.60498 2.13565 9.46525C1.3859 11.3255 1 13.3194 1 15.3329C1 17.3464 1.3859 19.3403 2.13565 21.2005C2.88541 23.0608 3.98435 24.7511 5.36972 26.1749C6.75509 27.5987 8.39977 28.7281 10.2098 29.4987C11.9189 30.2262 13.7437 30.6203 15.5912 30.6621C15.7004 30.6646 15.8098 30.6658 15.9192 30.6658L15.9192 7.21238e-07ZM15.5912 30.3334C13.7879 30.2918 12.0067 29.9066 10.3381 29.1963C8.56842 28.4429 6.95988 27.3384 5.60457 25.9456C4.24924 24.5526 3.17371 22.8986 2.43977 21.0775C1.70583 19.2565 1.32797 17.3044 1.32797 15.3329C1.32797 13.3614 1.70583 11.4093 2.43977 9.58827C3.17371 7.76725 4.24924 6.11316 5.60457 4.72025C6.95989 3.32735 8.56842 2.2229 10.3381 1.46955C12.0067 0.75923 13.7879 0.374047 15.5912 0.332358L15.5912 30.3334Z" fill="#394FC2"/>
<path fill-rule="evenodd" clip-rule="evenodd" d="M2.24304 30.6671C2.24304 30.7767 2.24418 30.8862 2.24647 30.9957C2.28612 32.8973 2.66974 34.7757 3.37869 36.5347C4.12845 38.395 5.22739 40.0853 6.61276 41.5091C7.99813 42.9329 9.64281 44.0623 11.4529 44.8329C13.263 45.6034 15.203 46 17.1622 46C19.1214 46 21.0614 45.6034 22.8715 44.8329C24.6816 44.0623 26.3263 42.9329 27.7116 41.5091C29.097 40.0853 30.1959 38.395 30.9457 36.5347C31.6547 34.7757 32.0383 32.8973 32.0779 30.9957C32.0793 30.9288 32.0803 30.8618 32.0808 30.7949V45.9984C32.1902 45.9984 32.2996 45.9972 32.4088 45.9947C34.2563 45.953 36.0811 45.5588 37.7902 44.8313C39.6002 44.0607 41.2449 42.9313 42.6303 41.5075C44.0157 40.0837 45.1146 38.3935 45.8643 36.5332C46.6141 34.6729 47 32.6791 47 30.6655C47 28.652 46.6141 26.6582 45.8643 24.7979C45.1146 22.9376 44.0157 21.2473 42.6303 19.8235C41.2449 18.3998 39.6002 17.2703 37.7902 16.4998C36.0811 15.7723 34.2563 15.3781 32.4088 15.3363C32.3536 15.3351 32.2983 15.3342 32.243 15.3335L45.7579 15.3335C45.7579 15.224 45.7568 15.1144 45.7545 15.005C45.7148 13.1034 45.3312 11.2249 44.6223 9.4659C43.8725 7.60563 42.7736 5.91534 41.3882 4.49155C40.0028 3.06776 38.3582 1.93835 36.5481 1.16779C34.738 0.397244 32.798 0.000647556 30.8388 0.00064738C28.8796 0.000647204 26.9395 0.397244 25.1294 1.16779C23.3194 1.93834 21.6747 3.06776 20.2893 4.49155C18.904 5.91534 17.805 7.60563 17.0553 9.4659C16.3463 11.2249 15.9627 13.1034 15.923 15.005C15.9207 15.1144 15.9196 15.224 15.9196 15.3335L32.0808 15.3335V30.6671L2.24304 30.6671ZM31.7499 30.9957C31.7103 32.8553 31.3347 34.6919 30.6416 36.4117C29.9077 38.2327 28.8321 39.8868 27.4768 41.2798C26.1215 42.6727 24.5129 43.7771 22.7433 44.5305C20.9736 45.2838 19.0772 45.6714 17.1622 45.6714C15.2472 45.6714 13.3508 45.2838 11.5811 44.5305C9.81146 43.7771 8.20293 42.6727 6.84761 41.2798C5.49228 39.8868 4.41675 38.2327 3.68281 36.4117C2.98966 34.6919 2.61412 32.8552 2.57451 30.9957L31.7499 30.9957ZM17.3594 9.58891C16.6662 11.3087 16.2907 13.1454 16.2511 15.005L45.4265 15.005C45.3868 13.1454 45.0113 11.3087 44.3181 9.58892C43.5842 7.7679 42.5087 6.11381 41.1534 4.7209C39.798 3.328 38.1895 2.22355 36.4198 1.47019C34.6501 0.716843 32.7537 0.329214 30.8388 0.329214C28.9238 0.329214 27.0274 0.716843 25.2577 1.47019C23.488 2.22355 21.8795 3.328 20.5242 4.7209C19.1688 6.11381 18.0933 7.76789 17.3594 9.58891ZM32.4088 15.665C34.2121 15.7067 35.9933 16.0919 37.6619 16.8022C39.4316 17.5555 41.0401 18.66 42.3954 20.0529C43.7508 21.4458 44.8263 23.0999 45.5602 24.9209C46.2942 26.7419 46.672 28.694 46.672 30.6655C46.672 32.6371 46.2942 34.5891 45.5602 36.4102C44.8263 38.2312 43.7508 39.8853 42.3954 41.2782C41.0401 42.6711 39.4316 43.7755 37.6619 44.5289C35.9933 45.2392 34.2121 45.6244 32.4088 45.6661V15.665Z" fill="#394FC2"/>
<path d="M31.5 15C35.8761 15 40.0729 16.633 43.1673 19.5398C46.2616 22.4467 48 26.3891 48 30.5C48 34.6109 46.2616 38.5533 43.1673 41.4602C40.0729 44.367 35.8761 46 31.5 46L31.5 15Z" fill="#394FC2"/>
<path d="M15 16C15 11.7565 16.633 7.68687 19.5398 4.68629C22.4467 1.68571 26.3891 1.23452e-06 30.5 1.27353e-06C34.6109 1.31254e-06 38.5533 1.68571 41.4602 4.68629C44.367 7.68687 46 11.7565 46 16H15Z" fill="#394FC2"/>
<path d="M16.5 31C12.1239 31 7.92709 29.367 4.83274 26.4602C1.73839 23.5533 1.50693e-07 19.6109 0 15.5C-1.50693e-07 11.3891 1.73839 7.44666 4.83274 4.53985C7.92709 1.63303 12.1239 4.29438e-07 16.5 0L16.5 31Z" fill="#394FC2"/>
</svg>
