<svg width="46" height="46" viewBox="0 0 46 46" fill="none" xmlns="http://www.w3.org/2000/svg">
<mask id="path-1-inside-1_6_64" fill="white">
<path fill-rule="evenodd" clip-rule="evenodd" d="M14.9192 0C14.8098 0 14.7004 0.00123634 14.5912 0.00370508C12.7437 0.0454525 10.9189 0.439619 9.20984 1.16715C7.39977 1.9377 5.75509 3.06711 4.36972 4.4909C2.98435 5.91469 1.88541 7.60498 1.13565 9.46525C0.385895 11.3255 8.56407e-08 13.3194 0 15.3329C-8.56395e-08 17.3464 0.385894 19.3403 1.13565 21.2005C1.88541 23.0608 2.98435 24.7511 4.36972 26.1749C5.75509 27.5987 7.39977 28.7281 9.20984 29.4987C10.9189 30.2262 12.7437 30.6203 14.5912 30.6621C14.7004 30.6646 14.8098 30.6658 14.9192 30.6658L14.9192 0ZM14.5912 30.3334C12.7879 30.2918 11.0067 29.9066 9.33811 29.1963C7.56842 28.4429 5.95988 27.3384 4.60457 25.9456C3.24924 24.5526 2.17371 22.8986 1.43977 21.0775C0.705827 19.2565 0.327971 17.3044 0.327971 15.3329C0.327971 13.3614 0.705826 11.4093 1.43977 9.58827C2.17371 7.76725 3.24924 6.11316 4.60457 4.72025C5.95989 3.32735 7.56842 2.2229 9.33811 1.46954C11.0067 0.75923 12.7879 0.374046 14.5912 0.332357L14.5912 30.3334Z"/>
<path fill-rule="evenodd" clip-rule="evenodd" d="M1.24304 30.6671C1.24304 30.7767 1.24418 30.8862 1.24647 30.9957C1.28612 32.8973 1.66974 34.7757 2.37869 36.5347C3.12845 38.395 4.22739 40.0853 5.61276 41.5091C6.99813 42.9329 8.64281 44.0623 10.4529 44.8329C12.263 45.6034 14.203 46 16.1622 46C18.1214 46 20.0614 45.6034 21.8715 44.8329C23.6816 44.0623 25.3263 42.9329 26.7116 41.5091C28.097 40.0853 29.1959 38.395 29.9457 36.5347C30.6547 34.7757 31.0383 32.8973 31.0779 30.9957C31.0793 30.9288 31.0803 30.8618 31.0808 30.7949V45.9984C31.1902 45.9984 31.2996 45.9972 31.4088 45.9947C33.2563 45.953 35.0811 45.5588 36.7902 44.8313C38.6002 44.0607 40.2449 42.9313 41.6303 41.5075C43.0157 40.0837 44.1146 38.3935 44.8643 36.5332C45.6141 34.6729 46 32.6791 46 30.6655C46 28.652 45.6141 26.6582 44.8643 24.7979C44.1146 22.9376 43.0157 21.2473 41.6303 19.8235C40.2449 18.3998 38.6002 17.2703 36.7902 16.4998C35.0811 15.7723 33.2563 15.3781 31.4088 15.3363C31.3536 15.3351 31.2983 15.3342 31.243 15.3335L44.7579 15.3335C44.7579 15.224 44.7568 15.1144 44.7545 15.005C44.7148 13.1034 44.3312 11.2249 43.6223 9.4659C42.8725 7.60563 41.7736 5.91534 40.3882 4.49155C39.0028 3.06776 37.3582 1.93835 35.5481 1.16779C33.738 0.397244 31.798 0.000646835 29.8388 0.000646659C27.8796 0.000646483 25.9395 0.397243 24.1294 1.16779C22.3194 1.93834 20.6747 3.06776 19.2893 4.49155C17.904 5.91534 16.805 7.60563 16.0553 9.4659C15.3463 11.2249 14.9627 13.1034 14.923 15.005C14.9207 15.1144 14.9196 15.224 14.9196 15.3335L31.0808 15.3335V30.6671L1.24304 30.6671ZM30.7499 30.9957C30.7103 32.8552 30.3347 34.6919 29.6416 36.4117C28.9077 38.2327 27.8321 39.8868 26.4768 41.2797C25.1215 42.6726 23.5129 43.7771 21.7433 44.5305C19.9736 45.2838 18.0772 45.6714 16.1622 45.6714C14.2472 45.6714 12.3508 45.2838 10.5811 44.5305C8.81146 43.7771 7.20293 42.6726 5.84761 41.2797C4.49228 39.8868 3.41675 38.2327 2.68281 36.4117C1.98966 34.6919 1.61412 32.8552 1.57451 30.9957L30.7499 30.9957ZM16.3594 9.58891C15.6662 11.3087 15.2907 13.1454 15.2511 15.005L44.4265 15.005C44.3868 13.1454 44.0113 11.3087 43.3181 9.58892C42.5842 7.7679 41.5087 6.11381 40.1534 4.7209C38.798 3.328 37.1895 2.22355 35.4198 1.47019C33.6501 0.716843 31.7537 0.329214 29.8388 0.329214C27.9238 0.329213 26.0274 0.716842 24.2577 1.47019C22.488 2.22355 20.8795 3.328 19.5242 4.72089C18.1688 6.11381 17.0933 7.76789 16.3594 9.58891ZM31.4088 15.665C33.2121 15.7067 34.9933 16.0919 36.6619 16.8022C38.4316 17.5555 40.0401 18.66 41.3954 20.0529C42.7508 21.4458 43.8263 23.0999 44.5602 24.9209C45.2942 26.7419 45.672 28.694 45.672 30.6655C45.672 32.6371 45.2942 34.5891 44.5602 36.4102C43.8263 38.2312 42.7508 39.8853 41.3954 41.2782C40.0401 42.6711 38.4316 43.7755 36.6619 44.5289C34.9933 45.2392 33.2121 45.6244 31.4088 45.6661V15.665Z"/>
<path d="M31 30C31 34.2435 29.4196 38.3131 26.6066 41.3137C23.7936 44.3143 19.9782 46 16 46C12.0218 46 8.20645 44.3143 5.3934 41.3137C2.58035 38.3131 1 34.2435 1 30L31 30Z"/>
<path d="M15 16C15 11.7565 16.5804 7.68687 19.3934 4.68629C22.2064 1.68571 26.0218 5.6859e-07 30 5.96007e-07C33.9782 6.23424e-07 37.7936 1.68571 40.6066 4.68629C43.4196 7.68687 45 11.7565 45 16H15Z"/>
<path d="M15.5 31C11.3891 31 7.44666 29.367 4.53985 26.4602C1.63303 23.5533 5.44218e-07 19.6109 1.84835e-07 15.5C-1.74547e-07 11.3891 1.63303 7.44666 4.53984 4.53985C7.44666 1.63303 11.3891 8.54579e-07 15.5 1.84836e-07L15.5 31Z"/>
<path d="M30.5 15C34.6109 15 38.5533 16.633 41.4602 19.5398C44.367 22.4467 46 26.3891 46 30.5C46 34.6109 44.367 38.5533 41.4602 41.4602C38.5533 44.367 34.6109 46 30.5 46L30.5 15Z"/>
</mask>
<path fill-rule="evenodd" clip-rule="evenodd" d="M14.9192 0C14.8098 0 14.7004 0.00123634 14.5912 0.00370508C12.7437 0.0454525 10.9189 0.439619 9.20984 1.16715C7.39977 1.9377 5.75509 3.06711 4.36972 4.4909C2.98435 5.91469 1.88541 7.60498 1.13565 9.46525C0.385895 11.3255 8.56407e-08 13.3194 0 15.3329C-8.56395e-08 17.3464 0.385894 19.3403 1.13565 21.2005C1.88541 23.0608 2.98435 24.7511 4.36972 26.1749C5.75509 27.5987 7.39977 28.7281 9.20984 29.4987C10.9189 30.2262 12.7437 30.6203 14.5912 30.6621C14.7004 30.6646 14.8098 30.6658 14.9192 30.6658L14.9192 0ZM14.5912 30.3334C12.7879 30.2918 11.0067 29.9066 9.33811 29.1963C7.56842 28.4429 5.95988 27.3384 4.60457 25.9456C3.24924 24.5526 2.17371 22.8986 1.43977 21.0775C0.705827 19.2565 0.327971 17.3044 0.327971 15.3329C0.327971 13.3614 0.705826 11.4093 1.43977 9.58827C2.17371 7.76725 3.24924 6.11316 4.60457 4.72025C5.95989 3.32735 7.56842 2.2229 9.33811 1.46954C11.0067 0.75923 12.7879 0.374046 14.5912 0.332357L14.5912 30.3334Z" fill="#394FC2"/>
<path fill-rule="evenodd" clip-rule="evenodd" d="M1.24304 30.6671C1.24304 30.7767 1.24418 30.8862 1.24647 30.9957C1.28612 32.8973 1.66974 34.7757 2.37869 36.5347C3.12845 38.395 4.22739 40.0853 5.61276 41.5091C6.99813 42.9329 8.64281 44.0623 10.4529 44.8329C12.263 45.6034 14.203 46 16.1622 46C18.1214 46 20.0614 45.6034 21.8715 44.8329C23.6816 44.0623 25.3263 42.9329 26.7116 41.5091C28.097 40.0853 29.1959 38.395 29.9457 36.5347C30.6547 34.7757 31.0383 32.8973 31.0779 30.9957C31.0793 30.9288 31.0803 30.8618 31.0808 30.7949V45.9984C31.1902 45.9984 31.2996 45.9972 31.4088 45.9947C33.2563 45.953 35.0811 45.5588 36.7902 44.8313C38.6002 44.0607 40.2449 42.9313 41.6303 41.5075C43.0157 40.0837 44.1146 38.3935 44.8643 36.5332C45.6141 34.6729 46 32.6791 46 30.6655C46 28.652 45.6141 26.6582 44.8643 24.7979C44.1146 22.9376 43.0157 21.2473 41.6303 19.8235C40.2449 18.3998 38.6002 17.2703 36.7902 16.4998C35.0811 15.7723 33.2563 15.3781 31.4088 15.3363C31.3536 15.3351 31.2983 15.3342 31.243 15.3335L44.7579 15.3335C44.7579 15.224 44.7568 15.1144 44.7545 15.005C44.7148 13.1034 44.3312 11.2249 43.6223 9.4659C42.8725 7.60563 41.7736 5.91534 40.3882 4.49155C39.0028 3.06776 37.3582 1.93835 35.5481 1.16779C33.738 0.397244 31.798 0.000646835 29.8388 0.000646659C27.8796 0.000646483 25.9395 0.397243 24.1294 1.16779C22.3194 1.93834 20.6747 3.06776 19.2893 4.49155C17.904 5.91534 16.805 7.60563 16.0553 9.4659C15.3463 11.2249 14.9627 13.1034 14.923 15.005C14.9207 15.1144 14.9196 15.224 14.9196 15.3335L31.0808 15.3335V30.6671L1.24304 30.6671ZM30.7499 30.9957C30.7103 32.8552 30.3347 34.6919 29.6416 36.4117C28.9077 38.2327 27.8321 39.8868 26.4768 41.2797C25.1215 42.6726 23.5129 43.7771 21.7433 44.5305C19.9736 45.2838 18.0772 45.6714 16.1622 45.6714C14.2472 45.6714 12.3508 45.2838 10.5811 44.5305C8.81146 43.7771 7.20293 42.6726 5.84761 41.2797C4.49228 39.8868 3.41675 38.2327 2.68281 36.4117C1.98966 34.6919 1.61412 32.8552 1.57451 30.9957L30.7499 30.9957ZM16.3594 9.58891C15.6662 11.3087 15.2907 13.1454 15.2511 15.005L44.4265 15.005C44.3868 13.1454 44.0113 11.3087 43.3181 9.58892C42.5842 7.7679 41.5087 6.11381 40.1534 4.7209C38.798 3.328 37.1895 2.22355 35.4198 1.47019C33.6501 0.716843 31.7537 0.329214 29.8388 0.329214C27.9238 0.329213 26.0274 0.716842 24.2577 1.47019C22.488 2.22355 20.8795 3.328 19.5242 4.72089C18.1688 6.11381 17.0933 7.76789 16.3594 9.58891ZM31.4088 15.665C33.2121 15.7067 34.9933 16.0919 36.6619 16.8022C38.4316 17.5555 40.0401 18.66 41.3954 20.0529C42.7508 21.4458 43.8263 23.0999 44.5602 24.9209C45.2942 26.7419 45.672 28.694 45.672 30.6655C45.672 32.6371 45.2942 34.5891 44.5602 36.4102C43.8263 38.2312 42.7508 39.8853 41.3954 41.2782C40.0401 42.6711 38.4316 43.7755 36.6619 44.5289C34.9933 45.2392 33.2121 45.6244 31.4088 45.6661V15.665Z" fill="#394FC2"/>
<path d="M15 16C15 11.7565 16.5804 7.68687 19.3934 4.68629C22.2064 1.68571 26.0218 5.6859e-07 30 5.96007e-07C33.9782 6.23424e-07 37.7936 1.68571 40.6066 4.68629C43.4196 7.68687 45 11.7565 45 16H15Z" fill="#394FC2"/>
<path d="M15.5 31C11.3891 31 7.44666 29.367 4.53985 26.4602C1.63303 23.5533 5.44218e-07 19.6109 1.84835e-07 15.5C-1.74547e-07 11.3891 1.63303 7.44666 4.53984 4.53985C7.44666 1.63303 11.3891 8.54579e-07 15.5 1.84836e-07L15.5 31Z" fill="#394FC2"/>
<path fill-rule="evenodd" clip-rule="evenodd" d="M14.9192 0C14.8098 0 14.7004 0.00123634 14.5912 0.00370508C12.7437 0.0454525 10.9189 0.439619 9.20984 1.16715C7.39977 1.9377 5.75509 3.06711 4.36972 4.4909C2.98435 5.91469 1.88541 7.60498 1.13565 9.46525C0.385895 11.3255 8.56407e-08 13.3194 0 15.3329C-8.56395e-08 17.3464 0.385894 19.3403 1.13565 21.2005C1.88541 23.0608 2.98435 24.7511 4.36972 26.1749C5.75509 27.5987 7.39977 28.7281 9.20984 29.4987C10.9189 30.2262 12.7437 30.6203 14.5912 30.6621C14.7004 30.6646 14.8098 30.6658 14.9192 30.6658L14.9192 0ZM14.5912 30.3334C12.7879 30.2918 11.0067 29.9066 9.33811 29.1963C7.56842 28.4429 5.95988 27.3384 4.60457 25.9456C3.24924 24.5526 2.17371 22.8986 1.43977 21.0775C0.705827 19.2565 0.327971 17.3044 0.327971 15.3329C0.327971 13.3614 0.705826 11.4093 1.43977 9.58827C2.17371 7.76725 3.24924 6.11316 4.60457 4.72025C5.95989 3.32735 7.56842 2.2229 9.33811 1.46954C11.0067 0.75923 12.7879 0.374046 14.5912 0.332357L14.5912 30.3334Z" stroke="#394FC2" stroke-width="2" mask="url(#path-1-inside-1_6_64)"/>
<path fill-rule="evenodd" clip-rule="evenodd" d="M1.24304 30.6671C1.24304 30.7767 1.24418 30.8862 1.24647 30.9957C1.28612 32.8973 1.66974 34.7757 2.37869 36.5347C3.12845 38.395 4.22739 40.0853 5.61276 41.5091C6.99813 42.9329 8.64281 44.0623 10.4529 44.8329C12.263 45.6034 14.203 46 16.1622 46C18.1214 46 20.0614 45.6034 21.8715 44.8329C23.6816 44.0623 25.3263 42.9329 26.7116 41.5091C28.097 40.0853 29.1959 38.395 29.9457 36.5347C30.6547 34.7757 31.0383 32.8973 31.0779 30.9957C31.0793 30.9288 31.0803 30.8618 31.0808 30.7949V45.9984C31.1902 45.9984 31.2996 45.9972 31.4088 45.9947C33.2563 45.953 35.0811 45.5588 36.7902 44.8313C38.6002 44.0607 40.2449 42.9313 41.6303 41.5075C43.0157 40.0837 44.1146 38.3935 44.8643 36.5332C45.6141 34.6729 46 32.6791 46 30.6655C46 28.652 45.6141 26.6582 44.8643 24.7979C44.1146 22.9376 43.0157 21.2473 41.6303 19.8235C40.2449 18.3998 38.6002 17.2703 36.7902 16.4998C35.0811 15.7723 33.2563 15.3781 31.4088 15.3363C31.3536 15.3351 31.2983 15.3342 31.243 15.3335L44.7579 15.3335C44.7579 15.224 44.7568 15.1144 44.7545 15.005C44.7148 13.1034 44.3312 11.2249 43.6223 9.4659C42.8725 7.60563 41.7736 5.91534 40.3882 4.49155C39.0028 3.06776 37.3582 1.93835 35.5481 1.16779C33.738 0.397244 31.798 0.000646835 29.8388 0.000646659C27.8796 0.000646483 25.9395 0.397243 24.1294 1.16779C22.3194 1.93834 20.6747 3.06776 19.2893 4.49155C17.904 5.91534 16.805 7.60563 16.0553 9.4659C15.3463 11.2249 14.9627 13.1034 14.923 15.005C14.9207 15.1144 14.9196 15.224 14.9196 15.3335L31.0808 15.3335V30.6671L1.24304 30.6671ZM30.7499 30.9957C30.7103 32.8552 30.3347 34.6919 29.6416 36.4117C28.9077 38.2327 27.8321 39.8868 26.4768 41.2797C25.1215 42.6726 23.5129 43.7771 21.7433 44.5305C19.9736 45.2838 18.0772 45.6714 16.1622 45.6714C14.2472 45.6714 12.3508 45.2838 10.5811 44.5305C8.81146 43.7771 7.20293 42.6726 5.84761 41.2797C4.49228 39.8868 3.41675 38.2327 2.68281 36.4117C1.98966 34.6919 1.61412 32.8552 1.57451 30.9957L30.7499 30.9957ZM16.3594 9.58891C15.6662 11.3087 15.2907 13.1454 15.2511 15.005L44.4265 15.005C44.3868 13.1454 44.0113 11.3087 43.3181 9.58892C42.5842 7.7679 41.5087 6.11381 40.1534 4.7209C38.798 3.328 37.1895 2.22355 35.4198 1.47019C33.6501 0.716843 31.7537 0.329214 29.8388 0.329214C27.9238 0.329213 26.0274 0.716842 24.2577 1.47019C22.488 2.22355 20.8795 3.328 19.5242 4.72089C18.1688 6.11381 17.0933 7.76789 16.3594 9.58891ZM31.4088 15.665C33.2121 15.7067 34.9933 16.0919 36.6619 16.8022C38.4316 17.5555 40.0401 18.66 41.3954 20.0529C42.7508 21.4458 43.8263 23.0999 44.5602 24.9209C45.2942 26.7419 45.672 28.694 45.672 30.6655C45.672 32.6371 45.2942 34.5891 44.5602 36.4102C43.8263 38.2312 42.7508 39.8853 41.3954 41.2782C40.0401 42.6711 38.4316 43.7755 36.6619 44.5289C34.9933 45.2392 33.2121 45.6244 31.4088 45.6661V15.665Z" stroke="#394FC2" stroke-width="2" mask="url(#path-1-inside-1_6_64)"/>
<path d="M31 30C31 34.2435 29.4196 38.3131 26.6066 41.3137C23.7936 44.3143 19.9782 46 16 46C12.0218 46 8.20645 44.3143 5.3934 41.3137C2.58035 38.3131 1 34.2435 1 30L31 30Z" stroke="#394FC2" stroke-width="2" mask="url(#path-1-inside-1_6_64)"/>
<path d="M15 16C15 11.7565 16.5804 7.68687 19.3934 4.68629C22.2064 1.68571 26.0218 5.6859e-07 30 5.96007e-07C33.9782 6.23424e-07 37.7936 1.68571 40.6066 4.68629C43.4196 7.68687 45 11.7565 45 16H15Z" stroke="#394FC2" stroke-width="2" mask="url(#path-1-inside-1_6_64)"/>
<path d="M15.5 31C11.3891 31 7.44666 29.367 4.53985 26.4602C1.63303 23.5533 5.44218e-07 19.6109 1.84835e-07 15.5C-1.74547e-07 11.3891 1.63303 7.44666 4.53984 4.53985C7.44666 1.63303 11.3891 8.54579e-07 15.5 1.84836e-07L15.5 31Z" stroke="#394FC2" stroke-width="2" mask="url(#path-1-inside-1_6_64)"/>
<path d="M30.5 15C34.6109 15 38.5533 16.633 41.4602 19.5398C44.367 22.4467 46 26.3891 46 30.5C46 34.6109 44.367 38.5533 41.4602 41.4602C38.5533 44.367 34.6109 46 30.5 46L30.5 15Z" stroke="#394FC2" stroke-width="2" mask="url(#path-1-inside-1_6_64)"/>
</svg>
