<svg width="39" height="44" viewBox="0 0 39 44" fill="none" xmlns="http://www.w3.org/2000/svg">
<path d="M0 22.002V33.0037L19.0507 44.0007V33.0006L0 22.002Z" fill="#F04417"/>
<path d="M28.5726 5.44525L9.5172 16.5112L0.000488281 11.0017V10.9939L19.0433 0L28.5741 5.44525H28.5726Z" fill="#33D67E"/>
<path d="M28.5741 5.44525L38.0949 10.8874L28.5735 16.5113L19.0474 10.9799L28.5735 5.44688L28.5741 5.44525Z" fill="#5068E6"/>
<path d="M19.0474 10.9775V21.9981L28.5703 27.4997V16.509L19.0474 10.9775Z" fill="#293EB1"/>
<path d="M28.5703 16.509L28.5708 38.4792L38.0953 32.9619V10.8848L28.5703 16.509Z" fill="#394FC2"/>
<path d="M19.0474 10.9775L9.5166 16.509V27.4997L19.0474 21.9981V10.9775Z" fill="#1E9253"/>
<path d="M9.5172 16.5112L0.000488281 10.9961V22.001L9.5172 27.5026V16.5112Z" fill="#0B7E54"/>
<path d="M19.0503 32.996L28.5686 27.499V38.4773L19.0503 43.9946V32.9944V32.996Z" fill="#FF5428"/>
<path d="M9.5172 27.5026L19.0505 32.998L28.5688 27.5026L19.0458 22.001L9.5172 27.5026Z" fill="#FF8768"/>
</svg>
