<svg width="110" height="23" viewBox="0 0 110 23" fill="none" xmlns="http://www.w3.org/2000/svg">
<path d="M10.6887 3.4627H3.30371V9.9284H10.8725C11.7918 9.9284 12.5579 9.5913 13.1708 8.9172C13.8041 8.2226 14.1207 7.3748 14.1207 6.3738C14.1207 5.5362 13.7939 4.8416 13.1401 4.29C12.4864 3.7385 11.6693 3.4627 10.6887 3.4627ZM10.8725 12.6863H3.30371V19.2133H10.9951C11.9757 19.2133 12.7928 18.9273 13.4466 18.3553C14.1003 17.7628 14.4271 17.0478 14.4271 16.2102C14.4271 15.1888 14.0901 14.3512 13.4159 13.6975C12.7418 13.0233 11.894 12.6863 10.8725 12.6863ZM11.3322 22.0631H0.392609V0.6129H11.0258C12.7622 0.6129 14.1922 1.1338 15.3158 2.1757C16.4598 3.1971 17.0318 4.4943 17.0318 6.0673C17.0318 7.1705 16.7662 8.1817 16.2351 9.101C15.7244 10.0203 15.0196 10.7251 14.1207 11.2154C15.1217 11.7261 15.9082 12.4513 16.4802 13.3911C17.0522 14.3104 17.3382 15.342 17.3382 16.486C17.3382 18.0795 16.7662 19.4073 15.6222 20.4696C14.4782 21.5319 13.0482 22.0631 11.3322 22.0631Z" fill="black"/>
<path d="M22.6508 22.0631H19.7397V0.6129H22.6508V22.0631Z" fill="black"/>
<path d="M30.098 5.2706C28.5454 6.8436 27.7691 8.8559 27.7691 11.3073C27.7691 13.7588 28.5454 15.771 30.098 17.344C31.671 18.917 33.5811 19.7036 35.828 19.7036C37.892 19.7036 39.659 19.0805 41.13 17.8343C42.621 16.5677 43.469 14.9334 43.673 12.9314H34.9396V10.2348H46.737C46.778 10.5617 46.799 11.0622 46.799 11.7363C46.799 13.7996 46.298 15.6689 45.297 17.344C44.316 18.9988 42.989 20.296 41.313 21.2357C39.659 22.155 37.83 22.6147 35.828 22.6147C34.337 22.6147 32.9172 22.3389 31.5689 21.7873C30.2206 21.2153 29.0561 20.439 28.0756 19.4584C27.095 18.4778 26.3085 17.2827 25.716 15.8732C25.144 14.4431 24.858 12.9212 24.858 11.3073C24.858 9.6935 25.144 8.1817 25.716 6.7721C26.3085 5.3421 27.095 4.1368 28.0756 3.1562C29.0561 2.1757 30.2206 1.4096 31.5689 0.858C32.9172 0.286 34.337 0 35.828 0C37.953 0 39.894 0.572 41.65 1.716C43.407 2.8396 44.735 4.3718 45.634 6.3125L42.999 7.5995C42.345 6.1491 41.375 5.005 40.088 4.1675C38.801 3.3299 37.381 2.9111 35.828 2.9111C33.5811 2.9111 31.671 3.6976 30.098 5.2706Z" fill="black"/>
<path d="M59.565 19.2133H71.148V22.0631H56.654V0.6129H59.565V19.2133Z" fill="black"/>
<path d="M75.979 22.0631H73.068V0.6129H75.979V22.0631Z" fill="black"/>
<path d="M81.711 9.8671H92.558V12.7476H81.711V22.0631H78.8V0.6129H93.294V3.4627H81.711V9.8671Z" fill="black"/>
<path d="M98.424 9.8671H109.272V12.7476H98.424V19.2133H110.007V22.0631H95.513V0.6129H110.007V3.4627H98.424V9.8671Z" fill="black"/>
</svg>
