<svg width="280" height="280" viewBox="0 0 280 280" fill="none" xmlns="http://www.w3.org/2000/svg">
<path fill-rule="evenodd" clip-rule="evenodd" d="M95.5295 13C94.9244 13 94.3196 13.0068 93.7152 13.0205C83.4954 13.251 73.4007 15.4275 63.9468 19.4447C53.9339 23.6995 44.8359 29.9358 37.1723 37.7976C29.5088 45.6594 23.4297 54.9927 19.2822 65.2647C15.1347 75.5366 13 86.546 13 97.6643C13 108.783 15.1347 119.792 19.2822 130.064C23.4297 140.336 29.5087 149.669 37.1723 157.531C44.8359 165.393 53.9339 171.629 63.9468 175.884C73.4007 179.901 83.4954 182.078 93.7152 182.308C94.3196 182.322 94.9243 182.329 95.5295 182.329L95.5295 13ZM93.7152 180.493C83.7401 180.263 73.8865 178.136 64.6563 174.214C54.8668 170.054 45.9687 163.956 38.4715 156.265C30.9741 148.573 25.0245 139.44 20.9645 129.385C16.9045 119.329 14.8143 108.551 14.8143 97.6643C14.8143 86.7779 16.9045 75.9992 20.9645 65.9439C25.0245 55.8887 30.9741 46.7553 38.4715 39.064C45.9688 31.3728 54.8668 25.2743 64.6563 21.1144C73.8866 17.1923 83.7401 15.0654 93.7152 14.8352L93.7152 180.493Z" fill="#394FC2"/>
<path fill-rule="evenodd" clip-rule="evenodd" d="M19.8762 182.336C19.8762 182.941 19.8825 183.546 19.8952 184.15C20.1145 194.65 22.2366 205.022 26.1584 214.735C30.3059 225.007 36.385 234.341 44.0485 242.202C51.7121 250.064 60.8101 256.301 70.823 260.555C80.836 264.81 91.5678 267 102.406 267C113.244 267 123.975 264.81 133.988 260.555C144.001 256.301 153.099 250.064 160.763 242.202C168.426 234.341 174.505 225.007 178.653 214.735C182.575 205.022 184.697 194.65 184.916 184.15C184.924 183.781 184.929 183.411 184.932 183.041V266.991C185.537 266.991 186.142 266.985 186.747 266.971C196.966 266.74 207.061 264.564 216.515 260.547C226.528 256.292 235.626 250.056 243.289 242.194C250.953 234.332 257.032 224.999 261.18 214.727C265.327 204.455 267.462 193.445 267.462 182.327C267.462 171.209 265.327 160.199 261.18 149.927C257.032 139.656 250.953 130.322 243.289 122.46C235.626 114.599 226.528 108.362 216.515 104.108C207.061 100.09 196.966 97.9138 186.747 97.6833C186.441 97.6764 186.135 97.6713 185.829 97.6678L260.591 97.6679C260.591 97.0627 260.585 96.458 260.572 95.8536C260.353 85.3534 258.23 74.9811 254.309 65.2682C250.161 54.9963 244.082 45.663 236.419 37.8012C228.755 29.9394 219.657 23.703 209.644 19.4483C199.631 15.1935 188.899 13.0036 178.061 13.0036C167.223 13.0036 156.492 15.1935 146.479 19.4482C136.466 23.703 127.368 29.9393 119.704 37.8012C112.041 45.663 105.962 54.9963 101.814 65.2682C97.8924 74.9811 95.7703 85.3534 95.5509 95.8536C95.5383 96.4579 95.5319 97.0627 95.5319 97.6678L184.932 97.6678V182.336L19.8762 182.336ZM183.102 184.15C182.882 194.418 180.805 204.56 176.971 214.056C172.911 224.111 166.961 233.245 159.464 240.936C151.966 248.627 143.068 254.726 133.279 258.886C123.489 263.045 112.999 265.186 102.406 265.186C91.8125 265.186 81.322 263.045 71.5326 258.886C61.743 254.726 52.845 248.627 45.3477 240.936C37.8503 233.245 31.9007 224.111 27.8407 214.056C24.0064 204.56 21.9289 194.418 21.7098 184.15L183.102 184.15ZM103.496 65.9475C99.6621 75.4438 97.5846 85.5854 97.3655 95.8536L258.757 95.8536C258.538 85.5855 256.461 75.4438 252.626 65.9475C248.566 55.8923 242.617 46.7589 235.119 39.0676C227.622 31.3763 218.724 25.2779 208.935 21.118C199.145 16.9582 188.655 14.8178 178.061 14.8178C167.468 14.8178 156.978 16.9582 147.188 21.118C137.399 25.2779 128.501 31.3763 121.003 39.0675C113.506 46.7589 107.556 55.8923 103.496 65.9475ZM186.747 99.498C196.722 99.7282 206.575 101.855 215.805 105.777C225.595 109.937 234.493 116.036 241.99 123.727C249.488 131.418 255.437 140.552 259.497 150.607C263.557 160.662 265.648 171.441 265.648 182.327C265.648 193.213 263.557 203.992 259.497 214.047C255.437 224.103 249.488 233.236 241.99 240.927C234.493 248.619 225.595 254.717 215.805 258.877C206.575 262.799 196.722 264.926 186.747 265.156V99.498Z" fill="#394FC2"/>
</svg>
