<svg width="280" height="281" viewBox="0 0 280 281" fill="none" xmlns="http://www.w3.org/2000/svg">
<g opacity="0.9">
<path fill-rule="evenodd" clip-rule="evenodd" d="M143.327 210.232C144.076 210.232 144.825 210.224 145.573 210.208C158.612 209.929 171.492 207.226 183.553 202.231C196.306 196.948 207.894 189.205 217.655 179.444C227.416 169.683 235.159 158.095 240.441 145.342C245.724 132.589 248.443 118.92 248.443 105.116C248.443 91.312 245.724 77.6431 240.441 64.8899C235.159 52.1366 227.416 40.5487 217.655 30.7878C207.894 21.0268 196.306 13.2841 183.553 8.0015C171.492 3.00569 158.612 0.302765 145.574 0.0240174C144.825 0.00801089 144.076 0 143.327 0L143.327 210.232ZM145.574 2.27138C158.317 2.54977 170.905 5.19443 182.693 10.0773C195.174 15.2469 206.514 22.8242 216.066 32.3765C225.618 41.9288 233.196 53.269 238.365 65.7497C243.535 78.2303 246.196 91.6071 246.196 105.116C246.196 118.625 243.535 132.002 238.365 144.482C233.196 156.963 225.618 168.303 216.066 177.856C206.514 187.408 195.174 194.985 182.693 200.155C170.905 205.038 158.317 207.682 145.573 207.961L145.574 2.27138Z" fill="#2ABF6F"/>
<path fill-rule="evenodd" clip-rule="evenodd" d="M136.116 70.0775C135.367 70.0775 134.618 70.0855 133.869 70.1015C120.831 70.3803 107.951 73.0832 95.8899 78.079C83.1366 83.3616 71.5487 91.1043 61.7878 100.865C52.0268 110.626 44.2841 122.214 39.0015 134.967C33.7189 147.721 31 161.389 31 175.194C31 188.998 33.7189 202.666 39.0015 215.42C44.2841 228.173 52.0268 239.761 61.7878 249.522C71.5487 259.283 83.1366 267.025 95.8899 272.308C107.951 277.304 120.831 280.007 133.869 280.286C134.618 280.302 135.367 280.31 136.116 280.31L136.116 70.0775ZM133.869 278.038C121.126 277.76 108.538 275.115 96.7497 270.232C84.269 265.063 72.9288 257.485 63.3765 247.933C53.8242 238.381 46.2469 227.041 41.0773 214.56C35.9076 202.079 33.2468 188.702 33.2468 175.194C33.2468 161.685 35.9076 148.308 41.0773 135.827C46.247 123.347 53.8242 112.006 63.3765 102.454C72.9288 92.9017 84.269 85.3244 96.7497 80.1548C108.538 75.2719 121.126 72.6273 133.869 72.3489L133.869 278.038Z" fill="#2ABF6F"/>
</g>
</svg>
