<svg width="280" height="280" viewBox="0 0 280 280" fill="none" xmlns="http://www.w3.org/2000/svg">
<g opacity="0.9">
<path fill-rule="evenodd" clip-rule="evenodd" d="M150.162 164.644L227.33 241.812L243.591 228.093L165.528 150.03H274.963L276.516 128.973H165.492L243.569 50.8966L227.308 37.1779L150.162 114.324V10.4427H129.047V113.549L52.6956 37.1977L36.4345 50.9164L114.491 128.973H5.03709L3.48389 150.03H114.456L36.4126 228.073L52.6737 241.792L129.047 165.418L129.047 268.557H150.162V164.644ZM52.5414 241.924L52.5428 241.923ZM244.051 227.705L244.05 227.706ZM34.26 226.771C33.4566 227.575 33.5093 228.82 34.3777 229.552L51.2416 243.78C52.11 244.512 53.4653 244.455 54.2687 243.652L126.604 171.316L126.604 268.943C126.604 270.079 127.526 271 128.662 271H150.547C151.683 271 152.604 270.079 152.604 268.943V170.541L225.735 243.671C226.538 244.475 227.893 244.532 228.762 243.8L245.626 229.572C246.494 228.84 246.547 227.594 245.744 226.791L171.425 152.473H275.175C276.311 152.473 277.3 151.554 277.384 150.421L278.994 128.582C279.078 127.449 278.225 126.531 277.089 126.531H171.39L245.722 52.1986C246.525 51.3952 246.472 50.15 245.604 49.4174L228.74 35.1901C227.872 34.4575 226.516 34.5149 225.713 35.3183L152.604 108.427V10.0572C152.604 8.92104 151.683 8 150.547 8H128.662C127.526 8 126.604 8.92104 126.604 10.0572L126.604 107.652L54.2906 35.3381C53.4872 34.5347 52.1319 34.4773 51.2635 35.21L34.3996 49.4372C33.5312 50.1698 33.4785 51.415 34.2819 52.2184L108.594 126.531H4.82508C3.68892 126.531 2.70013 127.449 2.61655 128.582L1.00565 150.421C0.922072 151.554 1.77534 152.473 2.9115 152.473H108.559L34.26 226.771Z" fill="#FE4819"/>
</g>
</svg>
