<svg width="280" height="280" viewBox="0 0 280 280" fill="none" xmlns="http://www.w3.org/2000/svg">
<g clip-path="url(#clip0_13_161)">
<path fill-rule="evenodd" clip-rule="evenodd" d="M21 208.867L138.23 276.539V211.157L21 143.476V208.867ZM19 140.012V210.022L140.23 280.003V210.002L19 140.012Z" fill="#2ABF6F"/>
<path fill-rule="evenodd" clip-rule="evenodd" d="M200.831 34.6513L140.181 0L19 69.9605V70.0104L79.5604 105.07L200.821 34.6513H200.831ZM196.819 34.6625L140.186 2.30638L22.9529 69.9878L79.5588 102.758L196.819 34.6625Z" fill="#2ABF6F"/>
<path fill-rule="evenodd" clip-rule="evenodd" d="M140.205 69.8718L200.825 105.071L261.415 69.2837L200.825 34.6523V34.6623L140.205 69.8718ZM200.842 36.9655L144.188 69.8716L200.817 102.754L257.435 69.3121L200.842 36.9655Z" fill="#2ABF6F"/>
<path fill-rule="evenodd" clip-rule="evenodd" d="M142.205 138.831L198.805 171.53V106.206L142.205 73.3301V138.831ZM140.205 69.8555V139.985L200.805 174.996V105.055L140.205 69.8555Z" fill="#2ABF6F"/>
<path fill-rule="evenodd" clip-rule="evenodd" d="M200.809 244.865L261.419 209.755V69.2656L200.809 105.053V244.865ZM259.419 72.7692L202.809 106.195V241.395L259.419 208.602V72.7692Z" fill="#2ABF6F"/>
<path fill-rule="evenodd" clip-rule="evenodd" d="M81.5547 106.207V171.532L138.205 138.831V73.3286L81.5547 106.207ZM79.5547 105.055V174.996L140.205 139.985V69.8555L79.5547 105.055Z" fill="#2ABF6F"/>
<path fill-rule="evenodd" clip-rule="evenodd" d="M19 69.9746V140.005L79.5604 175.015V105.074L19 69.9746ZM21 73.4454L77.5604 106.227V171.549L21 138.851V73.4454Z" fill="#2ABF6F"/>
<path fill-rule="evenodd" clip-rule="evenodd" d="M140.225 209.972V279.963L200.795 244.853V174.992L140.225 209.972ZM142.225 211.127V276.492L198.795 243.701V178.457L142.225 211.127Z" fill="#2ABF6F"/>
<path fill-rule="evenodd" clip-rule="evenodd" d="M140.224 207.677L196.796 175.015L140.194 142.315L83.5572 175.015L140.224 207.677ZM140.225 209.986L200.795 175.016L140.195 140.006L79.5547 175.016L140.225 209.986Z" fill="#2ABF6F"/>
<path fill-rule="evenodd" clip-rule="evenodd" d="M21.5015 70.1331L141.502 1.13309L142.498 2.86691L22.4985 71.8669L21.5015 70.1331Z" fill="#2ABF6F"/>
<path fill-rule="evenodd" clip-rule="evenodd" d="M21 210V72H23V210H21Z" fill="#2ABF6F"/>
<path fill-rule="evenodd" clip-rule="evenodd" d="M22.4993 208.134L140.499 276.134L139.501 277.866L21.5007 209.866L22.4993 208.134Z" fill="#2ABF6F"/>
<path fill-rule="evenodd" clip-rule="evenodd" d="M139.502 276.133L259.502 207.133L260.498 208.867L140.498 277.867L139.502 276.133Z" fill="#2ABF6F"/>
<path fill-rule="evenodd" clip-rule="evenodd" d="M258 208V71H260V208H258Z" fill="#2ABF6F"/>
<path fill-rule="evenodd" clip-rule="evenodd" d="M141.499 2.13396L260.145 70.634L259.145 72.366L140.499 3.86601L141.499 2.13396Z" fill="#2ABF6F"/>
</g>
<defs>
<clipPath id="clip0_13_161">
<rect width="280" height="280" fill="white"/>
</clipPath>
</defs>
</svg>
