<svg width="46" height="46" viewBox="0 0 46 46" fill="none" xmlns="http://www.w3.org/2000/svg">
<g clip-path="url(#clip0_18_5)">
<path fill-rule="evenodd" clip-rule="evenodd" d="M24.0856 25.9171L37.4862 40.0819L39.3036 38.4612L25.8772 24.269H44.7748L44.9519 21.7316H25.8713L39.3 7.53702L37.4825 5.91627L24.0856 20.0773V1H21.7835L21.7835 19.9418L8.51803 5.91974L6.70057 7.54048L20.1259 21.7316H1.22518L1.04811 24.269H20.1201L6.69695 38.4577L8.51441 40.0785L21.7835 26.0526L21.7835 45H24.0856V25.9171ZM8.0878 40.5294L8.08893 40.5282ZM37.1863 41.2201L25.0856 28.4292V45.6402C25.0856 45.8389 24.9332 46 24.7452 46H21.1239C20.9359 46 20.7835 45.8389 20.7835 45.6402L20.7835 28.5647L8.81424 41.2166C8.6813 41.3571 8.45705 41.3672 8.31336 41.239L5.52293 38.7506C5.37923 38.6225 5.37051 38.4047 5.50345 38.2642L17.7975 25.269H0.316291C0.128294 25.269 -0.0128945 25.1083 0.000935174 24.9101L0.267487 21.0904C0.281317 20.8922 0.44493 20.7316 0.632927 20.7316H17.8033L5.50707 7.73401C5.37413 7.5935 5.38286 7.37571 5.52655 7.24757L8.31698 4.75916C8.46068 4.63102 8.68493 4.64105 8.81786 4.78157L20.7835 17.4296L20.7835 0.359814C20.7835 0.161094 20.9359 0 21.1239 0H24.7452C24.9332 0 25.0856 0.161094 25.0856 0.359813V17.5651L37.1827 4.7781C37.3156 4.63758 37.5399 4.62755 37.6836 4.75569L40.474 7.2441C40.6177 7.37224 40.6264 7.59003 40.4935 7.73055L28.194 20.7316H45.6837C45.8717 20.7316 46.0129 20.8922 45.9991 21.0904L45.7325 24.9101C45.7187 25.1083 45.5551 25.269 45.3671 25.269H28.1998L40.4971 38.2677C40.6301 38.4082 40.6213 38.626 40.4776 38.7541L37.6872 41.2425C37.5435 41.3706 37.3193 41.3606 37.1863 41.2201Z" fill="#FE4819"/>
</g>
<defs>
<clipPath id="clip0_18_5">
<rect width="46" height="46" fill="white"/>
</clipPath>
</defs>
</svg>
