<svg width="16" height="16" viewBox="0 0 16 16" fill="none" xmlns="http://www.w3.org/2000/svg">
<path fill-rule="evenodd" clip-rule="evenodd" d="M8.00065 2.08398C4.73297 2.08398 2.08398 4.73297 2.08398 8.00065C2.08398 11.2683 4.73297 13.9173 8.00065 13.9173C11.2683 13.9173 13.9173 11.2683 13.9173 8.00065C13.9173 4.73297 11.2683 2.08398 8.00065 2.08398ZM0.583984 8.00065C0.583984 3.90454 3.90454 0.583984 8.00065 0.583984C12.0968 0.583984 15.4173 3.90454 15.4173 8.00065C15.4173 12.0968 12.0968 15.4173 8.00065 15.4173C3.90454 15.4173 0.583984 12.0968 0.583984 8.00065Z" fill="#0F0F0F"/>
<path fill-rule="evenodd" clip-rule="evenodd" d="M8 7.25C8.41421 7.25 8.75 7.58579 8.75 8V10.6667C8.75 11.0809 8.41421 11.4167 8 11.4167C7.58579 11.4167 7.25 11.0809 7.25 10.6667V8C7.25 7.58579 7.58579 7.25 8 7.25Z" fill="#0F0F0F"/>
<path fill-rule="evenodd" clip-rule="evenodd" d="M7.25 5.33398C7.25 4.91977 7.58579 4.58398 8 4.58398H8.00708C8.4213 4.58398 8.75708 4.91977 8.75708 5.33398C8.75708 5.7482 8.4213 6.08398 8.00708 6.08398H8C7.58579 6.08398 7.25 5.7482 7.25 5.33398Z" fill="#0F0F0F"/>
</svg>
