<svg width="20" height="20" viewBox="0 0 20 20" fill="none" xmlns="http://www.w3.org/2000/svg">
<path fill-rule="evenodd" clip-rule="evenodd" d="M1.25 11.0152C1.25 15.2629 4.6968 18.704 8.95158 18.704C10.9942 18.704 12.9531 17.8939 14.3974 16.452C15.8417 15.0101 16.6532 13.0544 16.6532 11.0152C16.6532 8.97603 15.8417 7.02036 14.3974 5.57844C12.9531 4.13652 10.9942 3.32645 8.95158 3.32645C4.6968 3.32645 1.25 6.76752 1.25 11.0152ZM16.2722 4.6989C16.4902 4.78893 16.7238 4.83515 16.9597 4.83493C17.9509 4.83493 18.7539 4.03329 18.7539 3.04205C18.7539 2.80671 18.7075 2.57368 18.6173 2.35626C18.527 2.13884 18.3948 1.94129 18.2281 1.77488C18.0615 1.60847 17.8636 1.47647 17.6458 1.38641C17.428 1.29635 17.1946 1.25 16.9589 1.25C16.7231 1.25 16.4897 1.29635 16.2719 1.38641C16.0541 1.47647 15.8563 1.60847 15.6896 1.77488C15.5229 1.94129 15.3907 2.13884 15.3005 2.35626C15.2102 2.57368 15.1638 2.80671 15.1638 3.04205C15.1636 3.27756 15.2099 3.51079 15.3001 3.72842C15.3902 3.94604 15.5225 4.14377 15.6893 4.3103C15.8561 4.47683 16.0542 4.60888 16.2722 4.6989ZM8.95158 16.0097C11.7145 16.0097 13.9544 13.7736 13.9544 11.0152C13.9544 8.25686 11.7145 6.02076 8.95158 6.02076C6.18862 6.02076 3.9488 8.25686 3.9488 11.0152C3.9488 13.7736 6.18862 16.0097 8.95158 16.0097Z" fill="white"/>
</svg>
