<svg width="20" height="20" viewBox="0 0 20 20" fill="none" xmlns="http://www.w3.org/2000/svg">
<path d="M18.1234 4.40988C17.8984 6.77988 16.9234 12.5399 16.4284 15.1949C16.2184 16.3199 15.7984 16.6949 15.4084 16.7399C14.5384 16.8149 13.8784 16.1699 13.0384 15.6149C11.7184 14.7449 10.9684 14.2049 9.69343 13.3649C8.20843 12.3899 9.16843 11.8499 10.0234 10.9799C10.2484 10.7549 14.0884 7.25988 14.1634 6.94488C14.1738 6.89717 14.1725 6.84764 14.1594 6.80059C14.1463 6.75354 14.122 6.71038 14.0884 6.67488C13.9984 6.59988 13.8784 6.62988 13.7734 6.64488C13.6384 6.67488 11.5384 8.06988 7.44343 10.8299C6.84343 11.2349 6.30343 11.4449 5.82343 11.4299C5.28343 11.4149 4.26343 11.1299 3.49843 10.8749C2.55343 10.5749 1.81843 10.4099 1.87843 9.88488C1.90843 9.61488 2.28343 9.34488 2.98843 9.05988C7.36843 7.15488 10.2784 5.89488 11.7334 5.29488C15.9034 3.55488 16.7584 3.25488 17.3284 3.25488C17.4484 3.25488 17.7334 3.28488 17.9134 3.43488C18.0634 3.55488 18.1084 3.71988 18.1234 3.83988C18.1084 3.92988 18.1384 4.19988 18.1234 4.40988Z" fill="white"/>
</svg>
