<svg width="20" height="20" viewBox="0 0 20 20" fill="none" xmlns="http://www.w3.org/2000/svg">
<g clip-path="url(#clip0_27_532)">
<path d="M17.8025 11.7629C17.8025 11.7629 19.4203 13.3597 19.8185 14.101C19.83 14.1162 19.8357 14.1315 19.8395 14.1391C20.0015 14.4116 20.0396 14.6231 19.9596 14.7813C19.8262 15.0442 19.3688 15.1738 19.2126 15.1852H16.3543C16.1561 15.1852 15.7407 15.1338 15.2376 14.787C14.8508 14.5164 14.4697 14.0724 14.0981 13.6398C13.5436 12.9958 13.0634 12.4393 12.5793 12.4393C12.5179 12.4392 12.4568 12.4489 12.3983 12.4679C12.0325 12.5861 11.5637 13.1082 11.5637 14.4992C11.5637 14.9337 11.2207 15.1833 10.9787 15.1833H9.66956C9.22366 15.1833 6.90079 15.0271 4.84279 12.8566C2.32365 10.1984 0.0560349 4.86665 0.0369793 4.81711C-0.105937 4.4722 0.189428 4.28736 0.511467 4.28736H3.39838C3.7833 4.28736 3.90907 4.52175 3.99673 4.72945C4.09963 4.97146 4.47692 5.93377 5.09623 7.01612C6.10046 8.78067 6.71595 9.49715 7.20949 9.49715C7.30203 9.49607 7.39293 9.47252 7.47437 9.42855C8.11844 9.07031 7.99839 6.77412 7.9698 6.29773C7.9698 6.20817 7.9679 5.27063 7.63824 4.82092C7.40195 4.49507 6.99988 4.37121 6.75597 4.32548C6.85469 4.18925 6.98476 4.07879 7.13517 4.00344C7.57726 3.7824 8.37379 3.75 9.16459 3.75H9.60478C10.4623 3.76143 10.6833 3.81669 10.9939 3.89482C11.6228 4.04536 11.6361 4.45125 11.5808 5.8404C11.5637 6.23485 11.5465 6.68074 11.5465 7.20668C11.5465 7.32101 11.5408 7.44296 11.5408 7.57254C11.5218 8.2795 11.4989 9.08174 11.9981 9.41141C12.0633 9.45224 12.1385 9.47402 12.2154 9.47429C12.3888 9.47429 12.9109 9.47429 14.3248 7.04852C14.7609 6.26773 15.1398 5.45638 15.4586 4.62084C15.4872 4.57129 15.5711 4.41885 15.6702 4.35978C15.7433 4.3225 15.8244 4.30353 15.9064 4.30452H19.3002C19.6699 4.30452 19.9234 4.35977 19.971 4.50269C20.0548 4.72945 19.9557 5.42117 18.4065 7.51919L17.7148 8.43195C16.3104 10.2727 16.3104 10.3661 17.8025 11.7629Z" fill="#F6F6F6"/>
</g>
<defs>
<clipPath id="clip0_27_532">
<rect width="20" height="20" fill="white"/>
</clipPath>
</defs>
</svg>
