<?xml version="1.0" encoding="utf-8"?><svg xmlns="http://www.w3.org/2000/svg" xmlns:xlink="http://www.w3.org/1999/xlink" class="sprites"><symbol viewBox="0 0 24 24" id="checck" xmlns="http://www.w3.org/2000/svg"><path d="M2 14.636 8.916 21 21.978 1" stroke-width="3"/></symbol><symbol viewBox="0 0 76 71" id="otp" xmlns="http://www.w3.org/2000/svg"><path d="M24.505 64.076a3.41 3.41 0 0 0 2.53-.753c.757-.654 1.437-2.005 1.437-3.471 0-1.62-1.02-1.812-1.399-1.812-.547 0-.962.289-1.359.559l-1.21 5.477zm1.53-7.386c.49-.347 1.303-.926 2.531-.926 1.888 0 3.154 1.446 3.154 3.895 0 1.39-.472 3.028-1.455 4.243-1.869 2.333-4.23 2.314-6.232 2.314l-1.076 4.61-.13.096c-.436 0-.851-.02-1.286-.02-.642 0-1.208.039-1.907.058l-.095-.135s.666-2.044 1.494-5.558c.87-3.687 1.682-8.006 1.753-8.886l.133-.135 3.23-.539.114.134-.228.85zm-6.834 9.314-.15.154c-.606.117-1.316.212-1.701.212-1.426 0-3.519-.22-2.632-3.893.597-2.484 1.027-4.34 1.027-4.34l-1.322.038-.114-.155.549-1.948.132-.095h1.246l.547-2.489.133-.134a40.382 40.382 0 0 0 3.097-.81l.113.115-.83 3.357 1.925-.039.077.134c-.266.81-.341 1.023-.587 1.929l-.15.135-1.738-.039s-.352 1.497-.846 3.58c-.534 2.253-.254 2.138.28 2.353.458.184 1.057-.051 1.397-.167l.113.097-.566 2.005zM8.645 57.789c-.888 0-1.893.462-2.473 3.27-.645 3.125.64 3.325 1.265 3.325.566 0 1.772-.315 2.372-3.307.42-2.093.087-3.288-1.164-3.288zm4.41 3.288c-.812 4.729-3.694 5.331-6.133 5.331-2.408 0-4.628-1.693-4-5.355.491-2.862 2.156-5.51 6.202-5.308 2.822.14 4.483 2.116 3.931 5.332z"/><path d="M68.841 60.31 71.767 66l-.113.153-2.096.058-.15-.116c-.49-1.355-2.626-5.611-2.626-5.611-.548 2.449-.66 3.027-1.134 5.572l-.131.117-1.908.038-.076-.116s1.008-4.276 1.88-8.234c.408-1.85 1.042-4.781 1.294-6.557l.13-.115 2.06-.347.114.135c-.38 1.332-2.173 9.237-2.173 9.237 1.354-1.212 3.608-3.625 3.91-3.953l.208-.116h2.172l.056.174c-.536.432-1.53 1.35-1.889 1.677l-2.454 2.314zm-7.217 5.751-.15.116-1.927.057-.076-.133c.278-1.3 1.44-5.649 1.455-7.001.012-1.157-.699-1.543-1.587-1.543-1.17 0-1.946.598-2.512 1.023-.699 3.239-.925 4.26-1.53 7.481l-.133.116-1.924.057-.096-.133s.574-2.361 1.091-4.816c.406-1.922.739-3.504.892-4.826l.133-.135a19 19 0 0 0 2.002-.347l.095.134-.265.983c.737-.5 1.68-1.176 3.248-1.176.623 0 2.663.174 2.663 2.507 0 1.395-1.194 6.274-1.38 7.636zm-10.75-8.465c-.284 0-.566-.02-.85-.02-.623 0-1.85.04-2.965.811-1.983 1.388-2.02 3.875-2.02 3.973 0 .925.49 2.41 2.209 2.41.51 0 1.353-.122 2.266-.946l1.36-6.228zm1.398 2.45c-.661 2.97-.793 3.702-1.17 5.997l-.134.134-1.775.038-.094-.135.132-.77c-.321.27-1.152.982-2.758.982-1.926 0-3.493-1.388-3.493-3.798 0-1.523.717-3.182 1.511-4.146 1.756-2.102 4.192-2.218 5.93-2.218l2.606.02.094.153-.85 3.742zm-18.077 4.627c1.068.05 2.644.02 3.872-.829 1.397-.984 2.059-2.7 2.059-3.935 0-1.754-1.04-2.429-2.248-2.429-.964 0-1.644.424-2.248.81 0 0-1.318 5.91-1.435 6.383zm-2.304 1.407c.126-.584.94-4.01 1.773-7.864.71-3.305 1.207-5.367 1.38-6.907l.152-.136 2.059-.365.094.135-.528 2.14-.87 3.703c.794-.443 1.548-.868 2.758-.868 1.869 0 3.437 1.291 3.437 3.723 0 .983-.302 2.833-1.568 4.319-1.7 1.986-3.795 2.12-6.232 2.217h-1.038l-1.323.019-.094-.116zm-3.657-43.46c0-5.532 4.392-10.017 9.81-10.017 5.417 0 9.807 4.485 9.807 10.016s-4.39 10.016-9.808 10.016c-5.417 0-9.809-4.485-9.809-10.015z"/><path d="M44.846 9.933c0-3.17 2.517-5.74 5.621-5.74 3.106 0 5.624 2.57 5.624 5.74 0 3.17-2.518 5.74-5.624 5.74-3.104 0-5.621-2.57-5.621-5.74zM15.877 22.62c0-12.462 9.886-22.565 22.086-22.58V8.2c-7.788.014-14.096 6.464-14.096 14.42 0 7.963 6.323 14.419 14.122 14.419 7.753 0 14.123-6.395 14.123-14.474l7.99.005c0 12.52-9.9 22.627-22.113 22.627S15.877 35.09 15.877 22.62"/></symbol></svg>